<svg width="392" height="264" viewBox="0 0 392 264" fill="none" xmlns="http://www.w3.org/2000/svg">
<g clip-path="url(#clip0_215_5850)">
<path d="M0 24C0 10.7452 10.7452 0 24 0H368C381.255 0 392 10.7452 392 24V264H0V24Z" fill="#9745FD"/>
<path opacity="0.04" d="M-9.5 372L-22 248.5V-28.5H134.5L83 142L319 -83L492.5 9C379.343 86.7647 154.16 240.279 135.541 248.183C155.304 244.3 415.907 205.77 550.5 186L474 364L-9.5 372Z" fill="#0E1F2E"/>
<path d="M55.35 73.6C52.9167 73.6 50.8667 73.1333 49.2 72.2C47.5333 71.2333 46.2333 69.9833 45.3 68.45C44.3667 66.9167 43.8167 65.2667 43.65 63.5H49.6C49.8667 65.0333 50.5 66.2167 51.5 67.05C52.5333 67.8833 53.8333 68.3 55.4 68.3C57.6333 68.3 59.4333 67.2833 60.8 65.25C62.1667 63.1833 62.9 60.05 63 55.85C62.2 57.2167 60.9833 58.35 59.35 59.25C57.75 60.15 55.9833 60.6 54.05 60.6C52.1167 60.6 50.3 60.1333 48.6 59.2C46.9 58.2667 45.5167 56.95 44.45 55.25C43.3833 53.55 42.85 51.55 42.85 49.25C42.85 47.15 43.3667 45.2 44.4 43.4C45.4333 41.6 46.8667 40.15 48.7 39.05C50.5333 37.95 52.6833 37.4 55.15 37.4C57.7833 37.4 60 37.8833 61.8 38.85C63.6 39.8167 65.0333 41.1167 66.1 42.75C67.2 44.3833 67.9833 46.2 68.45 48.2C68.95 50.2 69.2 52.25 69.2 54.35C69.2 58.25 68.65 61.65 67.55 64.55C66.4833 67.4167 64.9 69.65 62.8 71.25C60.7333 72.8167 58.25 73.6 55.35 73.6ZM55.55 55.2C56.7833 55.2 57.9 54.9333 58.9 54.4C59.9 53.8333 60.6833 53.1 61.25 52.2C61.8167 51.2667 62.1 50.2333 62.1 49.1C62.1 47.3 61.4667 45.8167 60.2 44.65C58.9667 43.4833 57.4 42.9 55.5 42.9C53.6333 42.9 52.0833 43.4833 50.85 44.65C49.6167 45.7833 49 47.2333 49 49C49 50.8667 49.6167 52.3667 50.85 53.5C52.0833 54.6333 53.65 55.2 55.55 55.2ZM75.1758 73.35C74.0091 73.35 73.0424 72.9833 72.2758 72.25C71.5424 71.5167 71.1758 70.6333 71.1758 69.6C71.1758 68.5333 71.5424 67.6333 72.2758 66.9C73.0424 66.1667 74.0091 65.8 75.1758 65.8C76.3424 65.8 77.2924 66.1667 78.0258 66.9C78.7924 67.6333 79.1758 68.5333 79.1758 69.6C79.1758 70.6333 78.7924 71.5167 78.0258 72.25C77.2924 72.9833 76.3424 73.35 75.1758 73.35ZM95.9375 73.6C93.5375 73.6 91.3708 73.1833 89.4375 72.35C87.5042 71.4833 85.9542 70.2667 84.7875 68.7C83.6542 67.1333 83.0875 65.3167 83.0875 63.25C83.0875 61.1167 83.6375 59.25 84.7375 57.65C85.8708 56.05 87.3542 54.9 89.1875 54.2C87.5875 53.5 86.3208 52.5 85.3875 51.2C84.4542 49.8667 83.9875 48.3833 83.9875 46.75C83.9875 45.0833 84.4375 43.55 85.3375 42.15C86.2375 40.7167 87.5708 39.5667 89.3375 38.7C91.1375 37.8333 93.3375 37.4 95.9375 37.4C98.5375 37.4 100.721 37.8333 102.488 38.7C104.254 39.5667 105.588 40.7167 106.488 42.15C107.388 43.55 107.838 45.0833 107.838 46.75C107.838 48.35 107.354 49.8333 106.388 51.2C105.454 52.5333 104.204 53.5333 102.638 54.2C104.504 54.9 105.988 56.05 107.088 57.65C108.188 59.25 108.738 61.1167 108.738 63.25C108.738 65.3167 108.171 67.1333 107.038 68.7C105.904 70.2667 104.354 71.4833 102.388 72.35C100.454 73.1833 98.3042 73.6 95.9375 73.6ZM95.9375 52.3C97.6708 52.3 99.0375 51.85 100.038 50.95C101.038 50.05 101.538 48.9 101.538 47.5C101.538 45.9667 101.038 44.7667 100.038 43.9C99.0708 43.0333 97.7042 42.6 95.9375 42.6C94.1375 42.6 92.7542 43.0333 91.7875 43.9C90.8208 44.7667 90.3375 45.9667 90.3375 47.5C90.3375 48.9333 90.8208 50.1 91.7875 51C92.7875 51.8667 94.1708 52.3 95.9375 52.3ZM95.9375 68.25C98.0708 68.25 99.6875 67.7333 100.788 66.7C101.888 65.6333 102.438 64.3 102.438 62.7C102.438 60.9333 101.854 59.55 100.688 58.55C99.5542 57.55 97.9708 57.05 95.9375 57.05C93.9042 57.05 92.2875 57.55 91.0875 58.55C89.9208 59.55 89.3375 60.9333 89.3375 62.7C89.3375 64.3 89.8875 65.6333 90.9875 66.7C92.1208 67.7333 93.7708 68.25 95.9375 68.25Z" fill="white"/>
<path d="M48.085 111.252C46.601 111.252 45.327 110.937 44.263 110.307C43.199 109.663 42.38 108.774 41.806 107.64C41.232 106.492 40.945 105.169 40.945 103.671C40.945 102.173 41.232 100.85 41.806 99.702C42.38 98.554 43.199 97.658 44.263 97.014C45.327 96.37 46.601 96.048 48.085 96.048C49.849 96.048 51.291 96.489 52.411 97.371C53.545 98.239 54.252 99.464 54.532 101.046H51.571C51.389 100.248 50.997 99.625 50.395 99.177C49.807 98.715 49.023 98.484 48.043 98.484C46.685 98.484 45.621 98.946 44.851 99.87C44.081 100.794 43.696 102.061 43.696 103.671C43.696 105.281 44.081 106.548 44.851 107.472C45.621 108.382 46.685 108.837 48.043 108.837C49.023 108.837 49.807 108.627 50.395 108.207C50.997 107.773 51.389 107.178 51.571 106.422H54.532C54.252 107.934 53.545 109.117 52.411 109.971C51.291 110.825 49.849 111.252 48.085 111.252ZM56.4284 111V95.88H59.1164V111H56.4284ZM62.892 98.967C62.402 98.967 61.996 98.82 61.674 98.526C61.366 98.232 61.212 97.861 61.212 97.413C61.212 96.965 61.366 96.601 61.674 96.321C61.996 96.027 62.402 95.88 62.892 95.88C63.382 95.88 63.781 96.027 64.089 96.321C64.411 96.601 64.572 96.965 64.572 97.413C64.572 97.861 64.411 98.232 64.089 98.526C63.781 98.82 63.382 98.967 62.892 98.967ZM61.548 111V100.584H64.236V111H61.548ZM71.6826 111.252C70.6326 111.252 69.7016 111.028 68.8896 110.58C68.0776 110.132 67.4406 109.502 66.9786 108.69C66.5166 107.878 66.2856 106.94 66.2856 105.876C66.2856 104.798 66.5096 103.839 66.9576 102.999C67.4196 102.159 68.0496 101.508 68.8476 101.046C69.6596 100.57 70.6116 100.332 71.7036 100.332C72.7256 100.332 73.6286 100.556 74.4126 101.004C75.1966 101.452 75.8056 102.068 76.2396 102.852C76.6876 103.622 76.9116 104.483 76.9116 105.435C76.9116 105.589 76.9046 105.75 76.8906 105.918C76.8906 106.086 76.8836 106.261 76.8696 106.443H68.9526C69.0086 107.255 69.2886 107.892 69.7926 108.354C70.3106 108.816 70.9336 109.047 71.6616 109.047C72.2076 109.047 72.6626 108.928 73.0266 108.69C73.4046 108.438 73.6846 108.116 73.8666 107.724H76.5966C76.4006 108.382 76.0716 108.984 75.6096 109.53C75.1616 110.062 74.6016 110.482 73.9296 110.79C73.2716 111.098 72.5226 111.252 71.6826 111.252ZM71.7036 102.516C71.0456 102.516 70.4646 102.705 69.9606 103.083C69.4566 103.447 69.1346 104.007 68.9946 104.763H74.1816C74.1396 104.077 73.8876 103.531 73.4256 103.125C72.9636 102.719 72.3896 102.516 71.7036 102.516ZM78.7524 111V100.584H81.1254L81.3354 102.348C81.6574 101.732 82.1194 101.242 82.7214 100.878C83.3374 100.514 84.0584 100.332 84.8844 100.332C86.1724 100.332 87.1734 100.738 87.8874 101.55C88.6014 102.362 88.9584 103.552 88.9584 105.12V111H86.2704V105.372C86.2704 104.476 86.0884 103.79 85.7244 103.314C85.3604 102.838 84.7934 102.6 84.0234 102.6C83.2674 102.6 82.6444 102.866 82.1544 103.398C81.6784 103.93 81.4404 104.672 81.4404 105.624V111H78.7524ZM95.7498 111C94.6578 111 93.7828 110.734 93.1248 110.202C92.4668 109.67 92.1378 108.725 92.1378 107.367V102.831H90.3528V100.584H92.1378L92.4528 97.791H94.8258V100.584H97.6398V102.831H94.8258V107.388C94.8258 107.892 94.9308 108.242 95.1408 108.438C95.3648 108.62 95.7428 108.711 96.2748 108.711H97.5768V111H95.7498ZM103.833 111.252C102.909 111.252 102.097 111.105 101.397 110.811C100.697 110.503 100.137 110.083 99.7166 109.551C99.2966 109.019 99.0446 108.403 98.9606 107.703H101.67C101.754 108.109 101.978 108.459 102.342 108.753C102.72 109.033 103.203 109.173 103.791 109.173C104.379 109.173 104.806 109.054 105.072 108.816C105.352 108.578 105.492 108.305 105.492 107.997C105.492 107.549 105.296 107.248 104.904 107.094C104.512 106.926 103.966 106.765 103.266 106.611C102.818 106.513 102.363 106.394 101.901 106.254C101.439 106.114 101.012 105.939 100.62 105.729C100.242 105.505 99.9336 105.225 99.6956 104.889C99.4576 104.539 99.3386 104.112 99.3386 103.608C99.3386 102.684 99.7026 101.907 100.431 101.277C101.173 100.647 102.209 100.332 103.539 100.332C104.771 100.332 105.751 100.619 106.479 101.193C107.221 101.767 107.662 102.558 107.802 103.566H105.261C105.107 102.796 104.526 102.411 103.518 102.411C103.014 102.411 102.622 102.509 102.342 102.705C102.076 102.901 101.943 103.146 101.943 103.44C101.943 103.748 102.146 103.993 102.552 104.175C102.958 104.357 103.497 104.525 104.169 104.679C104.897 104.847 105.562 105.036 106.164 105.246C106.78 105.442 107.27 105.743 107.634 106.149C107.998 106.541 108.18 107.108 108.18 107.85C108.194 108.494 108.026 109.075 107.676 109.593C107.326 110.111 106.822 110.517 106.164 110.811C105.506 111.105 104.729 111.252 103.833 111.252ZM114.725 111V100.584H117.119L117.371 102.537C117.749 101.865 118.26 101.333 118.904 100.941C119.562 100.535 120.332 100.332 121.214 100.332V103.167H120.458C119.87 103.167 119.345 103.258 118.883 103.44C118.421 103.622 118.057 103.937 117.791 104.385C117.539 104.833 117.413 105.456 117.413 106.254V111H114.725ZM126.222 111.252C125.326 111.252 124.591 111.112 124.017 110.832C123.443 110.538 123.016 110.153 122.736 109.677C122.456 109.201 122.316 108.676 122.316 108.102C122.316 107.136 122.694 106.352 123.45 105.75C124.206 105.148 125.34 104.847 126.852 104.847H129.498V104.595C129.498 103.881 129.295 103.356 128.889 103.02C128.483 102.684 127.979 102.516 127.377 102.516C126.831 102.516 126.355 102.649 125.949 102.915C125.543 103.167 125.291 103.545 125.193 104.049H122.568C122.638 103.293 122.89 102.635 123.324 102.075C123.772 101.515 124.346 101.088 125.046 100.794C125.746 100.486 126.53 100.332 127.398 100.332C128.882 100.332 130.051 100.703 130.905 101.445C131.759 102.187 132.186 103.237 132.186 104.595V111H129.897L129.645 109.32C129.337 109.88 128.903 110.342 128.343 110.706C127.797 111.07 127.09 111.252 126.222 111.252ZM126.831 109.152C127.601 109.152 128.196 108.9 128.616 108.396C129.05 107.892 129.323 107.269 129.435 106.527H127.146C126.432 106.527 125.921 106.66 125.613 106.926C125.305 107.178 125.151 107.493 125.151 107.871C125.151 108.277 125.305 108.592 125.613 108.816C125.921 109.04 126.327 109.152 126.831 109.152ZM138.828 111C137.736 111 136.861 110.734 136.203 110.202C135.545 109.67 135.216 108.725 135.216 107.367V102.831H133.431V100.584H135.216L135.531 97.791H137.904V100.584H140.718V102.831H137.904V107.388C137.904 107.892 138.009 108.242 138.219 108.438C138.443 108.62 138.821 108.711 139.353 108.711H140.655V111H138.828ZM144.055 98.967C143.565 98.967 143.159 98.82 142.837 98.526C142.529 98.232 142.375 97.861 142.375 97.413C142.375 96.965 142.529 96.601 142.837 96.321C143.159 96.027 143.565 95.88 144.055 95.88C144.545 95.88 144.944 96.027 145.252 96.321C145.574 96.601 145.735 96.965 145.735 97.413C145.735 97.861 145.574 98.232 145.252 98.526C144.944 98.82 144.545 98.967 144.055 98.967ZM142.711 111V100.584H145.399V111H142.711ZM147.785 111V100.584H150.158L150.368 102.348C150.69 101.732 151.152 101.242 151.754 100.878C152.37 100.514 153.091 100.332 153.917 100.332C155.205 100.332 156.206 100.738 156.92 101.55C157.634 102.362 157.991 103.552 157.991 105.12V111H155.303V105.372C155.303 104.476 155.121 103.79 154.757 103.314C154.393 102.838 153.826 102.6 153.056 102.6C152.3 102.6 151.677 102.866 151.187 103.398C150.711 103.93 150.473 104.672 150.473 105.624V111H147.785ZM164.551 107.892C164.047 107.892 163.578 107.836 163.144 107.724L162.367 108.501C162.605 108.627 162.927 108.732 163.333 108.816C163.739 108.9 164.397 108.984 165.307 109.068C166.693 109.194 167.701 109.523 168.331 110.055C168.961 110.587 169.276 111.322 169.276 112.26C169.276 112.876 169.108 113.457 168.772 114.003C168.436 114.563 167.918 115.011 167.218 115.347C166.518 115.697 165.622 115.872 164.53 115.872C163.046 115.872 161.849 115.592 160.939 115.032C160.029 114.486 159.574 113.66 159.574 112.554C159.574 111.616 160.029 110.804 160.939 110.118C160.659 109.992 160.414 109.859 160.204 109.719C160.008 109.579 159.833 109.432 159.679 109.278V108.795L161.506 106.863C160.694 106.149 160.288 105.232 160.288 104.112C160.288 103.412 160.456 102.775 160.792 102.201C161.142 101.627 161.632 101.172 162.262 100.836C162.892 100.5 163.655 100.332 164.551 100.332C165.139 100.332 165.685 100.416 166.189 100.584H170.137V102.222L168.352 102.348C168.632 102.88 168.772 103.468 168.772 104.112C168.772 104.812 168.604 105.449 168.268 106.023C167.932 106.597 167.442 107.052 166.798 107.388C166.168 107.724 165.419 107.892 164.551 107.892ZM164.551 105.834C165.097 105.834 165.545 105.687 165.895 105.393C166.259 105.099 166.441 104.679 166.441 104.133C166.441 103.587 166.259 103.167 165.895 102.873C165.545 102.579 165.097 102.432 164.551 102.432C163.977 102.432 163.515 102.579 163.165 102.873C162.815 103.167 162.64 103.587 162.64 104.133C162.64 104.679 162.815 105.099 163.165 105.393C163.515 105.687 163.977 105.834 164.551 105.834ZM162.031 112.281C162.031 112.799 162.269 113.184 162.745 113.436C163.235 113.702 163.83 113.835 164.53 113.835C165.202 113.835 165.748 113.695 166.168 113.415C166.588 113.149 166.798 112.785 166.798 112.323C166.798 111.945 166.658 111.63 166.378 111.378C166.112 111.126 165.573 110.972 164.761 110.916C164.187 110.874 163.655 110.811 163.165 110.727C162.759 110.951 162.465 111.196 162.283 111.462C162.115 111.728 162.031 112.001 162.031 112.281Z" fill="white"/>
</g>
<defs>
<clipPath id="clip0_215_5850">
<path d="M0 24C0 10.7452 10.7452 0 24 0H368C381.255 0 392 10.7452 392 24V264H0V24Z" fill="white"/>
</clipPath>
</defs>
</svg>
