<svg width="392" height="264" viewBox="0 0 392 264" fill="none" xmlns="http://www.w3.org/2000/svg">
<g clip-path="url(#clip0_215_5836)">
<rect width="392" height="264" fill="#ECFF0E"/>
<path opacity="0.04" d="M-9.5 372L-22 248.5V-28.5H134.5L83 142L319 -83L492.5 9C379.343 86.7647 154.16 240.279 135.541 248.183C155.304 244.3 415.907 205.77 550.5 186L474 364L-9.5 372Z" fill="#0E1F2E"/>
<path d="M56.55 73.6C53.9167 73.6 51.7 73.1167 49.9 72.15C48.1 71.1833 46.65 69.8833 45.55 68.25C44.45 66.6167 43.65 64.8 43.15 62.8C42.6833 60.8 42.45 58.75 42.45 56.65C42.45 52.75 43 49.3667 44.1 46.5C45.2 43.6 46.7833 41.3667 48.85 39.8C50.9167 38.2 53.4167 37.4 56.35 37.4C58.75 37.4 60.7833 37.8833 62.45 38.85C64.15 39.7833 65.4667 41.0167 66.4 42.55C67.3333 44.0833 67.8833 45.7333 68.05 47.5H62.1C61.8 45.9667 61.15 44.7833 60.15 43.95C59.15 43.1167 57.8667 42.7 56.3 42.7C54.0667 42.7 52.2667 43.7333 50.9 45.8C49.5333 47.8333 48.8 50.95 48.7 55.15C49.5 53.7833 50.7 52.65 52.3 51.75C53.9 50.85 55.6833 50.4 57.65 50.4C59.5833 50.4 61.4 50.8667 63.1 51.8C64.8 52.7333 66.1667 54.05 67.2 55.75C68.2667 57.45 68.8 59.45 68.8 61.75C68.8 63.85 68.2833 65.8 67.25 67.6C66.25 69.4 64.8167 70.85 62.95 71.95C61.1167 73.05 58.9833 73.6 56.55 73.6ZM56.2 68.1C58.0667 68.1 59.6 67.5333 60.8 66.4C62.0333 65.2333 62.65 63.7667 62.65 62C62.65 60.1333 62.0333 58.6333 60.8 57.5C59.5667 56.3667 58 55.8 56.1 55.8C54.8667 55.8 53.75 56.0833 52.75 56.65C51.7833 57.1833 51.0167 57.9167 50.45 58.85C49.8833 59.75 49.6 60.7667 49.6 61.9C49.6 63.7 50.2167 65.1833 51.45 66.35C52.7167 67.5167 54.3 68.1 56.2 68.1ZM73.9395 73V37H80.3395V58.25L89.1395 48.2H96.7395L86.5895 59.5L98.3895 73H90.3895L80.3395 60.55V73H73.9395ZM100.907 61.2V55.85H110.307V47.2H115.757V55.85H125.107V61.2H115.757V69.85H110.307V61.2H100.907Z" fill="#0E1F2E"/>
<path d="M48.085 111.252C46.601 111.252 45.327 110.937 44.263 110.307C43.199 109.663 42.38 108.774 41.806 107.64C41.232 106.492 40.945 105.169 40.945 103.671C40.945 102.173 41.232 100.85 41.806 99.702C42.38 98.554 43.199 97.658 44.263 97.014C45.327 96.37 46.601 96.048 48.085 96.048C49.849 96.048 51.291 96.489 52.411 97.371C53.545 98.239 54.252 99.464 54.532 101.046H51.571C51.389 100.248 50.997 99.625 50.395 99.177C49.807 98.715 49.023 98.484 48.043 98.484C46.685 98.484 45.621 98.946 44.851 99.87C44.081 100.794 43.696 102.061 43.696 103.671C43.696 105.281 44.081 106.548 44.851 107.472C45.621 108.382 46.685 108.837 48.043 108.837C49.023 108.837 49.807 108.627 50.395 108.207C50.997 107.773 51.389 107.178 51.571 106.422H54.532C54.252 107.934 53.545 109.117 52.411 109.971C51.291 110.825 49.849 111.252 48.085 111.252ZM56.4284 111V95.88H59.1164V111H56.4284ZM62.892 98.967C62.402 98.967 61.996 98.82 61.674 98.526C61.366 98.232 61.212 97.861 61.212 97.413C61.212 96.965 61.366 96.601 61.674 96.321C61.996 96.027 62.402 95.88 62.892 95.88C63.382 95.88 63.781 96.027 64.089 96.321C64.411 96.601 64.572 96.965 64.572 97.413C64.572 97.861 64.411 98.232 64.089 98.526C63.781 98.82 63.382 98.967 62.892 98.967ZM61.548 111V100.584H64.236V111H61.548ZM71.6826 111.252C70.6326 111.252 69.7016 111.028 68.8896 110.58C68.0776 110.132 67.4406 109.502 66.9786 108.69C66.5166 107.878 66.2856 106.94 66.2856 105.876C66.2856 104.798 66.5096 103.839 66.9576 102.999C67.4196 102.159 68.0496 101.508 68.8476 101.046C69.6596 100.57 70.6116 100.332 71.7036 100.332C72.7256 100.332 73.6286 100.556 74.4126 101.004C75.1966 101.452 75.8056 102.068 76.2396 102.852C76.6876 103.622 76.9116 104.483 76.9116 105.435C76.9116 105.589 76.9046 105.75 76.8906 105.918C76.8906 106.086 76.8836 106.261 76.8696 106.443H68.9526C69.0086 107.255 69.2886 107.892 69.7926 108.354C70.3106 108.816 70.9336 109.047 71.6616 109.047C72.2076 109.047 72.6626 108.928 73.0266 108.69C73.4046 108.438 73.6846 108.116 73.8666 107.724H76.5966C76.4006 108.382 76.0716 108.984 75.6096 109.53C75.1616 110.062 74.6016 110.482 73.9296 110.79C73.2716 111.098 72.5226 111.252 71.6826 111.252ZM71.7036 102.516C71.0456 102.516 70.4646 102.705 69.9606 103.083C69.4566 103.447 69.1346 104.007 68.9946 104.763H74.1816C74.1396 104.077 73.8876 103.531 73.4256 103.125C72.9636 102.719 72.3896 102.516 71.7036 102.516ZM78.7524 111V100.584H81.1254L81.3354 102.348C81.6574 101.732 82.1194 101.242 82.7214 100.878C83.3374 100.514 84.0584 100.332 84.8844 100.332C86.1724 100.332 87.1734 100.738 87.8874 101.55C88.6014 102.362 88.9584 103.552 88.9584 105.12V111H86.2704V105.372C86.2704 104.476 86.0884 103.79 85.7244 103.314C85.3604 102.838 84.7934 102.6 84.0234 102.6C83.2674 102.6 82.6444 102.866 82.1544 103.398C81.6784 103.93 81.4404 104.672 81.4404 105.624V111H78.7524ZM95.7498 111C94.6578 111 93.7828 110.734 93.1248 110.202C92.4668 109.67 92.1378 108.725 92.1378 107.367V102.831H90.3528V100.584H92.1378L92.4528 97.791H94.8258V100.584H97.6398V102.831H94.8258V107.388C94.8258 107.892 94.9308 108.242 95.1408 108.438C95.3648 108.62 95.7428 108.711 96.2748 108.711H97.5768V111H95.7498ZM103.833 111.252C102.909 111.252 102.097 111.105 101.397 110.811C100.697 110.503 100.137 110.083 99.7166 109.551C99.2966 109.019 99.0446 108.403 98.9606 107.703H101.67C101.754 108.109 101.978 108.459 102.342 108.753C102.72 109.033 103.203 109.173 103.791 109.173C104.379 109.173 104.806 109.054 105.072 108.816C105.352 108.578 105.492 108.305 105.492 107.997C105.492 107.549 105.296 107.248 104.904 107.094C104.512 106.926 103.966 106.765 103.266 106.611C102.818 106.513 102.363 106.394 101.901 106.254C101.439 106.114 101.012 105.939 100.62 105.729C100.242 105.505 99.9336 105.225 99.6956 104.889C99.4576 104.539 99.3386 104.112 99.3386 103.608C99.3386 102.684 99.7026 101.907 100.431 101.277C101.173 100.647 102.209 100.332 103.539 100.332C104.771 100.332 105.751 100.619 106.479 101.193C107.221 101.767 107.662 102.558 107.802 103.566H105.261C105.107 102.796 104.526 102.411 103.518 102.411C103.014 102.411 102.622 102.509 102.342 102.705C102.076 102.901 101.943 103.146 101.943 103.44C101.943 103.748 102.146 103.993 102.552 104.175C102.958 104.357 103.497 104.525 104.169 104.679C104.897 104.847 105.562 105.036 106.164 105.246C106.78 105.442 107.27 105.743 107.634 106.149C107.998 106.541 108.18 107.108 108.18 107.85C108.194 108.494 108.026 109.075 107.676 109.593C107.326 110.111 106.822 110.517 106.164 110.811C105.506 111.105 104.729 111.252 103.833 111.252ZM119.366 111C118.274 111 117.399 110.734 116.741 110.202C116.083 109.67 115.754 108.725 115.754 107.367V102.831H113.969V100.584H115.754L116.069 97.791H118.442V100.584H121.256V102.831H118.442V107.388C118.442 107.892 118.547 108.242 118.757 108.438C118.981 108.62 119.359 108.711 119.891 108.711H121.193V111H119.366ZM127.875 111.252C126.867 111.252 125.957 111.021 125.145 110.559C124.347 110.097 123.71 109.46 123.234 108.648C122.772 107.822 122.541 106.87 122.541 105.792C122.541 104.714 122.779 103.769 123.255 102.957C123.731 102.131 124.368 101.487 125.166 101.025C125.978 100.563 126.888 100.332 127.896 100.332C128.89 100.332 129.786 100.563 130.584 101.025C131.396 101.487 132.033 102.131 132.495 102.957C132.971 103.769 133.209 104.714 133.209 105.792C133.209 106.87 132.971 107.822 132.495 108.648C132.033 109.46 131.396 110.097 130.584 110.559C129.772 111.021 128.869 111.252 127.875 111.252ZM127.875 108.921C128.575 108.921 129.184 108.662 129.702 108.144C130.22 107.612 130.479 106.828 130.479 105.792C130.479 104.756 130.22 103.979 129.702 103.461C129.184 102.929 128.582 102.663 127.896 102.663C127.182 102.663 126.566 102.929 126.048 103.461C125.544 103.979 125.292 104.756 125.292 105.792C125.292 106.828 125.544 107.612 126.048 108.144C126.566 108.662 127.175 108.921 127.875 108.921ZM139.423 111C138.331 111 137.456 110.734 136.798 110.202C136.14 109.67 135.811 108.725 135.811 107.367V102.831H134.026V100.584H135.811L136.126 97.791H138.499V100.584H141.313V102.831H138.499V107.388C138.499 107.892 138.604 108.242 138.814 108.438C139.038 108.62 139.416 108.711 139.948 108.711H141.25V111H139.423ZM146.792 111.252C145.896 111.252 145.161 111.112 144.587 110.832C144.013 110.538 143.586 110.153 143.306 109.677C143.026 109.201 142.886 108.676 142.886 108.102C142.886 107.136 143.264 106.352 144.02 105.75C144.776 105.148 145.91 104.847 147.422 104.847H150.068V104.595C150.068 103.881 149.865 103.356 149.459 103.02C149.053 102.684 148.549 102.516 147.947 102.516C147.401 102.516 146.925 102.649 146.519 102.915C146.113 103.167 145.861 103.545 145.763 104.049H143.138C143.208 103.293 143.46 102.635 143.894 102.075C144.342 101.515 144.916 101.088 145.616 100.794C146.316 100.486 147.1 100.332 147.968 100.332C149.452 100.332 150.621 100.703 151.475 101.445C152.329 102.187 152.756 103.237 152.756 104.595V111H150.467L150.215 109.32C149.907 109.88 149.473 110.342 148.913 110.706C148.367 111.07 147.66 111.252 146.792 111.252ZM147.401 109.152C148.171 109.152 148.766 108.9 149.186 108.396C149.62 107.892 149.893 107.269 150.005 106.527H147.716C147.002 106.527 146.491 106.66 146.183 106.926C145.875 107.178 145.721 107.493 145.721 107.871C145.721 108.277 145.875 108.592 146.183 108.816C146.491 109.04 146.897 109.152 147.401 109.152ZM154.901 111V95.88H157.589V111H154.901Z" fill="#0E1F2E"/>
</g>
<defs>
<clipPath id="clip0_215_5836">
<rect width="392" height="264" fill="white"/>
</clipPath>
</defs>
</svg>
