<svg width="43" height="64" viewBox="0 0 43 64" fill="none" xmlns="http://www.w3.org/2000/svg">
<path d="M41.6198 51.3943C41.4747 57.6731 36.3404 62.6945 30.0536 62.6945H12.8939C7.08262 62.6945 2.25468 58.4066 1.44868 52.7968C1.38419 52.3374 1.34389 51.8699 1.32777 51.3943C0.900595 32.9611 7.13099 21.9431 17.3591 17.3086H25.5965C29.5136 19.0899 32.8505 21.8061 35.4458 25.5137C39.6128 31.4781 41.8857 40.0217 41.6198 51.3943Z" fill="#1EBC61"/>
<path d="M30.0532 64H12.8935C6.53413 64 1.0614 59.2607 0.150618 52.982C0.150618 52.9739 0.150618 52.9659 0.150618 52.9659C0.0780779 52.4661 0.03777 51.9503 0.02165 51.4264C-0.51031 28.7778 8.86349 19.7264 16.8187 16.1155C16.988 16.0349 17.1733 15.9946 17.3587 15.9946H25.596C25.7814 15.9946 25.9668 16.0349 26.1361 16.1155C30.3434 18.0258 33.8414 20.9354 36.5174 24.7639C41.039 31.228 43.1991 40.1988 42.9331 51.4264C42.7639 58.358 36.9929 64 30.0532 64ZM2.74594 52.6274C3.4794 57.6246 7.83985 61.3886 12.8935 61.3886H30.0532C35.5824 61.3886 40.1766 56.8911 40.3056 51.37C40.5554 40.7066 38.5565 32.2597 34.3573 26.2711C32.0037 22.9101 28.9571 20.339 25.2978 18.6222H17.6408C7.4288 23.4018 2.24622 34.71 2.6331 51.37C2.64116 51.7891 2.68145 52.2082 2.73787 52.6112C2.73787 52.6112 2.74594 52.6193 2.74594 52.6274Z" fill="#102770"/>
<g opacity="0.3">
<path d="M41.1113 54.5215C39.6605 59.2608 35.2517 62.6944 30.053 62.6944H12.8852C7.07394 62.6944 2.25405 58.4064 1.43999 52.7967C1.37551 52.3373 1.33521 51.8698 1.31909 51.3942C0.980574 36.8217 4.80102 26.8918 11.4747 21.0806C8.20234 26.8838 6.46944 34.702 6.70318 44.7125C6.71124 45.188 6.75153 45.6555 6.81601 46.1149C7.63007 51.7247 12.458 56.0126 18.2693 56.0126H35.429C37.4924 56.0126 39.4349 55.4726 41.1113 54.5215Z" fill="#102770"/>
</g>
<g opacity="0.55">
<path d="M41.619 51.3941C41.5304 55.2629 39.5476 58.6562 36.5654 60.6873C38.4998 58.6723 39.7088 55.9561 39.7814 52.9577C40.0232 42.7296 38.2016 34.7905 34.8003 28.955C31.7375 29.0759 30.6091 26.8756 31.8664 24.8767C29.5774 22.2733 26.8451 20.2825 23.75 18.872H15.5207C13.8523 19.6296 12.2967 20.5485 10.854 21.6527C12.7803 19.8472 14.9646 18.4045 17.3665 17.3164H25.5957C29.5129 19.0896 32.8498 21.8058 35.437 25.5215C39.6202 31.4778 41.885 40.0214 41.619 51.3941Z" fill="white"/>
</g>
<path d="M30.0527 63.9682H12.893C5.96943 63.9682 0.214606 58.3424 0.0534061 51.4188C-0.478554 28.7863 8.88717 19.743 16.8343 16.1402C17.0036 16.0676 17.1809 16.0273 17.3663 16.0273H25.6036C25.789 16.0273 25.9663 16.0676 26.1356 16.1402C34.0827 19.743 43.4404 28.7944 42.9165 51.4188C42.7392 58.3424 36.9763 63.9682 30.0527 63.9682ZM20.824 61.4132H30.0527C35.598 61.4132 40.2083 56.8996 40.3373 51.3624C40.7242 34.6862 35.5335 23.3619 25.3054 18.5824H17.6323C7.41218 23.3619 2.21348 34.6862 2.60036 51.3624C2.72932 56.9077 7.34771 61.4132 12.8849 61.4132H20.824Z" fill="#102770"/>
<path d="M29.5372 16.1081C29.5372 16.6964 29.247 17.2284 28.7795 17.6153C28.4813 17.8651 28.1105 18.0505 27.6914 18.1553C27.4577 18.2117 27.2078 18.244 26.958 18.244H16.1979C15.9561 18.244 15.7304 18.2198 15.5047 18.1634C14.4166 17.9135 13.6187 17.0833 13.6187 16.1081C13.6187 15.5197 13.9088 14.9877 14.3763 14.6008C14.6987 14.3349 15.0936 14.1414 15.545 14.0447C15.7546 13.9963 15.9722 13.9722 16.1979 13.9722H26.958C27.2078 13.9722 27.4416 14.0044 27.6672 14.0528C28.7473 14.3187 29.5372 15.1409 29.5372 16.1081Z" fill="#F7C714"/>
<path d="M26.9505 18.4453H16.1904C15.9405 18.4453 15.6906 18.4211 15.4569 18.3647C14.256 18.0826 13.4097 17.1638 13.4097 16.116C13.4097 15.4873 13.7079 14.8989 14.2399 14.4556C14.5945 14.1654 15.0217 13.9559 15.4972 13.8592C15.7148 13.8108 15.9486 13.7866 16.1904 13.7866H26.9505C27.2084 13.7866 27.4663 13.8188 27.7081 13.8753C28.901 14.1574 29.7312 15.0843 29.7312 16.116C29.7312 16.7446 29.433 17.333 28.901 17.7763C28.5705 18.0504 28.1675 18.2438 27.7323 18.3566C27.4824 18.4131 27.2165 18.4453 26.9505 18.4453ZM16.1904 14.1816C15.9808 14.1816 15.7712 14.2057 15.5778 14.246C15.1667 14.3347 14.796 14.512 14.4897 14.7619C14.0464 15.1246 13.8046 15.6082 13.8046 16.1079C13.8046 16.9623 14.5139 17.728 15.5375 17.9617C15.7471 18.0101 15.9647 18.0342 16.1823 18.0342H26.9424C27.1761 18.0342 27.4018 18.0101 27.6275 17.9536C28.0063 17.865 28.3529 17.6877 28.635 17.4539C29.0783 17.0912 29.3201 16.6076 29.3201 16.1079C29.3201 15.2616 28.6189 14.4959 27.6033 14.2541C27.3857 14.1977 27.16 14.1735 26.9344 14.1735H16.1904V14.1816Z" fill="#102770"/>
<g opacity="0.55">
<path d="M29.5375 16.1081C29.5375 16.6964 29.2474 17.2284 28.7799 17.6153C28.4736 17.8651 28.1028 18.0505 27.6918 18.1553C27.458 18.2117 27.2082 18.244 26.9583 18.244H25.8863C25.9266 18.2198 25.975 18.1875 26.0153 18.1472C26.4828 17.7604 26.7729 17.2284 26.7729 16.64C26.7729 15.6728 25.9831 14.8507 24.903 14.5928C24.6773 14.5364 24.4355 14.5041 24.1937 14.5041H14.4976C14.7877 14.2946 15.1504 14.1253 15.5373 14.0447C15.7469 13.9963 15.9645 13.9722 16.1902 13.9722H26.9503C27.2001 13.9722 27.4339 14.0044 27.6595 14.0608C28.7477 14.3187 29.5375 15.1409 29.5375 16.1081Z" fill="white"/>
</g>
<path d="M26.9502 19.5175H16.1901C15.8596 19.5175 15.5292 19.4772 15.2148 19.4047C13.5142 19.0097 12.3374 17.6556 12.3374 16.1081C12.3374 15.1651 12.7807 14.2624 13.5625 13.6176C14.0461 13.2146 14.6426 12.9325 15.2793 12.7954C15.5614 12.731 15.8838 12.6987 16.1981 12.6987H26.9582C27.3048 12.6987 27.6434 12.739 27.9738 12.8196C29.6422 13.2226 30.819 14.5687 30.819 16.1081C30.819 17.0511 30.3757 17.9538 29.5939 18.5986C29.1425 18.9694 28.5864 19.2435 27.998 19.3885C27.6514 19.4772 27.3048 19.5175 26.9502 19.5175ZM16.1901 15.2537C16.0611 15.2537 15.9322 15.2699 15.8193 15.294C15.5695 15.3505 15.3518 15.4472 15.1826 15.5842C15.0697 15.6729 14.8924 15.8663 14.8924 16.1C14.8924 16.4386 15.2793 16.7851 15.7951 16.906C15.9241 16.9383 16.0611 16.9544 16.1981 16.9544H26.9582C27.1033 16.9544 27.2484 16.9383 27.3935 16.906C27.6111 16.8496 27.8126 16.7529 27.9738 16.6239C28.0867 16.5353 28.264 16.3419 28.264 16.1081C28.264 15.7696 27.8852 15.423 27.3774 15.3021C27.2404 15.2699 27.1033 15.2537 26.9582 15.2537H16.1901Z" fill="#102770"/>
<path d="M32.85 4.31602L32.3664 5.2268L27.6755 14.0606L15.5452 14.0444L12.6677 8.70065L10.3062 4.31602C11.3701 3.6148 13.4979 4.96081 14.6505 4.49333C15.8192 4.01779 16.4076 1.56755 17.6327 1.33381C18.8659 1.09201 20.3328 3.13925 21.5821 3.13925C22.8395 3.13925 24.2983 1.09201 25.5315 1.33381C26.7566 1.57561 27.3369 4.01779 28.5137 4.49333C29.6582 4.96081 31.7861 3.62286 32.85 4.31602Z" fill="#1EBC61"/>
<path d="M27.6673 15.3743L15.537 15.3582C15.0534 15.3582 14.6101 15.0922 14.3844 14.6731L9.14542 4.94464C8.82302 4.3482 9.00841 3.59862 9.58067 3.22786C10.6124 2.55082 11.8778 2.84098 12.8853 3.08278C13.2802 3.1795 13.9492 3.33263 14.1507 3.27621C14.32 3.17949 14.6988 2.59111 14.9245 2.23647C15.4725 1.36599 16.1657 0.285958 17.3586 0.0441574C18.5676 -0.189583 19.6154 0.551942 20.4536 1.15644C20.7921 1.39824 21.3563 1.80123 21.5659 1.82541C21.7593 1.80123 22.3235 1.39824 22.6621 1.15644C23.5084 0.560002 24.5481 -0.189583 25.7571 0.0441574C26.958 0.277898 27.6431 1.36599 28.1912 2.23647C28.4169 2.59111 28.7957 3.18756 28.9892 3.28428C29.1745 3.33264 29.8435 3.17144 30.2385 3.08278C31.254 2.84098 32.5114 2.54276 33.5511 3.22786C34.1153 3.59862 34.3088 4.34014 33.9864 4.93658L33.5028 5.84736C33.4947 5.86348 33.4866 5.87154 33.4866 5.88766L28.8118 14.6811C28.5942 15.1083 28.1509 15.3743 27.6673 15.3743ZM16.3188 12.7387L26.8774 12.7548L30.6334 5.68616C29.7871 5.8796 28.8602 6.05692 28.0058 5.71034C27.0628 5.32346 26.4986 4.42879 25.9989 3.63891C25.7974 3.31651 25.4669 2.79261 25.2654 2.63141C25.0236 2.70395 24.5078 3.06666 24.2015 3.29234C23.4439 3.83236 22.5815 4.44491 21.574 4.44491C20.5665 4.44491 19.704 3.83236 18.9464 3.29234C18.6321 3.06666 18.1243 2.70395 17.8825 2.63141C17.681 2.79261 17.3505 3.31651 17.149 3.63891C16.6493 4.42879 16.0851 5.32346 15.1421 5.71034C14.2958 6.05692 13.3689 5.88765 12.5306 5.69421L16.3188 12.7387Z" fill="#102770"/>
<g opacity="0.55">
<path d="M32.8505 4.32406L32.3669 5.23485L31.6415 6.60505C30.5292 6.62117 29.0461 7.34657 28.1515 6.98386C26.9828 6.50026 26.3944 4.05809 25.1773 3.82435C23.9442 3.58255 22.4772 5.6298 21.2279 5.6298C19.9786 5.6298 18.5117 3.58255 17.2705 3.82435C16.0454 4.06615 15.465 6.50026 14.2963 6.98386C13.6032 7.26596 12.5554 6.89521 11.6043 6.70177L10.3228 4.32406C11.3867 3.62284 13.5145 4.96888 14.6671 4.5014C15.8358 4.0178 16.4242 1.57561 17.6412 1.33381C18.8744 1.09201 20.3413 3.13925 21.5987 3.13925C22.848 3.13925 24.3149 1.09201 25.5481 1.33381C26.7732 1.57561 27.3535 4.0178 28.5222 4.5014C29.6587 4.96082 31.7865 3.62284 32.8505 4.32406Z" fill="white"/>
</g>
<path d="M28.8039 4.57425C28.6991 4.55813 28.6024 4.53395 28.5057 4.49365C27.7239 4.17125 27.2 2.97032 26.5713 2.14014C26.6035 2.14014 26.6358 2.14819 26.668 2.15625C27.5627 2.32551 28.1188 3.67153 28.8039 4.57425Z" fill="#0CAE97"/>
<path d="M29.2635 4.84815L28.7718 4.77562C28.6509 4.7595 28.5381 4.72725 28.4253 4.68695C27.8127 4.43709 27.3614 3.72783 26.9342 3.05079C26.7649 2.78481 26.5876 2.50269 26.4103 2.26895L26.1362 1.90625L26.5956 1.94655C26.6359 1.94655 26.6762 1.95463 26.7165 1.96269C27.45 2.10777 27.9417 2.88959 28.4253 3.65529C28.6026 3.92933 28.7799 4.21949 28.9653 4.46129L29.2635 4.84815ZM27.1598 2.63165C27.2001 2.69613 27.2404 2.76062 27.2807 2.8251C27.579 3.29258 27.8772 3.76812 28.2157 4.06634C28.1754 4.00186 28.127 3.92932 28.0867 3.86484C27.7885 3.40541 27.4903 2.92987 27.1598 2.63165Z" fill="#102770"/>
<path d="M27.6671 15.342L15.5368 15.3259C15.0693 15.3259 14.6341 15.068 14.4165 14.6569L9.17748 4.92847C8.86314 4.34815 9.04852 3.6147 9.60466 3.252C10.6283 2.57496 11.8856 2.87317 12.8851 3.11497C13.2881 3.21169 13.9651 3.3729 14.1666 3.30842C14.352 3.2117 14.7308 2.61525 14.9646 2.25255C15.5449 1.34177 16.1977 0.310089 17.3826 0.0763491C18.5754 -0.157391 19.6152 0.584125 20.4534 1.18057C20.8 1.42237 21.3723 1.83343 21.5818 1.84955C21.7833 1.83343 22.3556 1.42237 22.7022 1.18057C23.5404 0.584125 24.5801 -0.165451 25.773 0.0763491C26.9578 0.310089 27.6107 1.34177 28.191 2.25255C28.4167 2.61525 28.8036 3.21975 28.997 3.31647C29.1905 3.37289 29.8675 3.21169 30.2705 3.11497C31.278 2.88123 32.5273 2.58302 33.5509 3.252C34.099 3.6147 34.2844 4.3401 33.9781 4.92042L28.7955 14.665C28.5698 15.0841 28.1427 15.342 27.6671 15.342ZM16.3025 12.7709L26.9014 12.7789L30.7057 5.6297C29.8514 5.8312 28.8922 6.02464 28.0298 5.67C27.0949 5.29118 26.5307 4.39652 26.0309 3.6147C25.8214 3.28424 25.4829 2.74421 25.2814 2.59107C25.0396 2.65555 24.5076 3.02631 24.1852 3.26005C23.4276 3.80007 22.5732 4.40457 21.5738 4.40457C20.5743 4.40457 19.72 3.79201 18.9623 3.26005C18.6399 3.02631 18.116 2.65555 17.8662 2.59107C17.6647 2.74421 17.3261 3.28424 17.1166 3.6147C16.6169 4.40458 16.0527 5.29118 15.1177 5.67C14.2553 6.02464 13.3123 5.8312 12.4579 5.6297L16.3025 12.7709Z" fill="#102770"/>
<path d="M26.8537 44.9704C26.886 46.6872 25.9188 48.2347 23.8473 48.9198L23.8876 51.0074L21.2278 51.0638L21.1956 49.3067C19.7206 49.2987 18.302 48.944 17.5686 48.5571L18.1408 46.0021C18.9791 46.4051 20.2606 46.8081 21.5744 46.7839C22.993 46.7598 23.7264 46.1553 23.7022 45.2687C23.6861 44.4224 23.0333 43.9468 21.381 43.3987C19.1 42.6572 17.6008 41.4321 17.5605 39.4493C17.5202 37.5794 18.7534 36.0319 20.9215 35.4757L20.8812 33.3801L23.541 33.3237L23.5813 35.2662C24.6533 35.3387 25.4916 35.5886 26.1283 35.8546L25.4916 38.3532C24.9435 38.1033 23.9602 37.7406 22.6303 37.7648C21.2923 37.789 20.6636 38.4096 20.6717 39.1189C20.6878 39.9894 21.4616 40.3521 23.2348 40.9888C25.6608 41.827 26.8134 43.0522 26.8537 44.9704Z" fill="#F9F6C3"/>
</svg>
