<svg width="310" height="264" viewBox="0 0 310 264" fill="none" xmlns="http://www.w3.org/2000/svg">
<g clip-path="url(#clip0_704_1130)">
<rect width="310" height="264" fill="white"/>
<path opacity="0.03" d="M366.755 484.808L248.15 448.184L-6.94391 340.22L54.054 196.096L190.997 309.978L75.7755 4.94548L228.124 -118.975C255.634 15.5423 309.239 282.752 309.261 302.978C313.388 283.266 379.479 28.254 413.732 -103.4L547.838 36.4278L366.755 484.808Z" fill="#0E1F2E"/>
<path d="M57.75 73.6C54.5167 73.6 51.75 72.85 49.45 71.35C47.15 69.8167 45.3667 67.7 44.1 65C42.8667 62.2667 42.25 59.1 42.25 55.5C42.25 51.9333 42.8667 48.7833 44.1 46.05C45.3667 43.3167 47.15 41.2 49.45 39.7C51.75 38.1667 54.5167 37.4 57.75 37.4C60.9833 37.4 63.75 38.1667 66.05 39.7C68.35 41.2 70.1167 43.3167 71.35 46.05C72.6167 48.7833 73.25 51.9333 73.25 55.5C73.25 59.1 72.6167 62.2667 71.35 65C70.1167 67.7 68.35 69.8167 66.05 71.35C63.75 72.85 60.9833 73.6 57.75 73.6ZM57.75 67.85C60.3833 67.85 62.5333 66.75 64.2 64.55C65.8667 62.35 66.7 59.3333 66.7 55.5C66.7 51.6667 65.8667 48.65 64.2 46.45C62.5333 44.25 60.3833 43.15 57.75 43.15C55.0833 43.15 52.9167 44.25 51.25 46.45C49.6167 48.65 48.8 51.6667 48.8 55.5C48.8 59.3333 49.6167 62.35 51.25 64.55C52.9167 66.75 55.0833 67.85 57.75 67.85ZM89.348 73.6C87.048 73.6 84.9647 73.2 83.098 72.4C81.2314 71.5667 79.7314 70.3 78.598 68.6C77.4647 66.9 76.8647 64.7667 76.798 62.2H83.098C83.1314 63.9 83.6814 65.3333 84.748 66.5C85.848 67.6333 87.3814 68.2 89.348 68.2C91.2147 68.2 92.648 67.6833 93.648 66.65C94.648 65.6167 95.148 64.3167 95.148 62.75C95.148 60.9167 94.4814 59.5333 93.148 58.6C91.848 57.6333 90.1647 57.15 88.098 57.15H85.498V51.9H88.148C89.848 51.9 91.2647 51.5 92.398 50.7C93.5314 49.9 94.098 48.7167 94.098 47.15C94.098 45.85 93.6647 44.8167 92.798 44.05C91.9647 43.25 90.798 42.85 89.298 42.85C87.6647 42.85 86.3814 43.3333 85.448 44.3C84.548 45.2667 84.048 46.45 83.948 47.85H77.698C77.8314 44.6167 78.948 42.0667 81.048 40.2C83.1814 38.3333 85.9314 37.4 89.298 37.4C91.698 37.4 93.7147 37.8333 95.348 38.7C97.0147 39.5333 98.2647 40.65 99.098 42.05C99.9647 43.45 100.398 45 100.398 46.7C100.398 48.6667 99.848 50.3333 98.748 51.7C97.6814 53.0333 96.348 53.9333 94.748 54.4C96.7147 54.8 98.3147 55.7667 99.548 57.3C100.781 58.8 101.398 60.7 101.398 63C101.398 64.9333 100.931 66.7 99.998 68.3C99.0647 69.9 97.698 71.1833 95.898 72.15C94.1314 73.1167 91.948 73.6 89.348 73.6ZM109.283 73.35C108.117 73.35 107.15 72.9833 106.383 72.25C105.65 71.5167 105.283 70.6333 105.283 69.6C105.283 68.5333 105.65 67.6333 106.383 66.9C107.15 66.1667 108.117 65.8 109.283 65.8C110.45 65.8 111.4 66.1667 112.133 66.9C112.9 67.6333 113.283 68.5333 113.283 69.6C113.283 70.6333 112.9 71.5167 112.133 72.25C111.4 72.9833 110.45 73.35 109.283 73.35Z" fill="#9745FD"/>
<path d="M41.428 111V96.3H51.025V98.463H44.116V102.495H50.395V104.595H44.116V108.837H51.025V111H41.428ZM56.6766 111.252C55.7806 111.252 55.0456 111.112 54.4716 110.832C53.8976 110.538 53.4706 110.153 53.1906 109.677C52.9106 109.201 52.7706 108.676 52.7706 108.102C52.7706 107.136 53.1486 106.352 53.9046 105.75C54.6606 105.148 55.7946 104.847 57.3066 104.847H59.9526V104.595C59.9526 103.881 59.7496 103.356 59.3436 103.02C58.9376 102.684 58.4336 102.516 57.8316 102.516C57.2856 102.516 56.8096 102.649 56.4036 102.915C55.9976 103.167 55.7456 103.545 55.6476 104.049H53.0226C53.0926 103.293 53.3446 102.635 53.7786 102.075C54.2266 101.515 54.8006 101.088 55.5006 100.794C56.2006 100.486 56.9846 100.332 57.8526 100.332C59.3366 100.332 60.5056 100.703 61.3596 101.445C62.2136 102.187 62.6406 103.237 62.6406 104.595V111H60.3516L60.0996 109.32C59.7916 109.88 59.3576 110.342 58.7976 110.706C58.2516 111.07 57.5446 111.252 56.6766 111.252ZM57.2856 109.152C58.0556 109.152 58.6506 108.9 59.0706 108.396C59.5046 107.892 59.7776 107.269 59.8896 106.527H57.6006C56.8866 106.527 56.3756 106.66 56.0676 106.926C55.7596 107.178 55.6056 107.493 55.6056 107.871C55.6056 108.277 55.7596 108.592 56.0676 108.816C56.3756 109.04 56.7816 109.152 57.2856 109.152ZM69.0907 111.252C68.1667 111.252 67.3547 111.105 66.6547 110.811C65.9547 110.503 65.3947 110.083 64.9747 109.551C64.5547 109.019 64.3027 108.403 64.2187 107.703H66.9277C67.0117 108.109 67.2357 108.459 67.5997 108.753C67.9777 109.033 68.4607 109.173 69.0487 109.173C69.6367 109.173 70.0637 109.054 70.3297 108.816C70.6097 108.578 70.7497 108.305 70.7497 107.997C70.7497 107.549 70.5537 107.248 70.1617 107.094C69.7697 106.926 69.2237 106.765 68.5237 106.611C68.0757 106.513 67.6207 106.394 67.1587 106.254C66.6967 106.114 66.2697 105.939 65.8777 105.729C65.4997 105.505 65.1917 105.225 64.9537 104.889C64.7157 104.539 64.5967 104.112 64.5967 103.608C64.5967 102.684 64.9607 101.907 65.6887 101.277C66.4307 100.647 67.4667 100.332 68.7967 100.332C70.0287 100.332 71.0087 100.619 71.7367 101.193C72.4787 101.767 72.9197 102.558 73.0597 103.566H70.5187C70.3647 102.796 69.7837 102.411 68.7757 102.411C68.2717 102.411 67.8797 102.509 67.5997 102.705C67.3337 102.901 67.2007 103.146 67.2007 103.44C67.2007 103.748 67.4037 103.993 67.8097 104.175C68.2157 104.357 68.7547 104.525 69.4267 104.679C70.1547 104.847 70.8197 105.036 71.4217 105.246C72.0377 105.442 72.5277 105.743 72.8917 106.149C73.2557 106.541 73.4377 107.108 73.4377 107.85C73.4517 108.494 73.2837 109.075 72.9337 109.593C72.5837 110.111 72.0797 110.517 71.4217 110.811C70.7637 111.105 69.9867 111.252 69.0907 111.252ZM76.1472 115.62L78.5622 110.307H77.9322L73.8792 100.584H76.7982L79.7172 107.913L82.7622 100.584H85.6182L79.0032 115.62H76.1472ZM96.1804 111C95.0884 111 94.2134 110.734 93.5554 110.202C92.8974 109.67 92.5684 108.725 92.5684 107.367V102.831H90.7834V100.584H92.5684L92.8834 97.791H95.2564V100.584H98.0704V102.831H95.2564V107.388C95.2564 107.892 95.3614 108.242 95.5714 108.438C95.7954 108.62 96.1734 108.711 96.7054 108.711H98.0074V111H96.1804ZM104.69 111.252C103.682 111.252 102.772 111.021 101.96 110.559C101.162 110.097 100.525 109.46 100.049 108.648C99.5867 107.822 99.3557 106.87 99.3557 105.792C99.3557 104.714 99.5937 103.769 100.07 102.957C100.546 102.131 101.183 101.487 101.981 101.025C102.793 100.563 103.703 100.332 104.711 100.332C105.705 100.332 106.601 100.563 107.399 101.025C108.211 101.487 108.848 102.131 109.31 102.957C109.786 103.769 110.024 104.714 110.024 105.792C110.024 106.87 109.786 107.822 109.31 108.648C108.848 109.46 108.211 110.097 107.399 110.559C106.587 111.021 105.684 111.252 104.69 111.252ZM104.69 108.921C105.39 108.921 105.999 108.662 106.517 108.144C107.035 107.612 107.294 106.828 107.294 105.792C107.294 104.756 107.035 103.979 106.517 103.461C105.999 102.929 105.397 102.663 104.711 102.663C103.997 102.663 103.381 102.929 102.863 103.461C102.359 103.979 102.107 104.756 102.107 105.792C102.107 106.828 102.359 107.612 102.863 108.144C103.381 108.662 103.99 108.921 104.69 108.921ZM122.324 111.252C121.246 111.252 120.273 111.042 119.405 110.622C118.537 110.188 117.844 109.537 117.326 108.669C116.822 107.801 116.57 106.702 116.57 105.372V96.3H119.258V105.393C119.258 106.541 119.531 107.395 120.077 107.955C120.637 108.515 121.407 108.795 122.387 108.795C123.353 108.795 124.116 108.515 124.676 107.955C125.236 107.395 125.516 106.541 125.516 105.393V96.3H128.204V105.372C128.204 106.702 127.938 107.801 127.406 108.669C126.874 109.537 126.16 110.188 125.264 110.622C124.382 111.042 123.402 111.252 122.324 111.252ZM134.77 111.252C133.846 111.252 133.034 111.105 132.334 110.811C131.634 110.503 131.074 110.083 130.654 109.551C130.234 109.019 129.982 108.403 129.898 107.703H132.607C132.691 108.109 132.915 108.459 133.279 108.753C133.657 109.033 134.14 109.173 134.728 109.173C135.316 109.173 135.743 109.054 136.009 108.816C136.289 108.578 136.429 108.305 136.429 107.997C136.429 107.549 136.233 107.248 135.841 107.094C135.449 106.926 134.903 106.765 134.203 106.611C133.755 106.513 133.3 106.394 132.838 106.254C132.376 106.114 131.949 105.939 131.557 105.729C131.179 105.505 130.871 105.225 130.633 104.889C130.395 104.539 130.276 104.112 130.276 103.608C130.276 102.684 130.64 101.907 131.368 101.277C132.11 100.647 133.146 100.332 134.476 100.332C135.708 100.332 136.688 100.619 137.416 101.193C138.158 101.767 138.599 102.558 138.739 103.566H136.198C136.044 102.796 135.463 102.411 134.455 102.411C133.951 102.411 133.559 102.509 133.279 102.705C133.013 102.901 132.88 103.146 132.88 103.44C132.88 103.748 133.083 103.993 133.489 104.175C133.895 104.357 134.434 104.525 135.106 104.679C135.834 104.847 136.499 105.036 137.101 105.246C137.717 105.442 138.207 105.743 138.571 106.149C138.935 106.541 139.117 107.108 139.117 107.85C139.131 108.494 138.963 109.075 138.613 109.593C138.263 110.111 137.759 110.517 137.101 110.811C136.443 111.105 135.666 111.252 134.77 111.252ZM146.139 111.252C145.089 111.252 144.158 111.028 143.346 110.58C142.534 110.132 141.897 109.502 141.435 108.69C140.973 107.878 140.742 106.94 140.742 105.876C140.742 104.798 140.966 103.839 141.414 102.999C141.876 102.159 142.506 101.508 143.304 101.046C144.116 100.57 145.068 100.332 146.16 100.332C147.182 100.332 148.085 100.556 148.869 101.004C149.653 101.452 150.262 102.068 150.696 102.852C151.144 103.622 151.368 104.483 151.368 105.435C151.368 105.589 151.361 105.75 151.347 105.918C151.347 106.086 151.34 106.261 151.326 106.443H143.409C143.465 107.255 143.745 107.892 144.249 108.354C144.767 108.816 145.39 109.047 146.118 109.047C146.664 109.047 147.119 108.928 147.483 108.69C147.861 108.438 148.141 108.116 148.323 107.724H151.053C150.857 108.382 150.528 108.984 150.066 109.53C149.618 110.062 149.058 110.482 148.386 110.79C147.728 111.098 146.979 111.252 146.139 111.252ZM146.16 102.516C145.502 102.516 144.921 102.705 144.417 103.083C143.913 103.447 143.591 104.007 143.451 104.763H148.638C148.596 104.077 148.344 103.531 147.882 103.125C147.42 102.719 146.846 102.516 146.16 102.516ZM157.997 111.252C157.017 111.252 156.142 111.014 155.372 110.538C154.602 110.062 153.993 109.411 153.545 108.585C153.097 107.759 152.873 106.821 152.873 105.771C152.873 104.721 153.097 103.79 153.545 102.978C153.993 102.152 154.602 101.508 155.372 101.046C156.142 100.57 157.017 100.332 157.997 100.332C158.781 100.332 159.467 100.479 160.055 100.773C160.643 101.067 161.119 101.48 161.483 102.012V95.88H164.171V111H161.777L161.483 109.509C161.147 109.971 160.699 110.377 160.139 110.727C159.593 111.077 158.879 111.252 157.997 111.252ZM158.564 108.9C159.432 108.9 160.139 108.613 160.685 108.039C161.245 107.451 161.525 106.702 161.525 105.792C161.525 104.882 161.245 104.14 160.685 103.566C160.139 102.978 159.432 102.684 158.564 102.684C157.71 102.684 157.003 102.971 156.443 103.545C155.883 104.119 155.603 104.861 155.603 105.771C155.603 106.681 155.883 107.43 156.443 108.018C157.003 108.606 157.71 108.9 158.564 108.9Z" fill="#0E1F2E"/>
</g>
<defs>
<clipPath id="clip0_704_1130">
<rect width="310" height="264" fill="white"/>
</clipPath>
</defs>
</svg>
