<svg width="109" height="32" viewBox="0 0 109 32" fill="none" xmlns="http://www.w3.org/2000/svg">
<g clip-path="url(#clip0_703_2414)">
<path d="M12.6652 7.35791H14.3882V19.8495C14.3882 21.1332 14.0883 22.2819 13.4887 23.2954C12.889 24.3005 12.0486 25.0944 10.9675 25.6772C9.89489 26.2599 8.65335 26.5513 7.24287 26.5513C5.82394 26.5513 4.57395 26.2599 3.49287 25.6772C2.42024 25.0944 1.57987 24.3005 0.971758 23.2954C0.372098 22.2819 0.0722656 21.1332 0.0722656 19.8495V7.35791H1.79524V19.7355C1.79524 20.7321 2.01906 21.6231 2.46669 22.4086C2.92278 23.194 3.55621 23.8106 4.36702 24.2582C5.18628 24.7059 6.14489 24.9297 7.24287 24.9297C8.3324 24.9297 9.28256 24.7059 10.0934 24.2582C10.9042 23.8106 11.5334 23.194 11.9811 22.4086C12.4371 21.6231 12.6652 20.7321 12.6652 19.7355V7.35791ZM21.1544 26.5513C20.3013 26.5513 19.5201 26.3866 18.8106 26.0572C18.1012 25.7194 17.5353 25.2337 17.113 24.6003C16.6991 23.9584 16.4922 23.1814 16.4922 22.2692C16.4922 21.5682 16.6231 20.9812 16.8849 20.5082C17.1468 20.0353 17.5226 19.6467 18.0125 19.3427C18.5023 19.0302 19.0767 18.7853 19.7354 18.6079C20.4027 18.4221 21.1375 18.2827 21.9398 18.1898C22.7338 18.0885 23.4052 18.004 23.9542 17.9364C24.5032 17.8604 24.9213 17.7422 25.2084 17.5817C25.4956 17.4212 25.6391 17.1637 25.6391 16.8089V16.4795C25.6391 15.5083 25.352 14.7481 24.7777 14.1991C24.2034 13.6417 23.3799 13.363 22.3072 13.363C21.2853 13.363 20.4534 13.5868 19.8115 14.0344C19.1696 14.4821 18.7219 15.0099 18.4686 15.618L16.8976 15.0479C17.2185 14.2794 17.662 13.6628 18.2278 13.1983C18.7937 12.7337 19.4272 12.4001 20.1282 12.1974C20.8292 11.9863 21.5387 11.8807 22.2565 11.8807C22.7971 11.8807 23.3588 11.9525 23.9415 12.0961C24.5243 12.2397 25.0691 12.4846 25.5758 12.8309C26.0826 13.1772 26.4922 13.6628 26.8047 14.2878C27.1257 14.9043 27.2861 15.6856 27.2861 16.6316V26.2346H25.6391V23.9922H25.5378C25.352 24.406 25.0648 24.8115 24.6763 25.2084C24.2878 25.5969 23.8022 25.9179 23.2194 26.1713C22.6366 26.4246 21.9483 26.5513 21.1544 26.5513ZM21.3824 25.0564C22.2523 25.0564 23.004 24.8663 23.6375 24.4863C24.2794 24.0978 24.7734 23.5783 25.1197 22.928C25.466 22.2777 25.6391 21.5682 25.6391 20.7996V18.7599C25.5125 18.8782 25.3055 18.9837 25.0184 19.0767C24.7397 19.1696 24.4145 19.2498 24.0429 19.3174C23.6797 19.3849 23.3081 19.444 22.928 19.4947C22.5564 19.5454 22.227 19.5876 21.9398 19.6214C21.1459 19.7228 20.4618 19.879 19.8875 20.0902C19.3216 20.3013 18.8866 20.5885 18.5826 20.9517C18.287 21.3148 18.1392 21.7836 18.1392 22.3579C18.1392 23.2109 18.4432 23.8739 19.0513 24.3469C19.6679 24.8199 20.4449 25.0564 21.3824 25.0564ZM31.4046 17.3917V26.2346H29.7703V12.0707H31.3539V14.3132H31.5185C31.848 13.5783 32.3632 12.9914 33.0643 12.5522C33.7651 12.113 34.6352 11.8934 35.6739 11.8934C36.6284 11.8934 37.4644 12.0919 38.1825 12.4888C38.9087 12.8858 39.4747 13.4686 39.88 14.2371C40.2853 15.0057 40.4883 15.9517 40.4883 17.075V26.2346H38.854V17.1763C38.854 16.0192 38.5288 15.0986 37.8784 14.4145C37.228 13.7304 36.358 13.3883 35.2685 13.3883C34.5253 13.3883 33.8623 13.553 33.2796 13.8824C32.6967 14.2033 32.2366 14.6637 31.8987 15.2633C31.5692 15.8545 31.4046 16.564 31.4046 17.3917ZM48.3692 31.8343C46.9249 31.8343 45.7467 31.5639 44.8345 31.0233C43.9224 30.4828 43.2593 29.8074 42.8456 28.9964L44.1885 28.1096C44.3828 28.4728 44.6529 28.8233 44.9994 29.161C45.3456 29.5075 45.7934 29.7903 46.3423 30.01C46.8912 30.2381 47.5669 30.3519 48.3692 30.3519C49.6276 30.3519 50.6412 30.0394 51.4098 29.4144C52.1867 28.7895 52.5753 27.8182 52.5753 26.5007V23.3081H52.4107C52.2248 23.7388 51.9547 24.1696 51.5998 24.6003C51.2452 25.0226 50.7805 25.3773 50.2062 25.6645C49.6319 25.9432 48.9181 26.0826 48.0651 26.0826C46.9335 26.0826 45.9283 25.8039 45.0499 25.2464C44.1801 24.689 43.4917 23.8908 42.9849 22.852C42.4867 21.8047 42.2376 20.5631 42.2376 19.1273C42.2376 17.6915 42.4824 16.4331 42.9722 15.352C43.4623 14.2625 44.1464 13.4136 45.0245 12.8055C45.9029 12.189 46.9249 11.8807 48.0904 11.8807C48.9605 11.8807 49.6827 12.037 50.2569 12.3494C50.8312 12.6535 51.2916 13.0293 51.6378 13.477C51.9841 13.9246 52.2545 14.3596 52.4485 14.7819H52.6261V12.0707H54.197V26.602C54.197 27.8013 53.9436 28.7853 53.4367 29.5539C52.9386 30.3309 52.2501 30.9052 51.3717 31.2768C50.4933 31.6484 49.4927 31.8343 48.3692 31.8343ZM48.2677 24.5876C49.6276 24.5876 50.6876 24.0978 51.4478 23.1181C52.2078 22.1383 52.588 20.7954 52.588 19.0893C52.588 17.9829 52.4191 17.0032 52.0812 16.1501C51.7517 15.2886 51.2619 14.613 50.6115 14.1231C49.9698 13.6248 49.1885 13.3756 48.2677 13.3756C47.3135 13.3756 46.5112 13.6333 45.8608 14.1485C45.2104 14.6552 44.7163 15.3393 44.3784 16.2008C44.0492 17.0623 43.8843 18.0251 43.8843 19.0893C43.8843 20.1704 44.0532 21.1248 44.3911 21.9525C44.729 22.7802 45.2231 23.4263 45.8735 23.8908C46.5322 24.3554 47.3305 24.5876 48.2677 24.5876Z" fill="#16293A"/>
<path d="M56.3137 26.2346V7.35791H59.7345V16.0361H59.9626L67.3358 7.35791H71.5039L64.2065 15.8334L71.5671 26.2346H67.4497L61.8246 18.1518L59.7345 20.6223V26.2346H56.3137ZM96.5299 12.0707V14.6552H88.4091V12.0707H96.5299ZM90.3983 8.70082H93.7301V21.9778C93.7301 22.5353 93.8526 22.9491 94.0976 23.2194C94.3424 23.4812 94.731 23.6121 95.2632 23.6121C95.4068 23.6121 95.5671 23.5995 95.7446 23.5741C95.9219 23.5488 96.0825 23.5192 96.2261 23.4854L96.796 26.0952C96.4414 26.205 96.0825 26.2853 95.7193 26.336C95.356 26.3951 94.9928 26.4246 94.6295 26.4246C93.3121 26.4246 92.2774 26.0783 91.5258 25.3858C90.774 24.6848 90.3983 23.7304 90.3983 22.5226V8.70082ZM101.409 26.526C100.505 26.526 99.6939 26.3655 98.9761 26.0446C98.2582 25.7152 97.6923 25.2337 97.2786 24.6003C96.8646 23.9669 96.6576 23.1856 96.6576 22.2566C96.6576 21.4626 96.8055 20.8039 97.101 20.2802C97.3968 19.7566 97.7978 19.3385 98.3046 19.026C98.8198 18.7135 99.3984 18.477 100.04 18.3165C100.682 18.1476 101.345 18.0294 102.029 17.9618C102.865 17.8689 103.541 17.7886 104.056 17.7211C104.571 17.6535 104.943 17.5437 105.171 17.3917C105.408 17.2397 105.526 17.0032 105.526 16.6822V16.6189C105.526 15.9348 105.323 15.4027 104.918 15.0226C104.512 14.6425 103.921 14.4525 103.144 14.4525C102.325 14.4525 101.675 14.6299 101.193 14.9846C100.72 15.3393 100.399 15.7574 100.23 16.2388L97.1264 15.7954C97.3715 14.9339 97.7768 14.216 98.3427 13.6417C98.9086 13.0589 99.597 12.624 100.408 12.3368C101.227 12.0412 102.131 11.8934 103.119 11.8934C103.795 11.8934 104.47 11.9736 105.146 12.1341C105.821 12.2861 106.442 12.5479 107.008 12.9196C107.574 13.2912 108.026 13.7895 108.364 14.4145C108.702 15.0395 108.871 15.8208 108.871 16.7582V26.2346H105.665V24.2836H105.564C105.361 24.6721 105.074 25.0395 104.703 25.3858C104.339 25.7236 103.883 25.9981 103.334 26.2093C102.794 26.4204 102.152 26.526 101.409 26.526ZM102.257 24.0682C102.933 24.0682 103.516 23.9373 104.006 23.6755C104.496 23.4052 104.876 23.0505 105.146 22.6113C105.416 22.1636 105.551 21.678 105.551 21.1544V19.4947C105.442 19.5792 105.264 19.6594 105.019 19.7355C104.774 19.803 104.496 19.8664 104.183 19.9255C103.871 19.9846 103.562 20.0353 103.258 20.0775C102.963 20.1197 102.705 20.1535 102.485 20.1788C101.987 20.2464 101.54 20.3604 101.143 20.5209C100.754 20.6729 100.446 20.8841 100.218 21.1544C99.9897 21.4246 99.8755 21.7751 99.8755 22.2059C99.8755 22.8224 100.1 23.287 100.547 23.5995C100.995 23.912 101.565 24.0682 102.257 24.0682Z" fill="#9745FD"/>
<path d="M78.7024 26.2343C78.5429 26.2343 78.4141 26.0947 78.4141 25.9221V7.80782C78.4141 7.63522 78.5429 7.49561 78.7024 7.49561C78.8618 7.49561 78.9906 7.63522 78.9906 7.80782V25.9221C78.9906 26.0947 78.8618 26.2343 78.7024 26.2343Z" fill="#16293A"/>
<path d="M78.7571 19.9975C79.2587 16.6673 84.7252 13.1341 87.7569 14.0194C87.6978 16.9029 82.721 21.0859 78.7571 19.9975Z" fill="#1EBC61"/>
<g opacity="0.55">
<path d="M87.7405 14.2586C87.7304 14.3419 87.7183 14.4271 87.6999 14.5125C84.7697 14.0129 80.0507 17.0426 79.1714 20.0905C79.0881 20.0763 79.0048 20.058 78.9218 20.0377C78.867 20.0235 78.8099 20.0113 78.7551 19.995C79.2567 16.6649 84.723 13.1337 87.7546 14.017C87.7546 14.0982 87.7506 14.1774 87.7405 14.2586Z" fill="#16293A"/>
</g>
<g opacity="0.3">
<path d="M87.7404 14.2586C87.4299 17.0852 82.7493 20.9433 78.9237 20.0397C78.8689 20.0255 78.8121 20.0133 78.7571 19.9971C78.7675 19.9341 78.7775 19.8712 78.7917 19.8062L80.2882 18.7645C83.3077 18.7097 86.4898 16.2466 87.5029 13.9561C87.5882 13.9743 87.6736 13.9926 87.7569 14.019C87.7549 14.0982 87.7508 14.1774 87.7404 14.2586Z" fill="#16293A"/>
</g>
<path d="M80.0897 20.4725C79.5984 20.4725 79.1251 20.4116 78.6765 20.2898C78.5283 20.2492 78.4349 20.103 78.4571 19.9527C78.7071 18.2978 80.167 16.4357 82.2686 15.0935C84.2808 13.8082 86.3643 13.2985 87.8426 13.729C87.9747 13.7675 88.0637 13.8894 88.0617 14.0275C88.0315 15.4834 86.8313 17.3048 85.0059 18.6674C83.4301 19.8411 81.6776 20.4725 80.0897 20.4725ZM79.1109 19.77C80.7842 20.1152 82.829 19.5324 84.6423 18.18C86.2201 17.0023 87.2903 15.4895 87.4384 14.2529C86.1509 13.995 84.3255 14.4965 82.5955 15.6032C80.7559 16.7789 79.448 18.3506 79.1109 19.77Z" fill="#16293A"/>
<path d="M80.4207 18.521L82.5021 18.6185L80.4408 18.9251L80.4207 18.521Z" fill="#16293A"/>
<path d="M81.8076 17.6237L81.9924 16.3911L82.2118 17.6176L81.8076 17.6237Z" fill="#16293A"/>
<g opacity="0.18">
<path d="M84.2643 16.1475C83.6978 16.5109 83.3242 16.9373 83.4297 17.0998C83.5332 17.2622 84.0775 17.0978 84.6419 16.7322C85.2084 16.3688 85.5821 15.9424 85.4765 15.7799C85.373 15.6175 84.8288 15.7819 84.2643 16.1475Z" fill="#16293A"/>
</g>
<path d="M78.7575 20.1982C78.6963 20.1982 78.6375 20.1718 78.5969 20.119C78.528 20.0317 78.5441 19.9037 78.6335 19.8347C81.8073 17.3675 84.6968 15.4507 87.4707 13.9744C87.5701 13.9216 87.6921 13.9602 87.7448 14.0577C87.7976 14.1572 87.759 14.279 87.6615 14.3318C84.9081 15.7959 82.0367 17.7006 78.8832 20.1535C78.8448 20.184 78.8001 20.1982 78.7575 20.1982Z" fill="#16293A"/>
<path d="M82.5811 16.9839L84.6622 17.0814L82.6033 17.388L82.5811 16.9839Z" fill="#16293A"/>
<path d="M83.7893 16.3014L83.9741 15.0688L84.1932 16.2953L83.7893 16.3014Z" fill="#16293A"/>
<path d="M85.0418 15.3677L86.1748 15.7027L84.9951 15.7697L85.0418 15.3677Z" fill="#16293A"/>
<path d="M78.7817 18.0747C78.2801 14.7445 72.8139 11.2113 69.7822 12.0966C69.839 14.98 74.818 19.163 78.7817 18.0747Z" fill="#1EBC61"/>
<g opacity="0.55">
<path d="M69.7964 12.3357C69.8064 12.419 69.8185 12.5043 69.837 12.5896C72.7672 12.0901 77.4861 15.1197 78.3654 18.1676C78.4487 18.1534 78.5321 18.1351 78.6151 18.1148C78.6699 18.1006 78.7269 18.0884 78.7817 18.0722C78.2801 14.742 72.8139 11.2108 69.7822 12.0941C69.7822 12.1753 69.7883 12.2545 69.7964 12.3357Z" fill="#16293A"/>
</g>
<g opacity="0.3">
<path d="M69.7964 12.3358C70.1072 15.1623 74.7876 19.0204 78.6131 18.1168C78.6682 18.1026 78.725 18.0905 78.7798 18.0742C78.7697 18.0113 78.7596 17.9483 78.7452 17.8833L77.2487 16.8416C74.2291 16.7868 71.0473 14.3237 70.034 12.0332C69.9486 12.0515 69.8636 12.0698 69.7803 12.0961C69.7823 12.1753 69.7883 12.2545 69.7964 12.3358Z" fill="#16293A"/>
</g>
<path d="M77.4476 18.5497C75.8617 18.5497 74.1095 17.9181 72.5337 16.7424C70.706 15.3799 69.5081 13.5585 69.4776 12.1025C69.4756 11.9645 69.5649 11.8426 69.697 11.804C71.1753 11.3715 73.2585 11.8832 75.271 13.1686C77.3726 14.5128 78.8325 16.3749 79.0822 18.0278C79.1047 18.1801 79.0113 18.3243 78.8631 18.3649C78.4122 18.4908 77.9371 18.5497 77.4476 18.5497ZM70.1011 12.33C70.2493 13.5666 71.3174 15.0794 72.8972 16.2571C74.7103 17.6095 76.7551 18.1923 78.4283 17.8471C78.0913 16.4297 76.7837 14.856 74.9441 13.6803C73.2138 12.5736 71.3883 12.07 70.1011 12.33Z" fill="#16293A"/>
<path d="M77.0963 17.0022L75.0374 16.6956L77.1165 16.5981L77.0963 17.0022Z" fill="#16293A"/>
<path d="M75.3254 15.6942L75.5466 14.4678L75.7313 15.7004L75.3254 15.6942Z" fill="#16293A"/>
<g opacity="0.18">
<path d="M74.112 15.1745C74.2158 15.0133 73.8416 14.5872 73.2757 14.2228C72.7101 13.8583 72.1672 13.6936 72.0634 13.8548C71.9596 14.0161 72.3341 14.4422 72.8997 14.8066C73.4654 15.1711 74.0082 15.3358 74.112 15.1745Z" fill="#16293A"/>
</g>
<path d="M78.7817 18.2752C78.739 18.2752 78.6943 18.261 78.6577 18.2325C75.5044 15.7796 72.6331 13.8749 69.8796 12.4108C69.7802 12.358 69.7435 12.2362 69.7963 12.1367C69.8491 12.0372 69.971 12.0006 70.0705 12.0534C72.8444 13.5297 75.7359 15.4465 78.9077 17.9137C78.995 17.9828 79.0112 18.1087 78.9443 18.198C78.9016 18.2488 78.8405 18.2752 78.7817 18.2752Z" fill="#16293A"/>
<path d="M74.9357 15.4646L72.8748 15.158L74.9562 15.0605L74.9357 15.4646Z" fill="#16293A"/>
<path d="M73.3457 14.3725L73.5651 13.146L73.7499 14.3786L73.3457 14.3725Z" fill="#16293A"/>
<path d="M72.5435 13.8464L71.3618 13.7794L72.4968 13.4443L72.5435 13.8464Z" fill="#16293A"/>
<path d="M85.2264 6.76003C85.2264 10.2973 82.3594 13.1645 78.8221 13.1645C77.7822 13.1645 76.8015 12.9168 75.9326 12.4761C75.2868 12.1492 74.7059 11.7167 74.2086 11.2009C73.9667 10.9512 73.7476 10.6831 73.5507 10.3968C72.8603 9.40182 72.448 8.20174 72.4195 6.90421C72.4175 6.85546 72.4175 6.80674 72.4175 6.75799C72.4175 3.22072 75.2848 0.353516 78.8221 0.353516C79.1937 0.353516 79.5572 0.386003 79.9104 0.446921C81.1693 0.662163 82.3023 1.24494 83.196 2.08155C83.4497 2.31913 83.6832 2.57701 83.8945 2.85114C84.331 3.41563 84.672 4.05324 84.8995 4.74366C85.1128 5.3772 85.2264 6.05745 85.2264 6.76003Z" fill="#F7C714"/>
<path d="M78.8222 13.2151C77.7968 13.2151 76.818 12.9816 75.9102 12.5227C75.2645 12.1957 74.6798 11.7632 74.1742 11.2373C73.9346 10.9896 73.7112 10.7175 73.5122 10.4271C72.7933 9.38946 72.3995 8.17314 72.3709 6.90807C72.3689 6.85733 72.3689 6.80858 72.3689 6.76188C72.3689 3.20227 75.2645 0.306641 78.8242 0.306641C79.1938 0.306641 79.5634 0.337098 79.9206 0.400046C81.1634 0.613258 82.3088 1.18182 83.2328 2.04686C83.4864 2.28646 83.724 2.54638 83.9373 2.82254C84.3839 3.40125 84.7252 4.04292 84.9504 4.7313C85.1677 5.38312 85.2773 6.06538 85.2773 6.7639C85.2773 10.3195 82.3817 13.2151 78.8222 13.2151ZM78.8222 0.406138C75.3195 0.406138 72.4684 3.25707 72.4684 6.75986C72.4684 6.80657 72.4684 6.85327 72.4704 6.90199C72.4989 8.1508 72.8867 9.34887 73.5935 10.3682C73.7904 10.6545 74.0098 10.9226 74.2454 11.1662C74.7447 11.684 75.3195 12.1084 75.9549 12.4313C76.8483 12.8841 77.8129 13.1136 78.8222 13.1136C82.3249 13.1136 85.1758 10.2626 85.1758 6.75986C85.1758 6.07351 85.0683 5.40139 84.8529 4.75972C84.6298 4.08149 84.2945 3.45 83.854 2.88143C83.6447 2.60933 83.4112 2.35347 83.1595 2.11792C82.2497 1.26711 81.1228 0.706667 79.9004 0.497516C79.549 0.436598 79.1858 0.406138 78.8222 0.406138Z" fill="#16293A"/>
<g opacity="0.55">
<path d="M85.2264 6.75995C85.2264 6.92035 85.2204 7.07873 85.2083 7.23712C84.9646 3.92322 82.1988 1.30781 78.8221 1.30781C75.4451 1.30781 72.6775 3.92117 72.4359 7.23712C72.4235 7.08078 72.4175 6.92035 72.4175 6.75995C72.4175 3.22265 75.2848 0.355469 78.8221 0.355469C82.3594 0.355469 85.2264 3.22265 85.2264 6.75995Z" fill="#16293A"/>
</g>
<path d="M85.2264 6.75999C85.2264 10.2973 82.3594 13.1645 78.8221 13.1645C75.2848 13.1645 72.4175 10.2973 72.4175 6.75999C72.4175 6.45337 72.44 6.15283 72.4806 5.8584C72.9191 8.96926 75.5912 11.3613 78.8221 11.3613C82.0527 11.3613 84.7251 8.96926 85.1636 5.8584C85.2042 6.15283 85.2264 6.45539 85.2264 6.75999Z" fill="#F89E1D"/>
<path d="M78.822 11.225C76.3589 11.225 74.3567 9.22078 74.3567 6.75969C74.3567 4.29659 76.3609 2.29443 78.822 2.29443C81.2851 2.29443 83.2873 4.29863 83.2873 6.75969C83.2873 9.2228 81.2851 11.225 78.822 11.225Z" fill="#F9DD6A"/>
<path d="M78.8219 11.2757C76.3326 11.2757 74.3059 9.24917 74.3059 6.75969C74.3059 4.27017 76.3326 2.24365 78.8219 2.24365C81.3113 2.24365 83.338 4.27017 83.338 6.75969C83.338 9.24917 81.3113 11.2757 78.8219 11.2757ZM78.8219 2.34518C76.3874 2.34518 74.4074 4.32501 74.4074 6.75969C74.4074 9.19437 76.3874 11.1742 78.8219 11.1742C81.2565 11.1742 83.2365 9.19437 83.2365 6.75969C83.2365 4.32501 81.2565 2.34518 78.8219 2.34518Z" fill="#16293A"/>
<path d="M80.4163 7.73881C80.4163 8.3236 80.0773 8.84344 79.3643 9.06476V9.77548H78.4588V9.17644C77.9572 9.16428 77.474 9.03432 77.2261 8.89622L77.4394 8.02917C77.7216 8.17334 78.1561 8.31751 78.6029 8.31751C79.0861 8.31751 79.3401 8.11851 79.3401 7.81393C79.3401 7.52559 79.1187 7.35907 78.5623 7.16007C77.7908 6.89204 77.2872 6.46359 77.2872 5.78943C77.2872 5.1498 77.7176 4.63403 78.4588 4.45736V3.74463H79.3643V4.40861C79.7299 4.4411 80.0121 4.53047 80.2295 4.62792L79.9959 5.47672C79.8112 5.38738 79.4782 5.25537 79.0253 5.25537C78.5704 5.25537 78.3492 5.46251 78.3492 5.70415C78.3492 6.0006 78.611 6.13056 79.2101 6.35799C80.0326 6.65853 80.4163 7.08494 80.4163 7.73881Z" fill="#16293A"/>
<path opacity="0.27" d="M83.1964 2.08132L73.5511 10.3986C72.8607 9.40362 72.4484 8.20356 72.4202 6.906L79.9108 0.44873C81.1697 0.663972 82.305 1.24675 83.1964 2.08132Z" fill="#FCE5E5"/>
<path opacity="0.27" d="M84.6478 4.09745L75.6543 12.2706C75.0086 11.9436 74.7038 11.7162 74.2065 11.2004L83.8925 2.84863C84.3309 3.41515 84.4203 3.40705 84.6478 4.09745Z" fill="#FCE5E5"/>
<g opacity="0.55">
<path d="M83.2878 6.75978C83.2878 6.87959 83.2814 6.99938 83.2734 7.11717C83.0906 4.82055 81.1637 3.00725 78.8225 3.00725C76.481 3.00725 74.5541 4.82055 74.3713 7.11717C74.3612 6.99938 74.3572 6.87959 74.3572 6.75978C74.3572 4.29667 76.3593 2.29248 78.8225 2.29248C81.2856 2.29451 83.2878 4.29869 83.2878 6.75978Z" fill="#16293A"/>
</g>
<path d="M78.8225 11.4934C76.2132 11.4934 74.0911 9.37142 74.0911 6.76007C74.0911 4.15078 76.2132 2.02881 78.8225 2.02881C81.4318 2.02881 83.5538 4.15078 83.5538 6.76007C83.5559 9.3694 81.4318 11.4934 78.8225 11.4934ZM78.8225 2.56082C76.5075 2.56082 74.6232 4.44521 74.6232 6.76007C74.6232 9.07494 76.5075 10.9593 78.8225 10.9593C81.1374 10.9593 83.0217 9.07494 83.0217 6.76007C83.0217 4.44521 81.1374 2.56082 78.8225 2.56082Z" fill="#16293A"/>
<path d="M78.8225 13.5197C77.7504 13.5197 76.7229 13.276 75.7724 12.7927C75.0964 12.4495 74.4832 11.9967 73.953 11.4485C73.7014 11.1886 73.4679 10.9043 73.2586 10.5997C72.5073 9.51331 72.093 8.24014 72.0648 6.91416C72.0627 6.86135 72.0627 6.81061 72.0627 6.75984C72.0627 3.03167 75.0944 0 78.8225 0C79.2083 0 79.5963 0.0324898 79.9719 0.0974685C81.2736 0.320833 82.4714 0.915797 83.44 1.82144C83.7061 2.0712 83.9538 2.34533 84.1772 2.63368C84.6442 3.2388 85.0017 3.91092 85.2393 4.63178C85.4667 5.31203 85.5823 6.02883 85.5823 6.75984C85.5823 10.488 82.5507 13.5197 78.8225 13.5197ZM78.8225 0.710706C75.4882 0.710706 72.7734 3.42357 72.7734 6.75984C72.7734 6.8045 72.7734 6.84918 72.7754 6.89588C72.8019 8.08378 73.1715 9.22497 73.8435 10.1956C74.0323 10.4677 74.2396 10.7235 74.4648 10.955C74.9402 11.4485 75.4882 11.8525 76.0933 12.1592C76.9443 12.5897 77.862 12.809 78.8225 12.809C82.1569 12.809 84.8717 10.0961 84.8717 6.75984C84.8717 6.10598 84.7682 5.46635 84.5649 4.85515C84.3519 4.20941 84.0331 3.60836 83.6147 3.06618C83.4158 2.80831 83.1924 2.5626 82.9528 2.33924C82.0877 1.52903 81.0155 0.99499 79.85 0.79599C79.515 0.741166 79.1676 0.710706 78.8225 0.710706Z" fill="#16293A"/>
</g>
<defs>
<clipPath id="clip0_703_2414">
<rect width="108.973" height="32" fill="white"/>
</clipPath>
</defs>
</svg>
