<svg width="412" height="264" viewBox="0 0 412 264" fill="none" xmlns="http://www.w3.org/2000/svg">
<g clip-path="url(#clip0_704_1864)">
<rect width="412" height="264" fill="white"/>
<path opacity="0.03" d="M-9.5 372L-22 248.5V-28.5H134.5L83 142L319 -83L492.5 9C379.343 86.7647 154.16 240.279 135.541 248.183C155.304 244.3 415.907 205.77 550.5 186L474 364L-9.5 372Z" fill="#0E1F2E"/>
<path d="M77.3332 83.9997H35.6666V40.6663H75.6666V45.6663H78.9999V35.6663C78.9999 30.9997 75.3332 27.333 70.6666 27.333H40.6666C35.9999 27.333 32.3333 30.9997 32.3333 35.6663V92.333C32.3333 96.9997 35.9999 100.666 40.6666 100.666H70.6666C75.3332 100.666 78.9999 96.9997 78.9999 92.333V85.6663C78.9999 84.6663 78.3332 83.9997 77.3332 83.9997ZM40.6666 30.6663H70.6666C73.4999 30.6663 75.6666 32.833 75.6666 35.6663V37.333H35.6666V35.6663C35.6666 32.833 37.8333 30.6663 40.6666 30.6663ZM75.6666 92.333C75.6666 95.1663 73.4999 97.333 70.6666 97.333H40.6666C37.8333 97.333 35.6666 95.1663 35.6666 92.333V87.333H75.6666V92.333ZM60.6666 93.9997H50.6666V90.6663H60.6666V93.9997ZM92.3332 77.333V50.6663C92.3332 49.6663 91.6666 48.9997 90.6666 48.9997H83.9999C82.9999 48.9997 82.3332 49.6663 82.3332 50.6663V77.333H78.9999V58.9997C78.9999 57.9997 78.3332 57.333 77.3332 57.333H70.6666C69.6666 57.333 68.9999 57.9997 68.9999 58.9997V77.333H65.6666V65.6663C65.6666 64.6663 64.9999 63.9997 63.9999 63.9997H57.3333C56.3333 63.9997 55.6666 64.6663 55.6666 65.6663V77.333H52.3333V80.6663H57.3333H63.9999H70.6666H77.3332H83.9999H90.6666H95.6666V77.333H92.3332ZM58.9999 77.333V67.333H62.3332V77.333H58.9999ZM72.3332 77.333V60.6663H75.6666V77.333H72.3332ZM85.6666 77.333V52.333H88.9999V77.333H85.6666ZM85.6666 45.6663H82.3332V42.333H88.9999V40.6663H83.9999C82.9999 40.6663 82.3332 39.9997 82.3332 38.9997V33.9997C82.3332 32.9997 82.9999 32.333 83.9999 32.333H85.6666V30.6663H88.9999V32.333H92.3332V35.6663H85.6666V37.333H90.6666C91.6666 37.333 92.3332 37.9997 92.3332 38.9997V43.9997C92.3332 44.9997 91.6666 45.6663 90.6666 45.6663H88.9999V47.333H85.6666V45.6663Z" fill="#9745FD"/>
<path d="M33.464 150.336C32.0267 150.336 30.7293 150.056 29.572 149.496C28.4147 148.917 27.4907 148.049 26.8 146.892C26.128 145.735 25.792 144.269 25.792 142.496V130.4H29.376V142.524C29.376 144.055 29.74 145.193 30.468 145.94C31.2147 146.687 32.2413 147.06 33.548 147.06C34.836 147.06 35.8533 146.687 36.6 145.94C37.3467 145.193 37.72 144.055 37.72 142.524V130.4H41.304V142.496C41.304 144.269 40.9493 145.735 40.24 146.892C39.5307 148.049 38.5787 148.917 37.384 149.496C36.208 150.056 34.9013 150.336 33.464 150.336ZM49.1066 150.336C47.9119 150.336 46.9319 150.149 46.1666 149.776C45.4013 149.384 44.8319 148.871 44.4586 148.236C44.0853 147.601 43.8986 146.901 43.8986 146.136C43.8986 144.848 44.4026 143.803 45.4106 143C46.4186 142.197 47.9306 141.796 49.9466 141.796H53.4746V141.46C53.4746 140.508 53.2039 139.808 52.6626 139.36C52.1213 138.912 51.4493 138.688 50.6466 138.688C49.9186 138.688 49.2839 138.865 48.7426 139.22C48.2013 139.556 47.8653 140.06 47.7346 140.732H44.2346C44.3279 139.724 44.6639 138.847 45.2426 138.1C45.8399 137.353 46.6053 136.784 47.5386 136.392C48.4719 135.981 49.5173 135.776 50.6746 135.776C52.6533 135.776 54.2119 136.271 55.3506 137.26C56.4893 138.249 57.0586 139.649 57.0586 141.46V150H54.0066L53.6706 147.76C53.2599 148.507 52.6813 149.123 51.9346 149.608C51.2066 150.093 50.2639 150.336 49.1066 150.336ZM49.9186 147.536C50.9453 147.536 51.7386 147.2 52.2986 146.528C52.8773 145.856 53.2413 145.025 53.3906 144.036H50.3386C49.3866 144.036 48.7053 144.213 48.2946 144.568C47.8839 144.904 47.6786 145.324 47.6786 145.828C47.6786 146.369 47.8839 146.789 48.2946 147.088C48.7053 147.387 49.2466 147.536 49.9186 147.536ZM59.9188 150V136.112H63.0828L63.3628 138.464C63.7921 137.643 64.4081 136.989 65.2108 136.504C66.0321 136.019 66.9934 135.776 68.0948 135.776C69.8121 135.776 71.1468 136.317 72.0988 137.4C73.0508 138.483 73.5268 140.069 73.5268 142.16V150H69.9428V142.496C69.9428 141.301 69.7001 140.387 69.2148 139.752C68.7294 139.117 67.9734 138.8 66.9468 138.8C65.9388 138.8 65.1081 139.155 64.4548 139.864C63.8201 140.573 63.5028 141.563 63.5028 142.832V150H59.9188ZM82.2739 145.856C81.6019 145.856 80.9766 145.781 80.3979 145.632L79.3619 146.668C79.6792 146.836 80.1086 146.976 80.6499 147.088C81.1912 147.2 82.0686 147.312 83.2819 147.424C85.1299 147.592 86.4739 148.031 87.3139 148.74C88.1539 149.449 88.5739 150.429 88.5739 151.68C88.5739 152.501 88.3499 153.276 87.9019 154.004C87.4539 154.751 86.7632 155.348 85.8299 155.796C84.8966 156.263 83.7019 156.496 82.2459 156.496C80.2672 156.496 78.6712 156.123 77.4579 155.376C76.2446 154.648 75.6379 153.547 75.6379 152.072C75.6379 150.821 76.2446 149.739 77.4579 148.824C77.0846 148.656 76.7579 148.479 76.4779 148.292C76.2166 148.105 75.9832 147.909 75.7779 147.704V147.06L78.2139 144.484C77.1312 143.532 76.5899 142.309 76.5899 140.816C76.5899 139.883 76.8139 139.033 77.2619 138.268C77.7286 137.503 78.3819 136.896 79.2219 136.448C80.0619 136 81.0792 135.776 82.2739 135.776C83.0579 135.776 83.7859 135.888 84.4579 136.112H89.7219V138.296L87.3419 138.464C87.7152 139.173 87.9019 139.957 87.9019 140.816C87.9019 141.749 87.6779 142.599 87.2299 143.364C86.7819 144.129 86.1286 144.736 85.2699 145.184C84.4299 145.632 83.4312 145.856 82.2739 145.856ZM82.2739 143.112C83.0019 143.112 83.5992 142.916 84.0659 142.524C84.5512 142.132 84.7939 141.572 84.7939 140.844C84.7939 140.116 84.5512 139.556 84.0659 139.164C83.5992 138.772 83.0019 138.576 82.2739 138.576C81.5086 138.576 80.8926 138.772 80.4259 139.164C79.9592 139.556 79.7259 140.116 79.7259 140.844C79.7259 141.572 79.9592 142.132 80.4259 142.524C80.8926 142.916 81.5086 143.112 82.2739 143.112ZM78.9139 151.708C78.9139 152.399 79.2312 152.912 79.8659 153.248C80.5192 153.603 81.3126 153.78 82.2459 153.78C83.1419 153.78 83.8699 153.593 84.4299 153.22C84.9899 152.865 85.2699 152.38 85.2699 151.764C85.2699 151.26 85.0832 150.84 84.7099 150.504C84.3552 150.168 83.6366 149.963 82.5539 149.888C81.7886 149.832 81.0792 149.748 80.4259 149.636C79.8846 149.935 79.4926 150.261 79.2499 150.616C79.0259 150.971 78.9139 151.335 78.9139 151.708ZM91.8593 150V130.4H95.4433V138.324L102.695 130.4H107.119L99.8953 138.184L107.315 150H102.919L97.3193 140.928L95.4433 142.972V150H91.8593ZM112.956 150.336C111.762 150.336 110.782 150.149 110.016 149.776C109.251 149.384 108.682 148.871 108.308 148.236C107.935 147.601 107.748 146.901 107.748 146.136C107.748 144.848 108.252 143.803 109.26 143C110.268 142.197 111.78 141.796 113.796 141.796H117.324V141.46C117.324 140.508 117.054 139.808 116.512 139.36C115.971 138.912 115.299 138.688 114.496 138.688C113.768 138.688 113.134 138.865 112.592 139.22C112.051 139.556 111.715 140.06 111.584 140.732H108.084C108.178 139.724 108.514 138.847 109.092 138.1C109.69 137.353 110.455 136.784 111.388 136.392C112.322 135.981 113.367 135.776 114.524 135.776C116.503 135.776 118.062 136.271 119.2 137.26C120.339 138.249 120.908 139.649 120.908 141.46V150H117.856L117.52 147.76C117.11 148.507 116.531 149.123 115.784 149.608C115.056 150.093 114.114 150.336 112.956 150.336ZM113.768 147.536C114.795 147.536 115.588 147.2 116.148 146.528C116.727 145.856 117.091 145.025 117.24 144.036H114.188C113.236 144.036 112.555 144.213 112.144 144.568C111.734 144.904 111.528 145.324 111.528 145.828C111.528 146.369 111.734 146.789 112.144 147.088C112.555 147.387 113.096 147.536 113.768 147.536ZM123.769 150V136.112H126.933L127.241 137.988C127.689 137.316 128.277 136.784 129.005 136.392C129.751 135.981 130.61 135.776 131.581 135.776C133.727 135.776 135.249 136.607 136.145 138.268C136.649 137.503 137.321 136.896 138.161 136.448C139.019 136 139.953 135.776 140.961 135.776C142.771 135.776 144.162 136.317 145.133 137.4C146.103 138.483 146.589 140.069 146.589 142.16V150H143.005V142.496C143.005 141.301 142.771 140.387 142.305 139.752C141.857 139.117 141.157 138.8 140.205 138.8C139.234 138.8 138.45 139.155 137.853 139.864C137.274 140.573 136.985 141.563 136.985 142.832V150H133.401V142.496C133.401 141.301 133.167 140.387 132.701 139.752C132.234 139.117 131.515 138.8 130.545 138.8C129.593 138.8 128.818 139.155 128.221 139.864C127.642 140.573 127.353 141.563 127.353 142.832V150H123.769ZM151.363 133.956C150.71 133.956 150.169 133.76 149.739 133.368C149.329 132.976 149.123 132.481 149.123 131.884C149.123 131.287 149.329 130.801 149.739 130.428C150.169 130.036 150.71 129.84 151.363 129.84C152.017 129.84 152.549 130.036 152.959 130.428C153.389 130.801 153.603 131.287 153.603 131.884C153.603 132.481 153.389 132.976 152.959 133.368C152.549 133.76 152.017 133.956 151.363 133.956ZM149.571 150V136.112H153.155V150H149.571ZM171.1 150.336C169.252 150.336 167.637 149.916 166.256 149.076C164.875 148.236 163.801 147.069 163.036 145.576C162.271 144.064 161.888 142.309 161.888 140.312C161.888 138.296 162.28 136.523 163.064 134.992C163.867 133.443 164.996 132.239 166.452 131.38C167.927 130.503 169.672 130.064 171.688 130.064C173.984 130.064 175.888 130.615 177.4 131.716C178.912 132.817 179.892 134.339 180.34 136.28H176.336C176.037 135.365 175.496 134.656 174.712 134.152C173.928 133.629 172.92 133.368 171.688 133.368C169.728 133.368 168.216 133.993 167.152 135.244C166.088 136.476 165.556 138.175 165.556 140.34C165.556 142.505 166.079 144.185 167.124 145.38C168.188 146.556 169.625 147.144 171.436 147.144C173.209 147.144 174.544 146.668 175.44 145.716C176.355 144.745 176.905 143.476 177.092 141.908H172.136V139.22H180.704V150H177.4L177.12 147.424C176.485 148.357 175.692 149.076 174.74 149.58C173.788 150.084 172.575 150.336 171.1 150.336ZM190.208 150.336C188.864 150.336 187.651 150.028 186.568 149.412C185.504 148.796 184.655 147.947 184.02 146.864C183.404 145.763 183.096 144.493 183.096 143.056C183.096 141.619 183.414 140.359 184.048 139.276C184.683 138.175 185.532 137.316 186.596 136.7C187.679 136.084 188.892 135.776 190.236 135.776C191.562 135.776 192.756 136.084 193.82 136.7C194.903 137.316 195.752 138.175 196.368 139.276C197.003 140.359 197.32 141.619 197.32 143.056C197.32 144.493 197.003 145.763 196.368 146.864C195.752 147.947 194.903 148.796 193.82 149.412C192.738 150.028 191.534 150.336 190.208 150.336ZM190.208 147.228C191.142 147.228 191.954 146.883 192.644 146.192C193.335 145.483 193.68 144.437 193.68 143.056C193.68 141.675 193.335 140.639 192.644 139.948C191.954 139.239 191.151 138.884 190.236 138.884C189.284 138.884 188.463 139.239 187.772 139.948C187.1 140.639 186.764 141.675 186.764 143.056C186.764 144.437 187.1 145.483 187.772 146.192C188.463 146.883 189.275 147.228 190.208 147.228ZM204.753 150.336C203.558 150.336 202.578 150.149 201.813 149.776C201.047 149.384 200.478 148.871 200.105 148.236C199.731 147.601 199.545 146.901 199.545 146.136C199.545 144.848 200.049 143.803 201.057 143C202.065 142.197 203.577 141.796 205.593 141.796H209.121V141.46C209.121 140.508 208.85 139.808 208.309 139.36C207.767 138.912 207.095 138.688 206.293 138.688C205.565 138.688 204.93 138.865 204.389 139.22C203.847 139.556 203.511 140.06 203.381 140.732H199.881C199.974 139.724 200.31 138.847 200.889 138.1C201.486 137.353 202.251 136.784 203.185 136.392C204.118 135.981 205.163 135.776 206.321 135.776C208.299 135.776 209.858 136.271 210.997 137.26C212.135 138.249 212.705 139.649 212.705 141.46V150H209.653L209.317 147.76C208.906 148.507 208.327 149.123 207.581 149.608C206.853 150.093 205.91 150.336 204.753 150.336ZM205.565 147.536C206.591 147.536 207.385 147.2 207.945 146.528C208.523 145.856 208.887 145.025 209.037 144.036H205.985C205.033 144.036 204.351 144.213 203.941 144.568C203.53 144.904 203.325 145.324 203.325 145.828C203.325 146.369 203.53 146.789 203.941 147.088C204.351 147.387 204.893 147.536 205.565 147.536ZM215.565 150V129.84H219.149V150H215.565ZM227.991 150.336C226.759 150.336 225.676 150.14 224.743 149.748C223.81 149.337 223.063 148.777 222.503 148.068C221.943 147.359 221.607 146.537 221.495 145.604H225.107C225.219 146.145 225.518 146.612 226.003 147.004C226.507 147.377 227.151 147.564 227.935 147.564C228.719 147.564 229.288 147.405 229.643 147.088C230.016 146.771 230.203 146.407 230.203 145.996C230.203 145.399 229.942 144.997 229.419 144.792C228.896 144.568 228.168 144.353 227.235 144.148C226.638 144.017 226.031 143.859 225.415 143.672C224.799 143.485 224.23 143.252 223.707 142.972C223.203 142.673 222.792 142.3 222.475 141.852C222.158 141.385 221.999 140.816 221.999 140.144C221.999 138.912 222.484 137.876 223.455 137.036C224.444 136.196 225.826 135.776 227.599 135.776C229.242 135.776 230.548 136.159 231.519 136.924C232.508 137.689 233.096 138.744 233.283 140.088H229.895C229.69 139.061 228.915 138.548 227.571 138.548C226.899 138.548 226.376 138.679 226.003 138.94C225.648 139.201 225.471 139.528 225.471 139.92C225.471 140.331 225.742 140.657 226.283 140.9C226.824 141.143 227.543 141.367 228.439 141.572C229.41 141.796 230.296 142.048 231.099 142.328C231.92 142.589 232.574 142.991 233.059 143.532C233.544 144.055 233.787 144.811 233.787 145.8C233.806 146.659 233.582 147.433 233.115 148.124C232.648 148.815 231.976 149.356 231.099 149.748C230.222 150.14 229.186 150.336 227.991 150.336Z" fill="#0E1F2E"/>
</g>
<defs>
<clipPath id="clip0_704_1864">
<rect width="412" height="264" fill="white"/>
</clipPath>
</defs>
</svg>
