<svg width="170" height="56" viewBox="0 0 170 56" fill="none" xmlns="http://www.w3.org/2000/svg">
<path d="M81.8314 23.0626V29.9813C80.9695 30.6103 79.991 31.0995 78.9661 31.4256C77.8945 31.7518 76.7763 31.9148 75.6581 31.9148C74.3303 31.9381 73.0257 31.7052 71.7678 31.2393C70.6729 30.8199 69.6479 30.191 68.8093 29.3756C67.9939 28.5603 67.3416 27.5819 66.9223 26.5103C66.4797 25.3455 66.2468 24.0876 66.2701 22.8296C66.2468 21.5717 66.4564 20.3137 66.899 19.1257C67.2951 18.0541 67.924 17.0757 68.7161 16.2603C69.5314 15.445 70.5098 14.816 71.5814 14.3967C72.7928 13.9308 74.074 13.7211 75.3786 13.7444C76.0308 13.7444 76.7064 13.791 77.3587 13.9075C77.941 14.0007 78.5001 14.1637 79.0359 14.3734C79.5484 14.5598 80.0143 14.7927 80.4803 15.0723C80.9229 15.3518 81.3189 15.6546 81.7149 16.0041L80.9694 17.1921C80.8763 17.3785 80.7132 17.495 80.5035 17.5416C80.2939 17.5882 80.0609 17.5416 79.8979 17.4018C79.6882 17.2853 79.4553 17.1223 79.199 16.9592C78.8962 16.7728 78.5933 16.6098 78.2672 16.4933C77.8712 16.3302 77.4518 16.2137 77.0092 16.1438C76.4501 16.0274 75.8911 15.9808 75.3087 16.0041C74.4001 15.9808 73.5149 16.1438 72.6763 16.47C71.9075 16.7728 71.232 17.2387 70.6729 17.8444C70.1138 18.4734 69.6712 19.1955 69.3916 19.9876C69.0888 20.8961 68.9257 21.8512 68.949 22.8063C68.9257 23.808 69.0888 24.7864 69.4149 25.7183C69.6945 26.5336 70.1604 27.279 70.7428 27.908C71.3252 28.5137 72.0473 28.9796 72.8394 29.2824C73.7246 29.6086 74.6564 29.7717 75.5882 29.7484C75.9609 29.7484 76.3337 29.7251 76.7064 29.6785C77.0325 29.6319 77.3587 29.562 77.6848 29.4921C77.9876 29.4222 78.2905 29.3057 78.5933 29.1893C78.8962 29.0728 79.1757 28.933 79.4552 28.77V25.0427H76.8229C76.6831 25.0427 76.52 24.9961 76.4268 24.9029C76.3337 24.8097 76.2638 24.67 76.2638 24.5302V23.0626H81.8314Z" fill="white"/>
<path d="M90.078 18.9392C90.94 18.9159 91.7786 19.079 92.5707 19.3818C93.2928 19.6614 93.9451 20.104 94.4809 20.6864C95.0167 21.2687 95.436 21.9676 95.6922 22.7131C96.2513 24.4602 96.2513 26.3238 95.6922 28.071C95.436 28.8165 95.0167 29.5153 94.4809 30.121C93.9451 30.6801 93.2928 31.1227 92.5707 31.4022C90.9633 32.0079 89.1695 32.0079 87.5621 31.4022C86.84 31.1227 86.1877 30.6801 85.6519 30.121C85.1161 29.5386 84.6968 28.8398 84.4406 28.071C83.8815 26.3238 83.8815 24.4602 84.4406 22.7131C84.6968 21.9676 85.1161 21.2687 85.6519 20.6864C86.1877 20.1273 86.84 19.6847 87.5621 19.3818C88.3775 19.079 89.2161 18.9392 90.078 18.9392ZM90.078 29.9812C91.2661 29.9812 92.1513 29.5852 92.7337 28.7932C93.3161 28.0011 93.6189 26.8596 93.6189 25.4153C93.6189 23.971 93.3161 22.8295 92.7337 22.0375C92.1513 21.2455 91.2661 20.8261 90.078 20.8261C88.8667 20.8261 87.9815 21.2222 87.3991 22.0375C86.8167 22.8528 86.5138 23.971 86.5138 25.4153C86.5138 26.8596 86.8167 27.9778 87.3991 28.7932C87.9815 29.5852 88.8667 29.9812 90.078 29.9812Z" fill="white"/>
<path d="M101.26 13.4648V31.7051H98.8372V13.4648H101.26Z" fill="white"/>
<path d="M115.214 13.4648V31.7051H113.746C113.443 31.7284 113.164 31.5188 113.117 31.2159L112.907 29.7716C112.395 30.3773 111.789 30.8898 111.09 31.2858C110.368 31.6818 109.553 31.8682 108.738 31.8682C108.062 31.8682 107.41 31.7284 106.781 31.4489C106.198 31.1693 105.686 30.75 105.29 30.2142C104.847 29.6086 104.521 28.933 104.335 28.2108C104.102 27.3023 103.985 26.3938 104.009 25.462C104.009 24.5767 104.125 23.7148 104.381 22.8762C104.614 22.1307 104.964 21.4086 105.453 20.8029C106.408 19.5915 107.876 18.8927 109.413 18.916C110.694 18.8694 111.929 19.3819 112.768 20.337V13.4648H115.214ZM112.791 22.1773C112.465 21.7114 112.022 21.3387 111.51 21.0824C111.02 20.8728 110.508 20.7563 109.972 20.7796C108.877 20.7796 108.015 21.1756 107.41 21.9677C106.804 22.7597 106.501 23.9245 106.501 25.4387C106.501 26.1142 106.548 26.8131 106.711 27.4887C106.804 27.9779 107.014 28.4438 107.293 28.8631C107.526 29.2125 107.876 29.4921 108.248 29.6551C108.644 29.8182 109.087 29.9114 109.53 29.9114C110.159 29.9347 110.788 29.7716 111.347 29.4455C111.906 29.0961 112.395 28.6534 112.791 28.1177V22.1773Z" fill="white"/>
<path d="M127.956 16.0973V22.0376H135.061V24.1808H127.956V31.7052H125.324V13.9541H136.319V16.0973H127.956Z" fill="white"/>
<path d="M141.7 15.2583C141.7 15.468 141.654 15.7009 141.561 15.8873C141.468 16.097 141.351 16.26 141.188 16.4231C140.885 16.7259 140.443 16.9123 140 16.9123C139.79 16.9123 139.557 16.8657 139.371 16.7725C139.185 16.6793 138.998 16.5629 138.835 16.4231C138.672 16.26 138.556 16.097 138.486 15.8873C138.393 15.6776 138.346 15.468 138.346 15.2583C138.346 15.0254 138.393 14.8157 138.486 14.6061C138.649 14.21 138.975 13.8839 139.371 13.7208C139.581 13.6276 139.79 13.5811 140 13.5811C140.443 13.5811 140.862 13.7674 141.188 14.0703C141.351 14.2333 141.468 14.3964 141.561 14.6061C141.677 14.8157 141.724 15.0254 141.7 15.2583ZM141.235 19.1487V31.7049H138.835V19.1487H141.235Z" fill="white"/>
<path d="M152.16 21.292C152.114 21.3852 152.044 21.4551 151.951 21.525C151.858 21.5715 151.764 21.5948 151.671 21.5948C151.508 21.5948 151.368 21.5483 151.229 21.4551C151.066 21.3619 150.879 21.2687 150.646 21.1522C150.39 21.0358 150.134 20.9426 149.854 20.8494C149.505 20.7562 149.132 20.7096 148.759 20.7096C148.433 20.7096 148.13 20.7562 147.827 20.8494C147.571 20.9193 147.315 21.0358 147.105 21.1988C146.919 21.3386 146.756 21.525 146.639 21.7346C146.523 21.9443 146.476 22.1772 146.476 22.4102C146.476 22.6897 146.57 22.9693 146.756 23.1789C146.966 23.4119 147.222 23.575 147.478 23.7147C147.804 23.8778 148.154 24.0176 148.503 24.1107L149.668 24.4835C150.064 24.6232 150.46 24.763 150.833 24.9261C151.205 25.0892 151.555 25.2988 151.858 25.5551C152.16 25.8113 152.417 26.1142 152.58 26.4636C152.766 26.8596 152.883 27.3022 152.859 27.7681C152.859 28.3272 152.766 28.8863 152.533 29.3988C152.323 29.888 151.997 30.3306 151.601 30.6801C151.159 31.0528 150.646 31.3556 150.087 31.542C149.412 31.7516 148.736 31.8681 148.037 31.8448C147.222 31.8448 146.406 31.705 145.638 31.4022C144.962 31.146 144.333 30.7732 143.797 30.3073L144.356 29.3755C144.426 29.259 144.496 29.1658 144.613 29.1193C144.729 29.0494 144.869 29.0261 145.009 29.0261C145.195 29.0261 145.358 29.096 145.498 29.1891C145.661 29.3056 145.871 29.4221 146.08 29.5619C146.337 29.7016 146.616 29.8414 146.919 29.9346C147.315 30.0511 147.734 30.121 148.154 30.0977C148.526 30.0977 148.876 30.0511 149.225 29.9346C149.505 29.8414 149.761 29.7016 149.994 29.5153C150.18 29.3522 150.343 29.1426 150.437 28.9096C150.53 28.6766 150.576 28.4204 150.576 28.1874C150.576 27.8846 150.483 27.6051 150.297 27.3721C150.087 27.1391 149.854 26.9528 149.575 26.813C149.248 26.6499 148.899 26.5102 148.55 26.3937C148.154 26.2772 147.758 26.1607 147.362 26.021C146.966 25.8812 146.57 25.7414 146.173 25.5551C145.801 25.392 145.451 25.159 145.148 24.9028C144.846 24.6232 144.589 24.2971 144.426 23.9477C144.24 23.5051 144.147 23.0392 144.17 22.5733C144.17 22.084 144.263 21.6181 144.473 21.1755C144.683 20.7329 144.985 20.3369 145.358 20.0108C145.777 19.6613 146.267 19.3818 146.779 19.1954C147.408 18.9858 148.06 18.8926 148.713 18.8926C149.481 18.8926 150.25 19.0091 150.972 19.2886C151.601 19.5216 152.207 19.8943 152.696 20.3835L152.16 21.292Z" fill="white"/>
<path d="M157.891 20.733C158.403 20.2205 158.986 19.7779 159.638 19.4285C160.313 19.079 161.082 18.916 161.851 18.9393C162.48 18.916 163.109 19.0557 163.668 19.2887C164.181 19.4984 164.623 19.8478 164.973 20.2671C165.345 20.7097 165.625 21.2222 165.788 21.758C165.974 22.387 166.067 23.0393 166.067 23.6915V31.6818H163.645V23.6915C163.645 22.783 163.435 22.1074 163.016 21.5949C162.596 21.0824 161.967 20.8495 161.129 20.8495C160.523 20.8495 159.917 20.9893 159.382 21.2921C158.823 21.5949 158.31 22.0143 157.867 22.4802V31.6818H155.468V13.4648H157.891V20.733Z" fill="white"/>
<path d="M67.0622 42.4906V38.2741L66.34 38.2508C66.2701 38.2508 66.2468 38.2276 66.2468 38.181V38.0878H67.0389V37.6219C67.0389 37.3656 67.0855 37.1094 67.1553 36.8531C67.2252 36.6435 67.3417 36.4571 67.5048 36.294C67.6678 36.131 67.8309 36.0145 68.0406 35.9446C68.2735 35.8747 68.5065 35.8281 68.7394 35.8281C68.8326 35.8281 68.9258 35.8281 69.0423 35.8514C69.1355 35.8747 69.2286 35.898 69.2985 35.9213L69.2752 36.0378C69.2752 36.0611 69.2519 36.0611 69.2519 36.0611C69.2286 36.0611 69.2053 36.0611 69.1588 36.0611L69.019 36.0378C68.9491 36.0378 68.8559 36.0378 68.786 36.0378C68.5764 36.0378 68.39 36.0611 68.1803 36.1077C67.994 36.1776 67.8309 36.2707 67.6911 36.4105C67.5514 36.5503 67.4582 36.7134 67.3883 36.8997C67.3184 37.1327 67.2718 37.3656 67.2718 37.5986V38.0645H69.9042V42.4673H69.648V38.2508H67.2485V42.4673H67.0622V42.4906Z" fill="white"/>
<path d="M75.9144 38.3908C75.8911 38.4141 75.8678 38.4374 75.8445 38.4374C75.7979 38.4374 75.7513 38.4141 75.728 38.3675C75.6581 38.3209 75.5882 38.2743 75.5184 38.2277C75.4019 38.1811 75.3087 38.1345 75.1922 38.0879C75.0292 38.0413 74.8661 38.0181 74.703 38.0181C74.54 38.0181 74.3536 38.0413 74.2138 38.1112C74.074 38.1578 73.9343 38.2277 73.8178 38.3209C73.7013 38.4141 73.6314 38.5073 73.5616 38.647C73.4917 38.7635 73.4684 38.9033 73.4684 39.0198C73.4684 39.1595 73.515 39.2993 73.5848 39.4158C73.6547 39.5323 73.7712 39.6254 73.8877 39.672C74.0275 39.7419 74.1672 39.8118 74.307 39.8584L74.7962 40.0215C74.9593 40.068 75.1223 40.1146 75.2854 40.1845C75.4252 40.2311 75.565 40.301 75.7047 40.3942C75.8212 40.4874 75.9377 40.5805 76.0076 40.7203C76.0775 40.8601 76.124 41.0232 76.124 41.1862C76.124 41.3726 76.1008 41.559 76.0309 41.722C75.961 41.8851 75.8678 42.0482 75.728 42.1646C75.5882 42.3044 75.4252 42.3976 75.2388 42.4675C75.0292 42.5374 74.8195 42.5839 74.5865 42.5839C74.4468 42.5839 74.2837 42.5607 74.1439 42.5374C74.0275 42.5141 73.8877 42.4675 73.7712 42.4209C73.6547 42.3743 73.5616 42.3044 73.4451 42.2345C73.3519 42.1646 73.2354 42.0947 73.1655 42.0016L73.2354 41.9317C73.2354 41.9084 73.2587 41.9084 73.2587 41.9084C73.282 41.9084 73.3053 41.8851 73.3053 41.8851C73.3519 41.8851 73.3985 41.9317 73.4451 41.955C73.515 42.0249 73.5848 42.0714 73.678 42.118C73.7945 42.1879 73.911 42.2578 74.0508 42.2811C74.2371 42.3277 74.4235 42.351 74.6098 42.351C74.7962 42.351 74.9826 42.3277 75.1689 42.2578C75.332 42.2112 75.4485 42.118 75.5883 42.0016C75.7047 41.9084 75.7746 41.7686 75.8445 41.6288C75.8911 41.4891 75.9377 41.326 75.9377 41.1862C75.9377 41.0465 75.9144 40.8834 75.8212 40.7669C75.7513 40.6504 75.6348 40.5572 75.5184 40.4874C75.3786 40.4175 75.2388 40.3476 75.099 40.301L74.6098 40.1612C74.4468 40.1146 74.2837 40.068 74.1206 39.9982C73.9809 39.9516 73.8411 39.8817 73.7013 39.7885C73.5848 39.7186 73.4684 39.6021 73.3985 39.4857C73.3286 39.3459 73.282 39.1828 73.282 39.0198C73.282 38.8567 73.3286 38.7169 73.3985 38.5771C73.4684 38.4374 73.5616 38.2976 73.7013 38.2044C73.8411 38.0879 74.0042 37.9948 74.1672 37.9482C74.3536 37.8783 74.5633 37.855 74.7729 37.855C75.0059 37.855 75.2388 37.8783 75.4718 37.9715C75.6814 38.0413 75.8911 38.1811 76.0542 38.3209L75.9144 38.3908Z" fill="white"/>
<path d="M79.5018 38.7868C79.7114 38.5073 79.9677 38.2743 80.2705 38.088C80.5733 37.9249 80.8995 37.8317 81.2256 37.8317C81.4586 37.8317 81.6682 37.8783 81.9012 37.9482C82.0875 38.0181 82.2506 38.1346 82.3671 38.2976C82.5069 38.4607 82.6 38.6471 82.6466 38.8334C82.7165 39.0664 82.7398 39.3226 82.7398 39.5556V42.4908H82.5069V39.5789C82.5069 39.3692 82.4836 39.1363 82.437 38.9266C82.3904 38.7403 82.3205 38.5772 82.204 38.4374C82.0875 38.2976 81.9478 38.2045 81.7847 38.1346C81.5983 38.0647 81.412 38.0181 81.2023 38.0414C80.8762 38.0414 80.55 38.1346 80.2705 38.2976C79.9677 38.484 79.7114 38.7403 79.525 39.0198V42.4908H79.2688V35.7817H79.525L79.5018 38.7868Z" fill="white"/>
<path d="M90.87 42.491V38.2746L90.1479 38.2513C90.078 38.2513 90.0547 38.228 90.0547 38.1814V38.0882H90.87V37.4359C90.87 37.203 90.8933 36.97 90.9632 36.7604C91.0098 36.574 91.103 36.4109 91.2195 36.2712C91.3359 36.1547 91.4757 36.0382 91.6388 35.9916C91.8018 35.9217 91.9882 35.8984 92.1746 35.8984C92.2678 35.8984 92.3609 35.8984 92.4541 35.9217C92.5473 35.945 92.6172 35.9683 92.7104 35.9916L92.6871 36.0848C92.6871 36.1081 92.6638 36.1314 92.6638 36.1314C92.6405 36.1314 92.5939 36.1314 92.5706 36.1314H92.4308C92.3609 36.1314 92.291 36.1081 92.2212 36.1081C92.0814 36.1081 91.9183 36.1314 91.7786 36.178C91.6388 36.2246 91.5223 36.2945 91.4291 36.4109C91.3126 36.5274 91.2428 36.6672 91.1962 36.8303C91.1263 37.0399 91.103 37.2496 91.103 37.4592V38.1115H92.6638V38.2979H91.103V42.5143L90.87 42.491Z" fill="white"/>
<path d="M97.1366 37.855C97.4394 37.855 97.7189 37.9016 97.9985 38.0181C98.2547 38.1346 98.4644 38.2977 98.6275 38.5073C98.8138 38.717 98.9303 38.9732 99.0235 39.2528C99.2098 39.8817 99.2098 40.5573 99.0235 41.1863C98.9536 41.4658 98.8138 41.6988 98.6275 41.9317C98.4644 42.1414 98.2314 42.3045 97.9985 42.3977C97.4394 42.6073 96.8337 42.6073 96.2746 42.3977C96.0184 42.3045 95.8087 42.1414 95.6457 41.9317C95.4593 41.7221 95.3428 41.4658 95.2496 41.1863C95.0633 40.5573 95.0633 39.8817 95.2496 39.2528C95.3195 38.9732 95.4593 38.717 95.6457 38.5073C95.8087 38.2977 96.0417 38.1346 96.2746 38.0181C96.5542 37.9016 96.8337 37.8318 97.1366 37.855ZM97.1366 42.3511C97.4161 42.3511 97.6724 42.3045 97.9286 42.188C98.1383 42.0948 98.3479 41.9317 98.4877 41.7454C98.6508 41.5357 98.7672 41.3028 98.8371 41.0698C98.907 40.7903 98.9536 40.4874 98.9536 40.1846C98.9536 39.8817 98.9303 39.5789 98.8371 39.2994C98.7672 39.0431 98.6508 38.8102 98.4877 38.6238C98.3479 38.4374 98.1383 38.2744 97.9286 38.1812C97.4394 37.9715 96.8803 37.9715 96.3678 38.1812C96.1582 38.2744 95.9485 38.4374 95.8087 38.6238C95.6457 38.8335 95.5292 39.0664 95.4593 39.2994C95.3894 39.5789 95.3428 39.8817 95.3428 40.1846C95.3428 40.4874 95.3661 40.767 95.4593 41.0698C95.5292 41.3261 95.6457 41.5357 95.8087 41.7454C95.9485 41.9317 96.1582 42.0948 96.3678 42.188C96.6008 42.3045 96.857 42.3744 97.1366 42.3511Z" fill="white"/>
<path d="M104.125 37.855C104.428 37.855 104.707 37.9016 104.987 38.0181C105.243 38.1346 105.453 38.2977 105.616 38.5073C105.802 38.717 105.942 38.9732 106.012 39.2528C106.198 39.8817 106.198 40.5573 106.012 41.1863C105.942 41.4658 105.802 41.6988 105.616 41.9317C105.453 42.1414 105.22 42.3045 104.987 42.3977C104.428 42.6073 103.822 42.6073 103.263 42.3977C103.007 42.2812 102.797 42.1414 102.634 41.9317C102.448 41.7221 102.331 41.4658 102.238 41.1863C102.052 40.5573 102.052 39.8817 102.238 39.2528C102.308 38.9732 102.448 38.717 102.634 38.5073C102.797 38.2977 103.03 38.1346 103.263 38.0181C103.542 37.9016 103.822 37.8318 104.125 37.855ZM104.125 42.3511C104.404 42.3511 104.661 42.3045 104.917 42.188C105.127 42.0948 105.336 41.9317 105.476 41.7454C105.639 41.5357 105.756 41.3028 105.802 41.0698C105.872 40.7903 105.919 40.4874 105.919 40.1846C105.919 39.8817 105.895 39.5789 105.802 39.2994C105.732 39.0431 105.616 38.8102 105.476 38.6238C105.336 38.4374 105.127 38.2744 104.917 38.1812C104.428 37.9715 103.845 37.9715 103.356 38.1812C103.146 38.2744 102.937 38.4374 102.797 38.6238C102.634 38.8335 102.517 39.0664 102.471 39.2994C102.401 39.5789 102.354 39.8817 102.354 40.1846C102.354 40.4874 102.378 40.767 102.471 41.0698C102.541 41.3261 102.657 41.5357 102.797 41.7454C102.937 41.9317 103.146 42.0948 103.356 42.188C103.589 42.3045 103.869 42.3744 104.125 42.3511Z" fill="white"/>
<path d="M112.814 35.7816V42.4907H112.698C112.651 42.4907 112.605 42.4674 112.605 42.4208V42.3975L112.581 41.5821C112.395 41.8617 112.139 42.0946 111.859 42.281C111.58 42.4441 111.254 42.5373 110.927 42.5373C110.415 42.5606 109.926 42.3509 109.576 41.9549C109.273 41.5589 109.11 40.9765 109.11 40.1844C109.11 39.8583 109.157 39.5555 109.227 39.2526C109.297 38.9731 109.436 38.7168 109.6 38.5072C109.763 38.2975 109.972 38.1111 110.229 37.9947C110.508 37.8782 110.788 37.8083 111.09 37.8083C111.393 37.8083 111.673 37.8549 111.952 37.9947C112.209 38.1344 112.418 38.3208 112.581 38.5537V35.7583H112.814V35.7816ZM112.558 38.8566C112.395 38.6003 112.185 38.3907 111.929 38.2276C111.673 38.1111 111.417 38.0413 111.137 38.0413C110.858 38.0413 110.601 38.0878 110.345 38.2043C110.135 38.3208 109.926 38.4839 109.786 38.6702C109.623 38.8799 109.53 39.1128 109.46 39.3691C109.39 39.6486 109.343 39.9515 109.343 40.231C109.343 40.9532 109.483 41.489 109.763 41.8384C110.042 42.1878 110.508 42.3975 110.951 42.3742C111.277 42.3742 111.58 42.281 111.836 42.1179C112.115 41.9316 112.372 41.6753 112.558 41.3958V38.8566Z" fill="white"/>
<path d="M120.991 38.8101C121.201 38.5305 121.457 38.2976 121.76 38.1112C122.063 37.9482 122.389 37.855 122.715 37.855C122.948 37.855 123.157 37.9016 123.39 37.9715C123.577 38.0413 123.74 38.1578 123.856 38.3209C123.996 38.484 124.089 38.6703 124.136 38.8567C124.206 39.0896 124.229 39.3459 124.229 39.5788V42.5141H123.996V39.5788C123.996 39.3692 123.973 39.1362 123.926 38.9266C123.88 38.7402 123.81 38.5771 123.693 38.4374C123.577 38.2976 123.437 38.2044 123.274 38.1345C123.088 38.0646 122.901 38.018 122.692 38.0413C122.365 38.0413 122.039 38.1345 121.76 38.2976C121.457 38.484 121.201 38.7402 121.014 39.0198V42.4908H120.758V37.9016H120.875C120.944 37.9016 120.968 37.9249 120.968 37.9948L120.991 38.8101Z" fill="white"/>
<path d="M131.101 37.9248V42.4907H130.985C130.938 42.4907 130.891 42.4674 130.891 42.3975L130.868 41.6055C130.658 41.885 130.402 42.118 130.099 42.3043C129.796 42.4907 129.47 42.5606 129.121 42.5606C128.888 42.5606 128.678 42.514 128.445 42.4441C128.259 42.3742 128.096 42.2577 127.979 42.118C127.84 41.9549 127.746 41.7685 127.7 41.5822C127.63 41.3492 127.607 41.093 127.607 40.86V37.9248H127.84V40.86C127.84 41.0697 127.863 41.3026 127.91 41.5123C127.956 41.6754 128.026 41.8384 128.142 42.0015C128.259 42.1413 128.399 42.2345 128.562 42.3043C128.748 42.3742 128.935 42.4208 129.144 42.3975C129.47 42.3975 129.796 42.3043 130.076 42.1413C130.379 41.9549 130.635 41.6987 130.845 41.4191V37.9481H131.101V37.9248Z" fill="white"/>
<path d="M135.76 42.584C135.504 42.6073 135.271 42.5142 135.085 42.3511C134.898 42.1414 134.828 41.8619 134.852 41.6056V38.2977H134.13C134.06 38.2977 134.036 38.2744 134.036 38.2278V38.1346L134.852 38.1113L134.922 36.3409C134.922 36.3176 134.922 36.2943 134.945 36.2943C134.945 36.271 134.968 36.271 134.991 36.271H135.085V38.1113H136.599V38.2977H135.085V41.5823C135.085 41.6988 135.108 41.8386 135.131 41.9551C135.155 42.0483 135.224 42.1414 135.271 42.2113C135.341 42.2812 135.411 42.3278 135.504 42.3511C135.597 42.3744 135.69 42.3977 135.784 42.3977C135.9 42.3977 135.993 42.3744 136.11 42.3511C136.203 42.3278 136.273 42.2812 136.343 42.2346C136.389 42.188 136.459 42.1647 136.506 42.1181C136.529 42.0948 136.552 42.0715 136.599 42.0715C136.622 42.0715 136.645 42.0948 136.645 42.0948L136.715 42.188C136.669 42.2579 136.599 42.3045 136.529 42.3744C136.459 42.421 136.389 42.4676 136.296 42.5142C136.203 42.5608 136.133 42.584 136.04 42.6073C135.947 42.5608 135.853 42.584 135.76 42.584Z" fill="white"/>
<path d="M139.79 39.1594C139.837 38.973 139.93 38.7867 140.023 38.6003C140.116 38.4372 140.21 38.3207 140.349 38.181C140.466 38.0645 140.606 37.9946 140.769 37.9247C140.932 37.8548 141.118 37.8315 141.304 37.8315C141.398 37.8315 141.491 37.8315 141.584 37.8548C141.677 37.8781 141.747 37.9014 141.84 37.948L141.817 38.0878C141.817 38.1111 141.794 38.1344 141.747 38.1344C141.7 38.1344 141.654 38.1111 141.584 38.1111C141.491 38.0878 141.374 38.0645 141.281 38.0878C141.095 38.0878 140.932 38.1111 140.769 38.181C140.629 38.2509 140.489 38.344 140.373 38.4372C140.256 38.577 140.14 38.7168 140.07 38.8798C139.977 39.0895 139.907 39.2759 139.837 39.4855V42.4906H139.581V37.9014H139.697C139.767 37.9014 139.79 37.9247 139.79 37.9946V39.1594Z" fill="white"/>
<path d="M145.125 36.271C145.125 36.3176 145.125 36.3641 145.102 36.3874C145.078 36.434 145.055 36.4573 145.032 36.4806C145.008 36.5039 144.962 36.5272 144.938 36.5505C144.892 36.5738 144.869 36.5738 144.822 36.5738C144.729 36.5738 144.659 36.5505 144.589 36.4806C144.473 36.3641 144.473 36.1545 144.589 36.038C144.659 35.9914 144.729 35.9448 144.822 35.9448C144.869 35.9448 144.915 35.9448 144.938 35.9681C144.985 35.9914 145.008 36.0147 145.032 36.038C145.055 36.0613 145.078 36.1079 145.102 36.1312C145.125 36.1778 145.125 36.2244 145.125 36.271ZM144.938 37.9249V42.4908H144.706V37.9249H144.938Z" fill="white"/>
<path d="M152.02 42.4909H151.787V38.2744H148.969V41.5591C148.969 41.6756 148.992 41.8153 149.015 41.9318C149.039 42.025 149.108 42.1182 149.155 42.1881C149.225 42.2579 149.295 42.3045 149.388 42.3278C149.481 42.3511 149.574 42.3744 149.668 42.3744C149.784 42.3744 149.877 42.3511 149.994 42.3278C150.087 42.3045 150.157 42.2579 150.227 42.2114C150.273 42.1648 150.343 42.1415 150.39 42.0949C150.413 42.0716 150.436 42.0483 150.483 42.0483C150.506 42.0483 150.529 42.0716 150.529 42.0716L150.599 42.1648C150.553 42.2346 150.483 42.2812 150.413 42.3511C150.343 42.3977 150.273 42.4443 150.18 42.4909C150.087 42.5375 150.017 42.5608 149.924 42.5841C149.831 42.6074 149.737 42.6074 149.644 42.6074C149.388 42.6307 149.155 42.5375 148.969 42.3744C148.782 42.1648 148.712 41.8852 148.736 41.629V38.321H148.014C147.944 38.321 147.92 38.2977 147.92 38.2511V38.1579L148.736 38.1114L148.806 36.3409C148.806 36.3176 148.829 36.2943 148.829 36.2943C148.852 36.271 148.852 36.271 148.876 36.271H148.969V38.1114H152.02V42.4909ZM152.23 36.2011C152.23 36.2477 152.23 36.271 152.207 36.3176C152.183 36.3642 152.16 36.3875 152.137 36.4108C152.114 36.4341 152.067 36.4574 152.044 36.4807C151.974 36.504 151.881 36.504 151.811 36.4807C151.764 36.4574 151.741 36.4341 151.718 36.4108C151.694 36.3875 151.671 36.3409 151.648 36.3176C151.624 36.271 151.624 36.2477 151.624 36.2011C151.624 36.0381 151.764 35.875 151.951 35.875C151.997 35.875 152.044 35.875 152.067 35.8983C152.114 35.9216 152.137 35.9449 152.16 35.9682C152.183 35.9915 152.207 36.0381 152.23 36.0614C152.23 36.1313 152.23 36.1545 152.23 36.2011Z" fill="white"/>
<path d="M157.332 37.855C157.635 37.855 157.914 37.9016 158.194 38.0181C158.45 38.1346 158.66 38.2977 158.823 38.5073C159.009 38.717 159.126 38.9732 159.219 39.2528C159.405 39.8817 159.405 40.5573 159.219 41.1863C159.149 41.4658 159.009 41.6988 158.823 41.9317C158.636 42.1414 158.427 42.2812 158.194 42.3977C157.635 42.6073 157.029 42.6073 156.47 42.3977C156.214 42.3045 156.004 42.1414 155.841 41.9317C155.655 41.7221 155.515 41.4658 155.445 41.1863C155.259 40.5573 155.259 39.8817 155.445 39.2528C155.515 38.9732 155.655 38.717 155.841 38.5073C156.004 38.2977 156.237 38.1346 156.47 38.0181C156.749 37.9016 157.029 37.8318 157.332 37.855ZM157.332 42.3511C157.611 42.3511 157.868 42.3045 158.101 42.188C158.31 42.0948 158.52 41.9317 158.66 41.7454C158.823 41.5357 158.939 41.3028 158.986 41.0698C159.056 40.7903 159.102 40.4874 159.102 40.1846C159.102 39.8817 159.079 39.5789 158.986 39.2994C158.916 39.0431 158.799 38.8102 158.66 38.6238C158.52 38.4374 158.31 38.2744 158.101 38.1812C157.611 37.9715 157.052 37.9715 156.54 38.1812C156.33 38.2744 156.121 38.4374 155.981 38.6238C155.818 38.8335 155.701 39.0664 155.655 39.2994C155.585 39.5789 155.538 39.8817 155.538 40.1846C155.538 40.4874 155.561 40.767 155.655 41.0698C155.724 41.3261 155.841 41.5357 155.981 41.7454C156.121 41.9317 156.33 42.0715 156.54 42.188C156.796 42.3045 157.052 42.3744 157.332 42.3511Z" fill="white"/>
<path d="M162.806 38.8101C163.016 38.5305 163.272 38.2976 163.575 38.1112C163.878 37.9482 164.204 37.855 164.553 37.855C164.786 37.855 164.996 37.9016 165.229 37.9715C165.415 38.0413 165.578 38.1578 165.695 38.3209C165.835 38.484 165.928 38.6703 165.974 38.8567C166.044 39.0896 166.068 39.3459 166.068 39.5788V42.5141H165.835V39.5788C165.835 39.3692 165.811 39.1362 165.765 38.9266C165.718 38.7402 165.648 38.5771 165.532 38.4374C165.415 38.2976 165.276 38.2044 165.112 38.1345C164.926 38.0646 164.74 38.018 164.53 38.0413C164.204 38.0413 163.878 38.1345 163.598 38.2976C163.295 38.484 163.039 38.7402 162.853 39.0198V42.4908H162.62V37.9016H162.736C162.783 37.9016 162.83 37.9249 162.83 37.9715V37.9948L162.806 38.8101Z" fill="white"/>
<path d="M28.019 19.2187C27.0173 17.7977 27.3434 15.4914 27.3434 15.4914C27.3434 15.4914 29.0207 16.3534 30.5582 16.0272C32.0957 15.7011 34.4485 13.7443 34.4485 13.7443C34.4485 13.7443 31.9559 14.8392 29.9991 14.8858C28.0423 14.9324 26.6679 13.4647 26.6679 13.4647L27.3434 14.8159L25.9224 14.2801L26.4815 15.6778L25.9224 15.3517C26.3883 16.7494 27.1105 18.0539 28.019 19.2187ZM18.0253 4.23976C18.0253 4.23976 16.1849 4.82215 14.7872 7.33805L11.6423 12.9988C11.6423 12.9988 14.4145 10.6926 17.0702 10.3432C19.7258 9.99373 22.6611 11.7875 25.0605 12.067C27.4599 12.3466 26.9474 11.9272 28.2287 12.4863C28.2287 12.4863 29.9758 11.438 29.6963 11.2983C29.4167 11.1585 28.9275 11.1119 28.6946 10.9255C28.4616 10.7392 28.5082 9.5977 27.8792 9.5977C27.2503 9.5977 27.0639 6.98862 24.7577 5.98692C22.4514 4.98522 20.7275 4.51931 19.5395 2.37613C18.8639 1.14147 17.6526 0.256249 16.2781 0C16.2781 0 13.1565 2.42272 12.7605 5.31135C12.3645 8.19998 13.0867 9.66759 13.0867 9.66759C13.0867 9.66759 12.7605 6.01021 14.3213 3.89033C15.8821 1.77045 16.5577 1.32784 16.5577 1.32784C16.5577 1.32784 18.2582 2.05 18.794 3.42442C19.3298 4.79885 21.4963 6.12669 23.0571 6.49942C24.6179 6.87214 25.8292 7.89714 26.1787 8.80566C26.5281 9.71418 26.8309 10.3432 27.2503 10.3665C27.6696 10.3897 27.9258 10.3665 27.9957 10.8324C28.0423 11.1585 28.2753 11.438 28.6014 11.5312C28.415 11.6943 28.2287 11.8341 28.019 11.9505C28.019 11.9505 27.8326 11.7875 26.7378 11.7176C25.6429 11.6477 24.6412 11.6011 23.4531 11.1818C23.1037 11.0653 22.5912 10.8557 21.9855 10.646C23.0571 9.87725 24.2917 9.36475 25.573 9.15509C24.0821 9.15509 22.6145 9.5977 21.4031 10.4363C21.1702 10.3432 20.9139 10.2733 20.6577 10.1801C22.6378 8.0835 24.4781 7.73407 24.4781 7.73407C22.6378 7.73407 20.7974 9.41134 20.1918 10.017C19.4463 9.78407 18.6776 9.621 17.9088 9.52782C19.4929 7.6176 22.2417 7.01192 22.2417 7.01192C20.3315 7.24487 18.5844 8.13009 17.2332 9.50452H17.1866C16.0452 9.5977 14.927 10.0403 14.0418 10.7625C14.0418 10.7858 15.1599 5.87044 18.0253 4.23976ZM48.915 23.9477C47.5173 24.2039 46.3292 25.0658 45.6536 26.3238C44.4656 28.467 42.765 28.9329 40.4355 29.9346C38.1059 30.9363 37.9196 33.5454 37.2906 33.5454C36.6616 33.5454 36.7315 34.6869 36.4752 34.8732C36.219 35.0596 35.7531 35.1062 35.4735 35.2459C35.194 35.3857 36.9411 36.434 36.9411 36.434C38.2224 35.8749 37.7099 36.2942 40.1093 36.0147C42.5087 35.7351 45.444 33.9414 48.0996 34.2908C50.7553 34.6403 53.5275 36.9465 53.5275 36.9465L50.3826 31.2857C48.9849 28.7698 47.1445 28.1874 47.1445 28.1874C50.0099 29.8181 51.1513 34.7334 51.1513 34.7334C50.2428 34.0113 49.1479 33.5687 48.0065 33.4755H47.9832C46.6553 32.1011 44.8849 31.2158 42.998 30.9829C42.998 30.9829 45.7235 31.5886 47.3309 33.4988C46.5621 33.592 45.7934 33.755 45.0479 33.988C44.4423 33.359 42.6019 31.6817 40.7616 31.6817C40.7616 31.6817 42.6019 32.0312 44.582 34.1278C44.3258 34.2209 44.0695 34.2908 43.8366 34.384C42.6019 33.5454 41.1576 33.1028 39.6667 33.1028C40.948 33.3357 42.1826 33.8482 43.2542 34.5937C42.6485 34.8033 42.1127 35.013 41.7633 35.1295C40.5519 35.5488 39.5502 35.5954 38.4786 35.6653C37.4071 35.7351 37.1974 35.8982 37.1974 35.8982C36.9877 35.7817 36.8014 35.642 36.615 35.4789C36.9411 35.3857 37.1741 35.1295 37.2207 34.8033C37.2673 34.3374 37.5468 34.3607 37.9661 34.3374C38.3855 34.3141 38.6883 33.6619 39.0377 32.7766C39.3872 31.8914 40.5985 30.8664 42.1593 30.4704C43.7201 30.0744 45.9099 28.7698 46.4224 27.3954C46.9349 26.021 48.6587 25.3221 48.6587 25.3221C48.6587 25.3221 49.3343 25.7414 50.8951 27.8846C52.4559 30.0278 52.1297 33.6619 52.1297 33.6619C52.1297 33.6619 52.8519 32.1942 52.4559 29.3056C52.0599 26.417 48.8917 23.9477 48.915 23.9477ZM26.9474 12.8358C30.1855 14.3267 32.8179 13.9306 34.4485 11.7409C35.9162 9.69089 38.2224 8.40964 40.7383 8.24657C43.2309 8.03691 47.9832 8.71248 47.9832 8.71248C47.9832 8.71248 46.7485 8.99202 44.3258 9.45793C41.9031 9.92384 39.923 12.9755 39.5968 15.2119C39.2707 17.4483 38.9445 17.7045 37.5002 18.1238C36.0559 18.5431 33.2605 19.5914 32.1656 21.3852C31.0707 23.1789 31.8162 25.1124 31.8162 25.1124C31.2571 23.971 30.1156 23.5051 27.5531 21.9443C24.9906 20.3835 25.9224 16.3301 25.9224 16.3301C25.9224 16.3301 24.5713 19.9875 26.4815 22.3869C28.3917 24.7863 29.1838 23.8778 30.7446 26.0908C32.3054 28.3039 35.986 29.1891 37.8963 27.5585C39.8065 25.9278 43.7434 27.8613 43.7434 27.8613C43.7434 27.8613 40.2724 24.6698 38.1292 25.9511C35.986 27.2323 33.936 27.0227 33.0042 24.6698C32.0724 22.317 34.4252 20.4767 37.8963 19.6846C41.3673 18.8926 39.8764 17.192 41.5303 13.7909C43.1843 10.3897 45.5837 10.0869 47.8434 10.0636C50.103 10.0403 51.6871 7.75737 51.6871 7.75737C51.6871 7.75737 50.7553 7.96703 43.5803 7.05851C36.4054 6.14999 34.8679 9.52782 32.8645 11.8807C30.861 14.2335 26.9474 12.8358 26.9474 12.8358ZM37.873 38.7635L38.5485 37.4124C38.5485 37.4124 37.1741 38.88 35.2173 38.8334C33.2605 38.7868 30.7679 37.692 30.7679 37.692C30.7679 37.692 33.1207 39.6488 34.6582 39.9749C36.1957 40.301 37.873 39.4391 37.873 39.4391C37.873 39.4391 38.1991 41.7454 37.1974 43.1664C38.1059 42.0016 38.8281 40.6971 39.294 39.2993L38.7349 39.6255L39.294 38.251L37.873 38.7635ZM60.19 41.792C59.2115 40.9533 54.2263 37.7385 54.2263 37.7385L55.1814 38.9033C55.1814 38.9033 53.5508 39.2528 51.99 42.3044C50.9417 44.3311 51.7104 46.8936 51.7104 46.8936C51.7104 46.8936 49.8235 48.1749 47.9832 48.4078C46.1428 48.6408 45.1178 48.1283 43.1144 48.8039C43.1144 48.8039 44.3025 47.9186 45.5604 47.8255C46.8184 47.7323 49.4275 45.4959 51.0582 46.5908C51.0582 46.5908 50.3826 45.8686 49.5673 45.9385C48.7519 46.0084 46.469 47.2897 45.6536 47.313C45.2809 47.3363 44.9082 47.4294 44.5587 47.5692C43.8832 47.2897 42.532 46.5675 42.1127 45.3328C41.5536 43.6556 43.0445 38.3675 46.2593 37.692C46.2593 37.692 42.4855 36.1312 39.294 36.7601C39.294 36.7601 40.8315 36.9465 41.2042 37.855C41.5769 38.7635 40.319 39.3226 40.319 41.0931C40.319 42.1414 40.4588 43.1897 40.7383 44.2147C40.7383 44.2147 40.3889 41.9317 40.948 40.4874C41.507 39.0431 44.2093 37.9016 44.2093 37.9016C44.2093 37.9016 41.9264 39.9982 41.3673 43.0499C40.8548 45.8221 42.3923 47.2198 43.8599 47.8255L43.8366 47.8488C43.1377 47.9186 42.4156 47.7323 41.8332 47.313C40.5985 46.451 40.2258 45.5192 38.9911 47.1033C37.4536 49.0601 37.3139 52.3215 35.0542 54.0686C33.5633 55.2334 33.0974 55.2334 33.0974 55.2334C33.0974 55.2334 36.3355 56.5845 38.9911 55.6993C41.4139 54.884 45.1644 49.8522 45.84 48.9203C46.0264 48.9203 46.2127 48.9436 46.3758 48.9669C48.286 49.2698 51.0349 48.2914 52.0832 47.4993C52.0832 47.4993 53.2013 48.5942 53.8536 48.6408C54.5059 48.6874 55.4144 48.1516 55.4144 48.1516C55.4144 48.1516 54.3428 48.5942 53.807 48.1982C53.2712 47.8022 52.0599 47.1266 52.5025 44.5175C52.9451 41.9084 54.3661 41.2794 54.3661 41.2794C54.3661 41.2794 52.386 43.1897 52.8985 45.8453C52.8985 45.8453 53.0383 42.1414 56.3695 40.4408C56.3695 40.4408 59.6309 42.0715 60.2831 42.7937C60.9354 43.5158 60.9354 43.9584 60.2831 44.5408C59.6309 45.1232 58.9553 45.0533 58.7223 45.4726C58.5826 45.6823 58.4894 45.9152 58.4428 46.1482C58.4428 46.1482 59.4678 45.0766 60.2598 44.9834C60.2598 44.9834 58.932 46.0084 58.4428 46.4976C57.9536 46.9868 54.0633 48.1749 55.0883 45.3794C55.0883 45.3794 53.9002 46.3113 53.9934 47.1266C54.0866 47.9419 55.9036 47.9419 57.0917 47.4294C58.2797 46.9169 60.1667 45.1931 60.5627 45.1698C60.9587 45.1465 61.3314 44.8436 61.215 44.5641C61.0752 44.3078 61.0752 44.005 61.2382 43.7488C61.4246 43.4692 61.1684 42.6073 60.19 41.792ZM38.7582 55.047C36.5218 55.7459 35.0309 55.3033 35.0309 55.3033C35.0309 55.3033 38.4786 54.7675 39.9463 52.9504C39.9463 52.9504 37.244 54.651 35.0309 54.7675C35.0309 54.7675 35.9627 54.4413 36.8014 53.23C37.64 52.0186 37.9428 49.9686 39.5036 47.709C40.5752 46.1715 40.6451 48.0118 42.8582 48.3147C42.2059 48.6641 41.6002 49.0834 41.0644 49.5726C42.2292 49.2698 43.4173 49.0601 44.6053 48.9436C43.79 50.1084 40.6917 54.4181 38.7582 55.047ZM58.1167 43.0732C58.1866 43.0732 58.2564 43.0965 58.303 43.1431C58.1633 42.8635 57.8604 42.7471 57.5809 42.8868C57.3013 43.0266 57.1848 43.3294 57.3246 43.609C57.4644 43.8885 57.7672 44.005 58.0468 43.8652C58.1633 43.8186 58.2564 43.7255 58.303 43.609C58.2564 43.6556 58.1866 43.6789 58.1167 43.6789C57.9536 43.6789 57.8138 43.5391 57.8138 43.376C57.8138 43.213 57.9536 43.0732 58.1167 43.0732ZM7.07645 19.7312C7.00656 19.7312 6.93667 19.7079 6.89008 19.6613C7.02986 19.9409 7.3327 20.0573 7.61224 19.9176C7.89179 19.7778 8.00826 19.475 7.86849 19.1954C7.72872 18.9159 7.42588 18.7994 7.14633 18.9392C7.02986 18.9858 6.93667 19.0789 6.89008 19.1954C6.93667 19.1488 7.00656 19.1255 7.07645 19.1255C7.23951 19.1255 7.37929 19.2653 7.37929 19.4284C7.40258 19.6147 7.26281 19.7312 7.07645 19.7312C7.09974 19.7545 7.09974 19.7545 7.07645 19.7312ZM34.4485 50.0152C36.0093 47.8022 36.8014 48.7107 38.7116 46.3113C40.6218 43.9118 39.2707 40.2777 39.2707 40.2777C39.2707 40.2777 40.2025 44.3311 37.64 45.8919C35.0775 47.4527 33.936 47.9186 33.377 49.0601C33.377 49.0601 34.1224 47.1499 33.0275 45.3328C31.9326 43.5158 29.1605 42.4908 27.6929 42.0715C26.2253 41.6522 25.9224 41.3959 25.5963 39.1596C25.2702 36.9232 23.29 33.8715 20.8673 33.4056C18.4446 32.9397 17.2099 32.6369 17.2099 32.6369C17.2099 32.6369 21.9622 31.9613 24.4548 32.1709C26.9707 32.334 29.277 33.6153 30.7446 35.642C32.3752 37.855 35.0076 38.2278 38.2457 36.7368C38.2457 36.7368 34.3088 38.1113 32.3054 35.7817C31.2804 34.5704 30.3718 33.0795 28.7412 32.0312C29.9059 31.9613 31.0474 31.705 32.1423 31.2857C32.1423 31.2857 31.6997 31.2624 30.1855 30.121C27.9258 28.3738 27.7628 25.1124 26.2486 23.1556C25.0139 21.5715 24.6412 22.5034 23.4065 23.3653C22.8241 23.7846 22.1253 23.971 21.4031 23.9011H21.3798C22.8241 23.3187 24.3849 21.921 23.8724 19.1255C23.3133 16.0505 21.0304 13.9539 21.0304 13.9539C21.0304 13.9539 23.7094 15.0954 24.2917 16.563C24.8741 18.0306 24.5014 20.2903 24.5014 20.2903C24.7577 19.2653 24.8974 18.217 24.8974 17.1687C24.8974 15.3983 23.6162 14.8625 24.0122 13.9306C24.4082 12.9988 25.9224 12.8358 25.9224 12.8358C22.731 12.1835 18.9571 13.7676 18.9571 13.7676C22.1952 14.4431 23.6861 19.7312 23.1037 21.4085C22.6844 22.6431 21.3332 23.3653 20.6577 23.6448C20.3082 23.5284 19.9355 23.4352 19.5628 23.4119C18.7474 23.3886 16.4645 22.1306 15.6492 22.0374C14.8338 21.9443 14.1582 22.6664 14.1582 22.6664C15.7889 21.5715 18.398 23.8079 19.656 23.9011C20.9139 23.9943 22.102 24.8795 22.102 24.8795C20.1219 24.1806 19.0736 24.7164 17.2565 24.4835C15.4395 24.2505 13.5293 22.9693 13.5293 22.9693C13.5293 22.9693 14.298 20.4068 13.2497 18.3801C11.6889 15.3517 10.0583 14.9789 10.0583 14.9789L11.0134 13.8142C11.0134 13.8142 6.02815 17.0056 5.04975 17.8443C4.07134 18.6829 3.81509 19.5448 3.97816 19.871C4.14123 20.1039 4.14123 20.4301 4.00145 20.6863C3.88498 20.9659 4.23441 21.2687 4.65372 21.292C5.07304 21.3153 6.95997 23.0392 8.14804 23.5516C9.3361 24.0641 11.1531 24.0641 11.2463 23.2488C11.3395 22.4335 10.1281 21.4551 10.1281 21.4551C11.1298 24.2505 7.26281 23.0857 6.77361 22.5732C6.2844 22.0607 4.95657 21.059 4.95657 21.059C5.7719 21.1522 6.77361 22.2238 6.77361 22.2238C6.72702 21.9676 6.63383 21.7346 6.49406 21.525C6.26111 21.1289 5.56225 21.1988 4.93327 20.5931C4.30429 19.9875 4.281 19.5448 4.93327 18.846C5.58554 18.1471 8.8469 16.5164 8.8469 16.5164C12.1548 18.217 12.2946 21.921 12.2946 21.921C12.8071 19.2653 10.827 17.3551 10.827 17.3551C10.827 17.3551 12.248 18.0073 12.6906 20.5931C13.1332 23.1789 11.9219 23.8545 11.3861 24.2738C10.8503 24.6931 9.77871 24.2272 9.77871 24.2272C9.77871 24.2272 10.6872 24.763 11.3628 24.7164C12.0384 24.6698 13.1332 23.5749 13.1332 23.5749C14.1815 24.3903 16.9304 25.3454 18.8406 25.0426C19.0037 25.0193 19.1901 24.996 19.3764 24.996C19.9122 25.7414 22.4281 29.1193 24.6645 30.8431C23.6395 30.7965 22.6145 30.8431 21.5895 30.9829C14.4145 31.9147 13.4827 31.6817 13.4827 31.6817C13.4827 31.6817 15.0435 33.9647 17.3264 33.988C19.6094 34.0113 22.0088 34.3141 23.6395 37.7153C25.2702 41.1164 23.7792 42.8402 27.2736 43.609C30.7679 44.3777 33.0974 46.2414 32.1656 48.5942C31.2338 50.947 29.1838 51.1567 27.0406 49.8755C24.8974 48.5942 21.4264 51.7857 21.4264 51.7857C21.4264 51.7857 25.3633 49.8522 27.2736 51.4828C29.1838 53.1135 32.8877 52.2283 34.4485 50.0152ZM20.6111 25.0193C21.7991 25.1357 22.9872 25.3454 24.152 25.6482C23.5929 25.159 22.9872 24.7397 22.3582 24.3903C24.5946 24.0874 24.6412 22.2238 25.7128 23.7846C27.2736 26.021 27.5531 28.0943 28.415 29.3056C29.277 30.517 30.1855 30.8431 30.1855 30.8431C27.9724 30.7266 25.2934 29.0261 25.2934 29.0261C26.7611 30.8431 30.1855 31.3789 30.1855 31.3789C30.1855 31.3789 28.9042 31.7749 26.9241 31.2624C26.8076 31.2391 26.6912 31.1925 26.5747 31.1692L26.4582 31.1227C24.5247 30.4704 21.4031 26.1607 20.6111 25.0193Z" fill="white"/>
</svg>
