<svg width="310" height="264" viewBox="0 0 310 264" fill="none" xmlns="http://www.w3.org/2000/svg">
<g clip-path="url(#clip0_704_1137)">
<rect width="310" height="264" fill="white"/>
<path opacity="0.03" d="M545.811 -74.1702L554.169 49.679L544.895 326.524L388.483 321.284L445.662 152.604L202.261 369.576L31.9389 271.819C147.636 197.887 377.833 51.9975 396.705 44.7218C376.824 47.9404 115.077 77.724 -20.1026 92.9766L62.314 -82.3624L545.811 -74.1702Z" fill="#0E1F2E"/>
<path d="M57.75 73.6C54.5167 73.6 51.75 72.85 49.45 71.35C47.15 69.8167 45.3667 67.7 44.1 65C42.8667 62.2667 42.25 59.1 42.25 55.5C42.25 51.9333 42.8667 48.7833 44.1 46.05C45.3667 43.3167 47.15 41.2 49.45 39.7C51.75 38.1667 54.5167 37.4 57.75 37.4C60.9833 37.4 63.75 38.1667 66.05 39.7C68.35 41.2 70.1167 43.3167 71.35 46.05C72.6167 48.7833 73.25 51.9333 73.25 55.5C73.25 59.1 72.6167 62.2667 71.35 65C70.1167 67.7 68.35 69.8167 66.05 71.35C63.75 72.85 60.9833 73.6 57.75 73.6ZM57.75 67.85C60.3833 67.85 62.5333 66.75 64.2 64.55C65.8667 62.35 66.7 59.3333 66.7 55.5C66.7 51.6667 65.8667 48.65 64.2 46.45C62.5333 44.25 60.3833 43.15 57.75 43.15C55.0833 43.15 52.9167 44.25 51.25 46.45C49.6167 48.65 48.8 51.6667 48.8 55.5C48.8 59.3333 49.6167 62.35 51.25 64.55C52.9167 66.75 55.0833 67.85 57.75 67.85ZM76.8039 73V68.35C78.9372 66.5833 81.0039 64.8333 83.0039 63.1C85.0372 61.3667 86.8372 59.65 88.4039 57.95C90.0039 56.25 91.2706 54.6 92.2039 53C93.1706 51.3667 93.6539 49.7833 93.6539 48.25C93.6539 46.8167 93.2539 45.55 92.4539 44.45C91.6872 43.35 90.4039 42.8 88.6039 42.8C86.7706 42.8 85.3872 43.4 84.4539 44.6C83.5206 45.8 83.0539 47.25 83.0539 48.95H76.8539C76.9206 46.3833 77.4872 44.25 78.5539 42.55C79.6206 40.8167 81.0372 39.5333 82.8039 38.7C84.5706 37.8333 86.5539 37.4 88.7539 37.4C92.3206 37.4 95.0872 38.3833 97.0539 40.35C99.0539 42.2833 100.054 44.8 100.054 47.9C100.054 49.8333 99.6039 51.7167 98.7039 53.55C97.8372 55.3833 96.6872 57.15 95.2539 58.85C93.8206 60.55 92.2706 62.15 90.6039 63.65C88.9372 65.1167 87.3206 66.4833 85.7539 67.75H100.904V73H76.8039ZM107.818 73.35C106.652 73.35 105.685 72.9833 104.918 72.25C104.185 71.5167 103.818 70.6333 103.818 69.6C103.818 68.5333 104.185 67.6333 104.918 66.9C105.685 66.1667 106.652 65.8 107.818 65.8C108.985 65.8 109.935 66.1667 110.668 66.9C111.435 67.6333 111.818 68.5333 111.818 69.6C111.818 70.6333 111.435 71.5167 110.668 72.25C109.935 72.9833 108.985 73.35 107.818 73.35Z" fill="#9745FD"/>
<path d="M47.854 111.252C46.468 111.252 45.257 110.937 44.221 110.307C43.185 109.677 42.38 108.802 41.806 107.682C41.232 106.548 40.945 105.232 40.945 103.734C40.945 102.222 41.239 100.892 41.827 99.744C42.429 98.582 43.276 97.679 44.368 97.035C45.474 96.377 46.783 96.048 48.295 96.048C50.017 96.048 51.445 96.461 52.579 97.287C53.713 98.113 54.448 99.254 54.784 100.71H51.781C51.557 100.024 51.151 99.492 50.563 99.114C49.975 98.722 49.219 98.526 48.295 98.526C46.825 98.526 45.691 98.995 44.893 99.933C44.095 100.857 43.696 102.131 43.696 103.755C43.696 105.379 44.088 106.639 44.872 107.535C45.67 108.417 46.748 108.858 48.106 108.858C49.436 108.858 50.437 108.501 51.109 107.787C51.795 107.059 52.208 106.107 52.348 104.931H48.631V102.915H55.057V111H52.579L52.369 109.068C51.893 109.768 51.298 110.307 50.584 110.685C49.87 111.063 48.96 111.252 47.854 111.252ZM57.1872 111V100.584H59.5812L59.8332 102.537C60.2112 101.865 60.7222 101.333 61.3662 100.941C62.0242 100.535 62.7942 100.332 63.6762 100.332V103.167H62.9202C62.3322 103.167 61.8072 103.258 61.3452 103.44C60.8832 103.622 60.5192 103.937 60.2532 104.385C60.0012 104.833 59.8752 105.456 59.8752 106.254V111H57.1872ZM68.6844 111.252C67.7884 111.252 67.0534 111.112 66.4794 110.832C65.9054 110.538 65.4784 110.153 65.1984 109.677C64.9184 109.201 64.7784 108.676 64.7784 108.102C64.7784 107.136 65.1564 106.352 65.9124 105.75C66.6684 105.148 67.8024 104.847 69.3144 104.847H71.9604V104.595C71.9604 103.881 71.7574 103.356 71.3514 103.02C70.9454 102.684 70.4414 102.516 69.8394 102.516C69.2934 102.516 68.8174 102.649 68.4114 102.915C68.0054 103.167 67.7534 103.545 67.6554 104.049H65.0304C65.1004 103.293 65.3524 102.635 65.7864 102.075C66.2344 101.515 66.8084 101.088 67.5084 100.794C68.2084 100.486 68.9924 100.332 69.8604 100.332C71.3444 100.332 72.5134 100.703 73.3674 101.445C74.2214 102.187 74.6484 103.237 74.6484 104.595V111H72.3594L72.1074 109.32C71.7994 109.88 71.3654 110.342 70.8054 110.706C70.2594 111.07 69.5524 111.252 68.6844 111.252ZM69.2934 109.152C70.0634 109.152 70.6584 108.9 71.0784 108.396C71.5124 107.892 71.7854 107.269 71.8974 106.527H69.6084C68.8944 106.527 68.3834 106.66 68.0754 106.926C67.7674 107.178 67.6134 107.493 67.6134 107.871C67.6134 108.277 67.7674 108.592 68.0754 108.816C68.3834 109.04 68.7894 109.152 69.2934 109.152ZM81.2909 111C80.1989 111 79.3239 110.734 78.6659 110.202C78.0079 109.67 77.6789 108.725 77.6789 107.367V102.831H75.8939V100.584H77.6789L77.9939 97.791H80.3669V100.584H83.1809V102.831H80.3669V107.388C80.3669 107.892 80.4719 108.242 80.6819 108.438C80.9059 108.62 81.2839 108.711 81.8159 108.711H83.1179V111H81.2909ZM86.5178 98.967C86.0278 98.967 85.6218 98.82 85.2998 98.526C84.9918 98.232 84.8378 97.861 84.8378 97.413C84.8378 96.965 84.9918 96.601 85.2998 96.321C85.6218 96.027 86.0278 95.88 86.5178 95.88C87.0078 95.88 87.4068 96.027 87.7148 96.321C88.0368 96.601 88.1978 96.965 88.1978 97.413C88.1978 97.861 88.0368 98.232 87.7148 98.526C87.4068 98.82 87.0078 98.967 86.5178 98.967ZM85.1738 111V100.584H87.8618V111H85.1738ZM94.5524 111.252C93.6284 111.252 92.8164 111.105 92.1164 110.811C91.4164 110.503 90.8564 110.083 90.4364 109.551C90.0164 109.019 89.7644 108.403 89.6804 107.703H92.3894C92.4734 108.109 92.6974 108.459 93.0614 108.753C93.4394 109.033 93.9224 109.173 94.5104 109.173C95.0984 109.173 95.5254 109.054 95.7914 108.816C96.0714 108.578 96.2114 108.305 96.2114 107.997C96.2114 107.549 96.0154 107.248 95.6234 107.094C95.2314 106.926 94.6854 106.765 93.9854 106.611C93.5374 106.513 93.0824 106.394 92.6204 106.254C92.1584 106.114 91.7314 105.939 91.3394 105.729C90.9614 105.505 90.6534 105.225 90.4154 104.889C90.1774 104.539 90.0584 104.112 90.0584 103.608C90.0584 102.684 90.4224 101.907 91.1504 101.277C91.8924 100.647 92.9284 100.332 94.2584 100.332C95.4904 100.332 96.4704 100.619 97.1984 101.193C97.9404 101.767 98.3814 102.558 98.5214 103.566H95.9804C95.8264 102.796 95.2454 102.411 94.2374 102.411C93.7334 102.411 93.3414 102.509 93.0614 102.705C92.7954 102.901 92.6624 103.146 92.6624 103.44C92.6624 103.748 92.8654 103.993 93.2714 104.175C93.6774 104.357 94.2164 104.525 94.8884 104.679C95.6164 104.847 96.2814 105.036 96.8834 105.246C97.4994 105.442 97.9894 105.743 98.3534 106.149C98.7174 106.541 98.8994 107.108 98.8994 107.85C98.9134 108.494 98.7454 109.075 98.3954 109.593C98.0454 110.111 97.5414 110.517 96.8834 110.811C96.2254 111.105 95.4484 111.252 94.5524 111.252ZM110.233 111.252C109.253 111.252 108.378 111.014 107.608 110.538C106.838 110.062 106.229 109.411 105.781 108.585C105.333 107.759 105.109 106.821 105.109 105.771C105.109 104.721 105.333 103.79 105.781 102.978C106.229 102.152 106.838 101.508 107.608 101.046C108.378 100.57 109.253 100.332 110.233 100.332C111.017 100.332 111.703 100.479 112.291 100.773C112.879 101.067 113.355 101.48 113.719 102.012V95.88H116.407V111H114.013L113.719 109.509C113.383 109.971 112.935 110.377 112.375 110.727C111.829 111.077 111.115 111.252 110.233 111.252ZM110.8 108.9C111.668 108.9 112.375 108.613 112.921 108.039C113.481 107.451 113.761 106.702 113.761 105.792C113.761 104.882 113.481 104.14 112.921 103.566C112.375 102.978 111.668 102.684 110.8 102.684C109.946 102.684 109.239 102.971 108.679 103.545C108.119 104.119 107.839 104.861 107.839 105.771C107.839 106.681 108.119 107.43 108.679 108.018C109.239 108.606 109.946 108.9 110.8 108.9ZM122.315 111.252C121.419 111.252 120.684 111.112 120.11 110.832C119.536 110.538 119.109 110.153 118.829 109.677C118.549 109.201 118.409 108.676 118.409 108.102C118.409 107.136 118.787 106.352 119.543 105.75C120.299 105.148 121.433 104.847 122.945 104.847H125.591V104.595C125.591 103.881 125.388 103.356 124.982 103.02C124.576 102.684 124.072 102.516 123.47 102.516C122.924 102.516 122.448 102.649 122.042 102.915C121.636 103.167 121.384 103.545 121.286 104.049H118.661C118.731 103.293 118.983 102.635 119.417 102.075C119.865 101.515 120.439 101.088 121.139 100.794C121.839 100.486 122.623 100.332 123.491 100.332C124.975 100.332 126.144 100.703 126.998 101.445C127.852 102.187 128.279 103.237 128.279 104.595V111H125.99L125.738 109.32C125.43 109.88 124.996 110.342 124.436 110.706C123.89 111.07 123.183 111.252 122.315 111.252ZM122.924 109.152C123.694 109.152 124.289 108.9 124.709 108.396C125.143 107.892 125.416 107.269 125.528 106.527H123.239C122.525 106.527 122.014 106.66 121.706 106.926C121.398 107.178 121.244 107.493 121.244 107.871C121.244 108.277 121.398 108.592 121.706 108.816C122.014 109.04 122.42 109.152 122.924 109.152ZM130.424 111V100.584H132.797L133.007 102.348C133.329 101.732 133.791 101.242 134.393 100.878C135.009 100.514 135.73 100.332 136.556 100.332C137.844 100.332 138.845 100.738 139.559 101.55C140.273 102.362 140.63 103.552 140.63 105.12V111H137.942V105.372C137.942 104.476 137.76 103.79 137.396 103.314C137.032 102.838 136.465 102.6 135.695 102.6C134.939 102.6 134.316 102.866 133.826 103.398C133.35 103.93 133.112 104.672 133.112 105.624V111H130.424ZM147.427 111V96.3H152.866C154.042 96.3 155.015 96.496 155.785 96.888C156.555 97.28 157.129 97.819 157.507 98.505C157.885 99.191 158.074 99.961 158.074 100.815C158.074 101.627 157.892 102.376 157.528 103.062C157.164 103.734 156.597 104.28 155.827 104.7C155.057 105.106 154.07 105.309 152.866 105.309H150.115V111H147.427ZM150.115 103.125H152.698C153.636 103.125 154.308 102.922 154.714 102.516C155.134 102.096 155.344 101.529 155.344 100.815C155.344 100.087 155.134 99.52 154.714 99.114C154.308 98.694 153.636 98.484 152.698 98.484H150.115V103.125ZM159.7 111V100.584H162.094L162.346 102.537C162.724 101.865 163.235 101.333 163.879 100.941C164.537 100.535 165.307 100.332 166.189 100.332V103.167H165.433C164.845 103.167 164.32 103.258 163.858 103.44C163.396 103.622 163.032 103.937 162.766 104.385C162.514 104.833 162.388 105.456 162.388 106.254V111H159.7ZM171.197 111.252C170.301 111.252 169.566 111.112 168.992 110.832C168.418 110.538 167.991 110.153 167.711 109.677C167.431 109.201 167.291 108.676 167.291 108.102C167.291 107.136 167.669 106.352 168.425 105.75C169.181 105.148 170.315 104.847 171.827 104.847H174.473V104.595C174.473 103.881 174.27 103.356 173.864 103.02C173.458 102.684 172.954 102.516 172.352 102.516C171.806 102.516 171.33 102.649 170.924 102.915C170.518 103.167 170.266 103.545 170.168 104.049H167.543C167.613 103.293 167.865 102.635 168.299 102.075C168.747 101.515 169.321 101.088 170.021 100.794C170.721 100.486 171.505 100.332 172.373 100.332C173.857 100.332 175.026 100.703 175.88 101.445C176.734 102.187 177.161 103.237 177.161 104.595V111H174.872L174.62 109.32C174.312 109.88 173.878 110.342 173.318 110.706C172.772 111.07 172.065 111.252 171.197 111.252ZM171.806 109.152C172.576 109.152 173.171 108.9 173.591 108.396C174.025 107.892 174.298 107.269 174.41 106.527H172.121C171.407 106.527 170.896 106.66 170.588 106.926C170.28 107.178 170.126 107.493 170.126 107.871C170.126 108.277 170.28 108.592 170.588 108.816C170.896 109.04 171.302 109.152 171.806 109.152ZM179.306 111V95.88H181.994V104.805L185.69 100.584H188.882L184.619 105.33L189.575 111H186.215L181.994 105.771V111H179.306ZM195.463 111C194.371 111 193.496 110.734 192.838 110.202C192.18 109.67 191.851 108.725 191.851 107.367V102.831H190.066V100.584H191.851L192.166 97.791H194.539V100.584H197.353V102.831H194.539V107.388C194.539 107.892 194.644 108.242 194.854 108.438C195.078 108.62 195.456 108.711 195.988 108.711H197.29V111H195.463ZM200.69 98.967C200.2 98.967 199.794 98.82 199.472 98.526C199.164 98.232 199.01 97.861 199.01 97.413C199.01 96.965 199.164 96.601 199.472 96.321C199.794 96.027 200.2 95.88 200.69 95.88C201.18 95.88 201.579 96.027 201.887 96.321C202.209 96.601 202.37 96.965 202.37 97.413C202.37 97.861 202.209 98.232 201.887 98.526C201.579 98.82 201.18 98.967 200.69 98.967ZM199.346 111V100.584H202.034V111H199.346ZM208.724 111.252C207.8 111.252 206.988 111.105 206.288 110.811C205.588 110.503 205.028 110.083 204.608 109.551C204.188 109.019 203.936 108.403 203.852 107.703H206.561C206.645 108.109 206.869 108.459 207.233 108.753C207.611 109.033 208.094 109.173 208.682 109.173C209.27 109.173 209.697 109.054 209.963 108.816C210.243 108.578 210.383 108.305 210.383 107.997C210.383 107.549 210.187 107.248 209.795 107.094C209.403 106.926 208.857 106.765 208.157 106.611C207.709 106.513 207.254 106.394 206.792 106.254C206.33 106.114 205.903 105.939 205.511 105.729C205.133 105.505 204.825 105.225 204.587 104.889C204.349 104.539 204.23 104.112 204.23 103.608C204.23 102.684 204.594 101.907 205.322 101.277C206.064 100.647 207.1 100.332 208.43 100.332C209.662 100.332 210.642 100.619 211.37 101.193C212.112 101.767 212.553 102.558 212.693 103.566H210.152C209.998 102.796 209.417 102.411 208.409 102.411C207.905 102.411 207.513 102.509 207.233 102.705C206.967 102.901 206.834 103.146 206.834 103.44C206.834 103.748 207.037 103.993 207.443 104.175C207.849 104.357 208.388 104.525 209.06 104.679C209.788 104.847 210.453 105.036 211.055 105.246C211.671 105.442 212.161 105.743 212.525 106.149C212.889 106.541 213.071 107.108 213.071 107.85C213.085 108.494 212.917 109.075 212.567 109.593C212.217 110.111 211.713 110.517 211.055 110.811C210.397 111.105 209.62 111.252 208.724 111.252Z" fill="#0E1F2E"/>
</g>
<defs>
<clipPath id="clip0_704_1137">
<rect width="310" height="264" fill="white"/>
</clipPath>
</defs>
</svg>
