<svg width="170" height="56" viewBox="0 0 170 56" fill="none" xmlns="http://www.w3.org/2000/svg">
<path d="M69.9763 34.3368C68.6248 33.5745 67.5083 32.4408 66.7835 31.0725C66 29.6065 65.6083 27.9645 65.6475 26.303C65.6083 24.622 66.0196 22.9409 66.8423 21.4554C67.5866 20.0871 68.7227 18.9534 70.0743 18.191C71.465 17.4092 73.032 17.0182 74.6382 17.0378C75.8331 17.0182 77.0279 17.1746 78.164 17.5264C79.1826 17.8587 80.162 18.3279 81.063 18.8947C81.2197 18.9729 81.3372 19.1097 81.4352 19.2466C81.5331 19.4225 81.5919 19.618 81.5919 19.8134C81.6115 20.3803 81.1414 20.8494 80.5733 20.869C80.5537 20.869 80.5341 20.869 80.495 20.869C80.2991 20.869 80.1228 20.8299 79.9465 20.7321C79.1826 20.263 78.3599 19.9112 77.5176 19.6375C76.6558 19.3834 75.7743 19.2661 74.8929 19.2857C73.6588 19.2661 72.4444 19.5593 71.3671 20.1066C70.3289 20.654 69.4671 21.4945 68.899 22.5109C68.3114 23.5665 68.0176 24.8175 68.0176 26.2835C67.998 27.5345 68.2918 28.766 68.8598 29.8801C69.4083 30.9357 70.2506 31.7957 71.2887 32.3821C72.3465 32.9881 73.6001 33.3009 75.0496 33.3009C76.6166 33.3009 78.164 32.9295 79.5548 32.1671V27.4954H75.3042C74.7166 27.4758 74.2661 26.9676 74.2856 26.4008C74.3052 25.8534 74.7557 25.4039 75.3042 25.3843H80.397C81.0826 25.3843 81.6311 25.9316 81.6311 26.6158C81.6311 26.6158 81.6311 26.6158 81.6311 26.6353V32.4799C81.6311 32.8122 81.5331 33.164 81.3568 33.4377C81.1805 33.7113 80.9455 33.9264 80.6517 34.0632C78.83 35.0014 76.7929 35.4901 74.7362 35.5097C73.0516 35.5292 71.4258 35.1383 69.9763 34.3368Z" fill="white"/>
<path d="M86.1362 35.0404C85.9208 34.8254 85.8032 34.5322 85.8032 34.2194V23.1754C85.8032 22.8626 85.9208 22.5694 86.1362 22.3349C86.3517 22.1003 86.6455 21.983 86.9589 21.983C87.6053 21.983 88.1342 22.5108 88.1538 23.1754V24.2895C89.3486 22.6867 90.7002 21.8657 92.1888 21.8657H92.3259C92.6393 21.8657 92.9332 21.983 93.129 22.198C93.3445 22.413 93.462 22.7062 93.4424 23.019C93.462 23.3122 93.3249 23.6054 93.1095 23.8204C92.8744 24.0354 92.561 24.1332 92.2476 24.1332H92.1105C91.3074 24.1332 90.5239 24.3286 89.8383 24.7391C89.1331 25.1496 88.5455 25.7165 88.1146 26.4006V34.239C88.1146 34.5517 87.9971 34.8449 87.762 35.0599C87.5465 35.275 87.2331 35.3922 86.9197 35.3922C86.6455 35.3727 86.3517 35.2554 86.1362 35.0404Z" fill="white"/>
<path d="M97.6145 34.6495C96.6155 34.0826 95.8124 33.2616 95.3032 32.2452C94.7547 31.131 94.4609 29.9191 94.5001 28.6681C94.4805 27.4366 94.7547 26.2052 95.3032 25.091C95.8124 24.0746 96.6155 23.234 97.6145 22.6867C99.7888 21.553 102.374 21.553 104.549 22.6867C105.548 23.2536 106.351 24.0746 106.88 25.091C107.448 26.1856 107.722 27.4171 107.702 28.6681C107.722 29.8996 107.448 31.131 106.88 32.2452C106.351 33.2616 105.548 34.1022 104.549 34.6495C102.374 35.7832 99.7888 35.7832 97.6145 34.6495ZM103.119 32.8707C103.785 32.5189 104.353 31.9911 104.725 31.3265C105.136 30.6228 105.352 29.7236 105.352 28.6485C105.352 27.5735 105.136 26.6743 104.725 25.9902C104.353 25.3256 103.804 24.7978 103.119 24.4655C102.492 24.1527 101.787 23.9964 101.101 23.9964C100.396 23.9964 99.6908 24.1527 99.0444 24.4655C98.3784 24.7978 97.83 25.3451 97.4578 25.9902C97.0465 26.6939 96.831 27.5735 96.831 28.6485C96.831 29.7041 97.0465 30.6032 97.4578 31.3265C97.83 31.9911 98.3784 32.5189 99.0444 32.8707C99.6712 33.203 100.376 33.3594 101.101 33.3594C101.806 33.3594 102.492 33.203 103.119 32.8707Z" fill="white"/>
<path d="M113.794 35.0603C113.52 34.8649 113.324 34.5912 113.226 34.2784L109.563 23.5667C109.524 23.4299 109.485 23.2735 109.485 23.1367C109.485 22.5112 109.994 21.9834 110.621 21.9834H110.641C110.876 21.9834 111.111 22.042 111.287 22.1789C111.463 22.2962 111.6 22.4721 111.679 22.6871L114.695 32.5974L117.692 22.9217C117.908 22.218 118.652 21.827 119.357 22.0616C119.768 22.1984 120.101 22.5112 120.219 22.9217L123.216 32.5974L126.272 22.6871C126.35 22.4721 126.487 22.2962 126.663 22.1789C126.859 22.042 127.094 21.9834 127.329 21.9834C127.956 21.9834 128.485 22.4916 128.485 23.1171V23.1367C128.485 23.293 128.465 23.4299 128.407 23.5667L124.744 34.298C124.646 34.6107 124.45 34.8844 124.176 35.0799C123.627 35.4904 122.863 35.4904 122.315 35.0799C122.041 34.8844 121.845 34.5912 121.727 34.2784L118.985 25.756L116.243 34.2784C116.125 34.5912 115.929 34.8649 115.655 35.0799C115.107 35.4904 114.343 35.4904 113.794 35.0603Z" fill="white"/>
<path d="M132.559 32.1087V24.1336H130.737C130.6 24.1336 130.483 24.0945 130.385 23.9967C130.287 23.899 130.248 23.7817 130.248 23.6449C130.248 23.469 130.346 23.3126 130.483 23.2149L133.989 19.7941C134.107 19.6573 134.263 19.5791 134.42 19.5596C134.557 19.5596 134.675 19.6182 134.773 19.7159C134.871 19.8137 134.91 19.9505 134.91 20.0678V22.1202H137.828C138.396 22.1202 138.847 22.5698 138.827 23.1367C138.827 23.3908 138.729 23.6449 138.553 23.8404C138.357 24.0358 138.102 24.1531 137.828 24.1336H134.91V31.9133C134.91 32.5779 135.066 33.0079 135.38 33.1838C135.752 33.3793 136.163 33.477 136.575 33.4575C136.927 33.4575 137.28 33.3988 137.613 33.3011L137.828 33.2425C137.926 33.2229 138.024 33.2229 138.122 33.2229C138.357 33.2229 138.592 33.3206 138.768 33.4966C138.945 33.6725 139.062 33.9071 139.043 34.1612C139.043 34.5521 138.808 34.904 138.455 35.0603C137.789 35.3731 137.045 35.5295 136.32 35.5295C133.813 35.5099 132.559 34.3762 132.559 32.1087Z" fill="white"/>
<path d="M141.824 19.0512C141.569 18.8166 141.432 18.4648 141.432 18.1325V18.0347C141.432 17.3115 142.02 16.7251 142.745 16.7251H142.901C143.626 16.7251 144.214 17.3115 144.214 18.0347V18.1325C144.214 18.8557 143.626 19.4421 142.901 19.4617H142.745C142.392 19.4421 142.059 19.3053 141.824 19.0512ZM141.981 35.0406C141.765 34.8256 141.648 34.5324 141.648 34.2197V23.1756C141.648 22.8629 141.765 22.5696 141.981 22.3351C142.196 22.1005 142.49 21.9832 142.804 21.9832C143.43 21.9637 143.979 22.4524 143.998 23.0974C143.998 23.117 143.998 23.1365 143.998 23.1756V34.2197C143.998 34.5324 143.881 34.8256 143.646 35.0406C143.43 35.2556 143.117 35.3729 142.804 35.3729C142.49 35.3925 142.196 35.2556 141.981 35.0406Z" fill="white"/>
<path d="M149.385 35.0406C149.169 34.8256 149.052 34.5324 149.052 34.2196V24.1334H147.524C146.976 24.1334 146.525 23.6838 146.525 23.1365C146.525 22.8628 146.623 22.6087 146.819 22.4132C147.015 22.2373 147.269 22.12 147.524 22.1396H149.052V20.6149C149.052 19.5789 149.228 18.7384 149.6 18.0738C149.933 17.4678 150.423 16.9596 151.05 16.6273C151.638 16.3341 152.264 16.1777 152.911 16.1777C153.694 16.1777 154.458 16.3537 155.163 16.7055C155.34 16.7837 155.477 16.9205 155.594 17.0769C155.712 17.2333 155.771 17.4092 155.771 17.6047C155.771 17.8588 155.673 18.1129 155.477 18.2888C155.3 18.4843 155.065 18.582 154.811 18.582C154.615 18.582 154.419 18.5625 154.223 18.5038C153.812 18.4452 153.577 18.4256 153.518 18.4256C152.813 18.4256 152.284 18.582 151.931 18.9143C151.579 19.2466 151.402 19.833 151.402 20.6931V22.1005H154.634C155.203 22.1005 155.653 22.5501 155.633 23.1169C155.633 23.371 155.536 23.6251 155.359 23.8206C155.163 24.0161 154.909 24.1334 154.634 24.1138H151.402V34.2196C151.402 34.5324 151.285 34.8256 151.05 35.0406C150.834 35.2556 150.521 35.3729 150.208 35.3729C149.894 35.3924 149.6 35.2556 149.385 35.0406Z" fill="white"/>
<path d="M160.08 40.9635C159.864 40.7485 159.767 40.4553 159.767 40.1621C159.767 40.0253 159.786 39.8884 159.845 39.7516L161.529 35.4513L156.672 23.6644C156.613 23.5081 156.574 23.3517 156.574 23.1758C156.574 22.863 156.691 22.5698 156.907 22.3352C157.122 22.1202 157.416 21.9834 157.729 21.9834C157.964 21.9834 158.2 22.0616 158.395 22.1984C158.591 22.3157 158.728 22.5112 158.826 22.7066L162.803 32.5388L166.857 22.7653C167.073 22.2375 167.445 21.9834 167.935 21.9834C168.248 21.9834 168.542 22.1007 168.757 22.3352C168.973 22.5503 169.09 22.863 169.09 23.1758C169.09 23.3321 169.071 23.469 169.012 23.6058L161.96 40.4944C161.725 41.0222 161.353 41.2958 160.883 41.2958C160.57 41.2958 160.276 41.1785 160.08 40.9635Z" fill="white"/>
<path d="M24.9637 4C11.6832 4 0.909912 14.7508 0.909912 28.0037C0.909912 34.0437 3.18209 39.8492 7.29552 44.2863L12.3883 39.2041L13.7399 40.5529L15.542 38.7545H30.7225C28.6853 39.9274 26.3544 40.5529 24.0039 40.5529H13.7203L8.62748 45.6351C18.3822 54.6267 33.6019 54.0207 42.6122 44.2668C51.6226 34.5128 51.0154 19.3444 41.2411 10.3528C36.8142 6.26745 30.9967 4 24.9637 4ZM12.3883 39.2041V28.981C12.4079 21.5141 18.4605 15.4741 25.9431 15.4545H36.1874L12.3883 39.2041ZM33.1513 36.9562H17.3244L19.1265 35.1579H34.7967C34.307 35.8225 33.7586 36.4089 33.1513 36.9562ZM35.9328 33.3791H20.909L22.7111 31.5808H36.7359C36.5204 32.2063 36.2462 32.7927 35.9328 33.3791ZM37.2452 29.7825H24.5131L26.4719 27.8278H37.4998C37.4606 28.4924 37.3823 29.1374 37.2452 29.7825ZM37.539 26.0099H28.2936L30.1152 24.192H37.539V26.0099ZM37.539 22.3546H31.9565L33.5039 20.8104H37.539V22.3546ZM37.539 19.0316H35.2864L37.539 16.7837V19.0316Z" fill="white"/>
</svg>
