<svg width="392" height="264" viewBox="0 0 392 264" fill="none" xmlns="http://www.w3.org/2000/svg">
<g clip-path="url(#clip0_215_5843)">
<rect width="392" height="264" fill="white"/>
<path opacity="0.03" d="M-9.5 372L-22 248.5V-28.5H134.5L83 142L319 -83L492.5 9C379.343 86.7647 154.16 240.279 135.541 248.183C155.304 244.3 415.907 205.77 550.5 186L474 364L-9.5 372Z" fill="#0E1F2E"/>
<path d="M55.75 73.6C53.35 73.6 51.1833 73.1833 49.25 72.35C47.3167 71.4833 45.7667 70.2667 44.6 68.7C43.4667 67.1333 42.9 65.3167 42.9 63.25C42.9 61.1167 43.45 59.25 44.55 57.65C45.6833 56.05 47.1667 54.9 49 54.2C47.4 53.5 46.1333 52.5 45.2 51.2C44.2667 49.8667 43.8 48.3833 43.8 46.75C43.8 45.0833 44.25 43.55 45.15 42.15C46.05 40.7167 47.3833 39.5667 49.15 38.7C50.95 37.8333 53.15 37.4 55.75 37.4C58.35 37.4 60.5333 37.8333 62.3 38.7C64.0667 39.5667 65.4 40.7167 66.3 42.15C67.2 43.55 67.65 45.0833 67.65 46.75C67.65 48.35 67.1667 49.8333 66.2 51.2C65.2667 52.5333 64.0167 53.5333 62.45 54.2C64.3167 54.9 65.8 56.05 66.9 57.65C68 59.25 68.55 61.1167 68.55 63.25C68.55 65.3167 67.9833 67.1333 66.85 68.7C65.7167 70.2667 64.1667 71.4833 62.2 72.35C60.2667 73.1833 58.1167 73.6 55.75 73.6ZM55.75 52.3C57.4833 52.3 58.85 51.85 59.85 50.95C60.85 50.05 61.35 48.9 61.35 47.5C61.35 45.9667 60.85 44.7667 59.85 43.9C58.8833 43.0333 57.5167 42.6 55.75 42.6C53.95 42.6 52.5667 43.0333 51.6 43.9C50.6333 44.7667 50.15 45.9667 50.15 47.5C50.15 48.9333 50.6333 50.1 51.6 51C52.6 51.8667 53.9833 52.3 55.75 52.3ZM55.75 68.25C57.8833 68.25 59.5 67.7333 60.6 66.7C61.7 65.6333 62.25 64.3 62.25 62.7C62.25 60.9333 61.6667 59.55 60.5 58.55C59.3667 57.55 57.7833 57.05 55.75 57.05C53.7167 57.05 52.1 57.55 50.9 58.55C49.7333 59.55 49.15 60.9333 49.15 62.7C49.15 64.3 49.7 65.6333 50.8 66.7C51.9333 67.7333 53.5833 68.25 55.75 68.25ZM88.1953 73.6C84.962 73.6 82.1953 72.85 79.8953 71.35C77.5953 69.8167 75.812 67.7 74.5453 65C73.312 62.2667 72.6953 59.1 72.6953 55.5C72.6953 51.9333 73.312 48.7833 74.5453 46.05C75.812 43.3167 77.5953 41.2 79.8953 39.7C82.1953 38.1667 84.962 37.4 88.1953 37.4C91.4286 37.4 94.1953 38.1667 96.4953 39.7C98.7953 41.2 100.562 43.3167 101.795 46.05C103.062 48.7833 103.695 51.9333 103.695 55.5C103.695 59.1 103.062 62.2667 101.795 65C100.562 67.7 98.7953 69.8167 96.4953 71.35C94.1953 72.85 91.4286 73.6 88.1953 73.6ZM88.1953 67.85C90.8286 67.85 92.9786 66.75 94.6453 64.55C96.312 62.35 97.1453 59.3333 97.1453 55.5C97.1453 51.6667 96.312 48.65 94.6453 46.45C92.9786 44.25 90.8286 43.15 88.1953 43.15C85.5286 43.15 83.362 44.25 81.6953 46.45C80.062 48.65 79.2453 51.6667 79.2453 55.5C79.2453 59.3333 80.062 62.35 81.6953 64.55C83.362 66.75 85.5286 67.85 88.1953 67.85ZM122.693 73.6C119.46 73.6 116.693 72.85 114.393 71.35C112.093 69.8167 110.31 67.7 109.043 65C107.81 62.2667 107.193 59.1 107.193 55.5C107.193 51.9333 107.81 48.7833 109.043 46.05C110.31 43.3167 112.093 41.2 114.393 39.7C116.693 38.1667 119.46 37.4 122.693 37.4C125.927 37.4 128.693 38.1667 130.993 39.7C133.293 41.2 135.06 43.3167 136.293 46.05C137.56 48.7833 138.193 51.9333 138.193 55.5C138.193 59.1 137.56 62.2667 136.293 65C135.06 67.7 133.293 69.8167 130.993 71.35C128.693 72.85 125.927 73.6 122.693 73.6ZM122.693 67.85C125.327 67.85 127.477 66.75 129.143 64.55C130.81 62.35 131.643 59.3333 131.643 55.5C131.643 51.6667 130.81 48.65 129.143 46.45C127.477 44.25 125.327 43.15 122.693 43.15C120.027 43.15 117.86 44.25 116.193 46.45C114.56 48.65 113.743 51.6667 113.743 55.5C113.743 59.3333 114.56 62.35 116.193 64.55C117.86 66.75 120.027 67.85 122.693 67.85ZM157.191 73.6C153.958 73.6 151.191 72.85 148.891 71.35C146.591 69.8167 144.808 67.7 143.541 65C142.308 62.2667 141.691 59.1 141.691 55.5C141.691 51.9333 142.308 48.7833 143.541 46.05C144.808 43.3167 146.591 41.2 148.891 39.7C151.191 38.1667 153.958 37.4 157.191 37.4C160.425 37.4 163.191 38.1667 165.491 39.7C167.791 41.2 169.558 43.3167 170.791 46.05C172.058 48.7833 172.691 51.9333 172.691 55.5C172.691 59.1 172.058 62.2667 170.791 65C169.558 67.7 167.791 69.8167 165.491 71.35C163.191 72.85 160.425 73.6 157.191 73.6ZM157.191 67.85C159.825 67.85 161.975 66.75 163.641 64.55C165.308 62.35 166.141 59.3333 166.141 55.5C166.141 51.6667 165.308 48.65 163.641 46.45C161.975 44.25 159.825 43.15 157.191 43.15C154.525 43.15 152.358 44.25 150.691 46.45C149.058 48.65 148.241 51.6667 148.241 55.5C148.241 59.3333 149.058 62.35 150.691 64.55C152.358 66.75 154.525 67.85 157.191 67.85ZM176.739 61.2V55.85H186.139V47.2H191.589V55.85H200.939V61.2H191.589V69.85H186.139V61.2H176.739Z" fill="#0E1F2E"/>
<path d="M41.428 111V96.3H44.116V102.411H50.71V96.3H53.398V111H50.71V104.595H44.116V111H41.428ZM59.3631 111.252C58.4671 111.252 57.7321 111.112 57.1581 110.832C56.5841 110.538 56.1571 110.153 55.8771 109.677C55.5971 109.201 55.4571 108.676 55.4571 108.102C55.4571 107.136 55.8351 106.352 56.5911 105.75C57.3471 105.148 58.4811 104.847 59.9931 104.847H62.6391V104.595C62.6391 103.881 62.4361 103.356 62.0301 103.02C61.6241 102.684 61.1201 102.516 60.5181 102.516C59.9721 102.516 59.4961 102.649 59.0901 102.915C58.6841 103.167 58.4321 103.545 58.3341 104.049H55.7091C55.7791 103.293 56.0311 102.635 56.4651 102.075C56.9131 101.515 57.4871 101.088 58.1871 100.794C58.8871 100.486 59.6711 100.332 60.5391 100.332C62.0231 100.332 63.1921 100.703 64.0461 101.445C64.9001 102.187 65.3271 103.237 65.3271 104.595V111H63.0381L62.7861 109.32C62.4781 109.88 62.0441 110.342 61.4841 110.706C60.9381 111.07 60.2311 111.252 59.3631 111.252ZM59.9721 109.152C60.7421 109.152 61.3371 108.9 61.7571 108.396C62.1911 107.892 62.4641 107.269 62.5761 106.527H60.2871C59.5731 106.527 59.0621 106.66 58.7541 106.926C58.4461 107.178 58.2921 107.493 58.2921 107.871C58.2921 108.277 58.4461 108.592 58.7541 108.816C59.0621 109.04 59.4681 109.152 59.9721 109.152ZM67.4723 115.62V100.584H69.8663L70.1603 102.075C70.4963 101.613 70.9373 101.207 71.4833 100.857C72.0433 100.507 72.7643 100.332 73.6463 100.332C74.6263 100.332 75.5013 100.57 76.2713 101.046C77.0413 101.522 77.6503 102.173 78.0983 102.999C78.5463 103.825 78.7703 104.763 78.7703 105.813C78.7703 106.863 78.5463 107.801 78.0983 108.627C77.6503 109.439 77.0413 110.083 76.2713 110.559C75.5013 111.021 74.6263 111.252 73.6463 111.252C72.8623 111.252 72.1763 111.105 71.5883 110.811C71.0003 110.517 70.5243 110.104 70.1603 109.572V115.62H67.4723ZM73.0793 108.9C73.9333 108.9 74.6403 108.613 75.2003 108.039C75.7603 107.465 76.0403 106.723 76.0403 105.813C76.0403 104.903 75.7603 104.154 75.2003 103.566C74.6403 102.978 73.9333 102.684 73.0793 102.684C72.2113 102.684 71.4973 102.978 70.9373 103.566C70.3913 104.14 70.1183 104.882 70.1183 105.792C70.1183 106.702 70.3913 107.451 70.9373 108.039C71.4973 108.613 72.2113 108.9 73.0793 108.9ZM80.7515 115.62V100.584H83.1455L83.4395 102.075C83.7755 101.613 84.2165 101.207 84.7625 100.857C85.3225 100.507 86.0435 100.332 86.9255 100.332C87.9055 100.332 88.7805 100.57 89.5505 101.046C90.3205 101.522 90.9295 102.173 91.3775 102.999C91.8255 103.825 92.0495 104.763 92.0495 105.813C92.0495 106.863 91.8255 107.801 91.3775 108.627C90.9295 109.439 90.3205 110.083 89.5505 110.559C88.7805 111.021 87.9055 111.252 86.9255 111.252C86.1415 111.252 85.4555 111.105 84.8675 110.811C84.2795 110.517 83.8035 110.104 83.4395 109.572V115.62H80.7515ZM86.3585 108.9C87.2125 108.9 87.9195 108.613 88.4795 108.039C89.0395 107.465 89.3195 106.723 89.3195 105.813C89.3195 104.903 89.0395 104.154 88.4795 103.566C87.9195 102.978 87.2125 102.684 86.3585 102.684C85.4905 102.684 84.7765 102.978 84.2165 103.566C83.6705 104.14 83.3975 104.882 83.3975 105.792C83.3975 106.702 83.6705 107.451 84.2165 108.039C84.7765 108.613 85.4905 108.9 86.3585 108.9ZM94.3893 115.62L96.8043 110.307H96.1743L92.1213 100.584H95.0403L97.9593 107.913L101.004 100.584H103.86L97.2453 115.62H94.3893ZM115.515 111.252C114.437 111.252 113.464 111.042 112.596 110.622C111.728 110.188 111.035 109.537 110.517 108.669C110.013 107.801 109.761 106.702 109.761 105.372V96.3H112.449V105.393C112.449 106.541 112.722 107.395 113.268 107.955C113.828 108.515 114.598 108.795 115.578 108.795C116.544 108.795 117.307 108.515 117.867 107.955C118.427 107.395 118.707 106.541 118.707 105.393V96.3H121.395V105.372C121.395 106.702 121.129 107.801 120.597 108.669C120.065 109.537 119.351 110.188 118.455 110.622C117.573 111.042 116.593 111.252 115.515 111.252ZM127.96 111.252C127.036 111.252 126.224 111.105 125.524 110.811C124.824 110.503 124.264 110.083 123.844 109.551C123.424 109.019 123.172 108.403 123.088 107.703H125.797C125.881 108.109 126.105 108.459 126.469 108.753C126.847 109.033 127.33 109.173 127.918 109.173C128.506 109.173 128.933 109.054 129.199 108.816C129.479 108.578 129.619 108.305 129.619 107.997C129.619 107.549 129.423 107.248 129.031 107.094C128.639 106.926 128.093 106.765 127.393 106.611C126.945 106.513 126.49 106.394 126.028 106.254C125.566 106.114 125.139 105.939 124.747 105.729C124.369 105.505 124.061 105.225 123.823 104.889C123.585 104.539 123.466 104.112 123.466 103.608C123.466 102.684 123.83 101.907 124.558 101.277C125.3 100.647 126.336 100.332 127.666 100.332C128.898 100.332 129.878 100.619 130.606 101.193C131.348 101.767 131.789 102.558 131.929 103.566H129.388C129.234 102.796 128.653 102.411 127.645 102.411C127.141 102.411 126.749 102.509 126.469 102.705C126.203 102.901 126.07 103.146 126.07 103.44C126.07 103.748 126.273 103.993 126.679 104.175C127.085 104.357 127.624 104.525 128.296 104.679C129.024 104.847 129.689 105.036 130.291 105.246C130.907 105.442 131.397 105.743 131.761 106.149C132.125 106.541 132.307 107.108 132.307 107.85C132.321 108.494 132.153 109.075 131.803 109.593C131.453 110.111 130.949 110.517 130.291 110.811C129.633 111.105 128.856 111.252 127.96 111.252ZM139.33 111.252C138.28 111.252 137.349 111.028 136.537 110.58C135.725 110.132 135.088 109.502 134.626 108.69C134.164 107.878 133.933 106.94 133.933 105.876C133.933 104.798 134.157 103.839 134.605 102.999C135.067 102.159 135.697 101.508 136.495 101.046C137.307 100.57 138.259 100.332 139.351 100.332C140.373 100.332 141.276 100.556 142.06 101.004C142.844 101.452 143.453 102.068 143.887 102.852C144.335 103.622 144.559 104.483 144.559 105.435C144.559 105.589 144.552 105.75 144.538 105.918C144.538 106.086 144.531 106.261 144.517 106.443H136.6C136.656 107.255 136.936 107.892 137.44 108.354C137.958 108.816 138.581 109.047 139.309 109.047C139.855 109.047 140.31 108.928 140.674 108.69C141.052 108.438 141.332 108.116 141.514 107.724H144.244C144.048 108.382 143.719 108.984 143.257 109.53C142.809 110.062 142.249 110.482 141.577 110.79C140.919 111.098 140.17 111.252 139.33 111.252ZM139.351 102.516C138.693 102.516 138.112 102.705 137.608 103.083C137.104 103.447 136.782 104.007 136.642 104.763H141.829C141.787 104.077 141.535 103.531 141.073 103.125C140.611 102.719 140.037 102.516 139.351 102.516ZM146.399 111V100.584H148.793L149.045 102.537C149.423 101.865 149.934 101.333 150.578 100.941C151.236 100.535 152.006 100.332 152.888 100.332V103.167H152.132C151.544 103.167 151.019 103.258 150.557 103.44C150.095 103.622 149.731 103.937 149.465 104.385C149.213 104.833 149.087 105.456 149.087 106.254V111H146.399ZM158.611 111.252C157.687 111.252 156.875 111.105 156.175 110.811C155.475 110.503 154.915 110.083 154.495 109.551C154.075 109.019 153.823 108.403 153.739 107.703H156.448C156.532 108.109 156.756 108.459 157.12 108.753C157.498 109.033 157.981 109.173 158.569 109.173C159.157 109.173 159.584 109.054 159.85 108.816C160.13 108.578 160.27 108.305 160.27 107.997C160.27 107.549 160.074 107.248 159.682 107.094C159.29 106.926 158.744 106.765 158.044 106.611C157.596 106.513 157.141 106.394 156.679 106.254C156.217 106.114 155.79 105.939 155.398 105.729C155.02 105.505 154.712 105.225 154.474 104.889C154.236 104.539 154.117 104.112 154.117 103.608C154.117 102.684 154.481 101.907 155.209 101.277C155.951 100.647 156.987 100.332 158.317 100.332C159.549 100.332 160.529 100.619 161.257 101.193C161.999 101.767 162.44 102.558 162.58 103.566H160.039C159.885 102.796 159.304 102.411 158.296 102.411C157.792 102.411 157.4 102.509 157.12 102.705C156.854 102.901 156.721 103.146 156.721 103.44C156.721 103.748 156.924 103.993 157.33 104.175C157.736 104.357 158.275 104.525 158.947 104.679C159.675 104.847 160.34 105.036 160.942 105.246C161.558 105.442 162.048 105.743 162.412 106.149C162.776 106.541 162.958 107.108 162.958 107.85C162.972 108.494 162.804 109.075 162.454 109.593C162.104 110.111 161.6 110.517 160.942 110.811C160.284 111.105 159.507 111.252 158.611 111.252Z" fill="#0E1F2E"/>
</g>
<defs>
<clipPath id="clip0_215_5843">
<rect width="392" height="264" fill="white"/>
</clipPath>
</defs>
</svg>
