<svg width="310" height="264" viewBox="0 0 310 264" fill="none" xmlns="http://www.w3.org/2000/svg">
<g clip-path="url(#clip0_704_1144)">
<rect width="310" height="264" fill="white"/>
<path opacity="0.03" d="M212.1 496.132L120.407 412.462L-64.3672 206.094L52.2267 101.7L127.591 263.078L153.327 -61.9741L343.955 -109.167C311.525 24.2499 246.163 288.829 237.565 307.137C249.698 291.062 418.148 88.5198 505.234 -15.9895L566.976 167.652L212.1 496.132Z" fill="#0E1F2E"/>
<path d="M57.75 73.6C54.5167 73.6 51.75 72.85 49.45 71.35C47.15 69.8167 45.3667 67.7 44.1 65C42.8667 62.2667 42.25 59.1 42.25 55.5C42.25 51.9333 42.8667 48.7833 44.1 46.05C45.3667 43.3167 47.15 41.2 49.45 39.7C51.75 38.1667 54.5167 37.4 57.75 37.4C60.9833 37.4 63.75 38.1667 66.05 39.7C68.35 41.2 70.1167 43.3167 71.35 46.05C72.6167 48.7833 73.25 51.9333 73.25 55.5C73.25 59.1 72.6167 62.2667 71.35 65C70.1167 67.7 68.35 69.8167 66.05 71.35C63.75 72.85 60.9833 73.6 57.75 73.6ZM57.75 67.85C60.3833 67.85 62.5333 66.75 64.2 64.55C65.8667 62.35 66.7 59.3333 66.7 55.5C66.7 51.6667 65.8667 48.65 64.2 46.45C62.5333 44.25 60.3833 43.15 57.75 43.15C55.0833 43.15 52.9167 44.25 51.25 46.45C49.6167 48.65 48.8 51.6667 48.8 55.5C48.8 59.3333 49.6167 62.35 51.25 64.55C52.9167 66.75 55.0833 67.85 57.75 67.85ZM93.898 73V66.5H76.648V61.4L93.048 38H100.298V60.95H104.898V66.5H100.298V73H93.898ZM83.498 60.95H94.298V45.05L83.498 60.95ZM111.529 73.35C110.363 73.35 109.396 72.9833 108.629 72.25C107.896 71.5167 107.529 70.6333 107.529 69.6C107.529 68.5333 107.896 67.6333 108.629 66.9C109.396 66.1667 110.363 65.8 111.529 65.8C112.696 65.8 113.646 66.1667 114.379 66.9C115.146 67.6333 115.529 68.5333 115.529 69.6C115.529 70.6333 115.146 71.5167 114.379 72.25C113.646 72.9833 112.696 73.35 111.529 73.35Z" fill="#9745FD"/>
<path d="M41.428 111V96.3H44.116V102.243L49.555 96.3H52.873L47.455 102.138L53.02 111H49.723L45.523 104.196L44.116 105.729V111H41.428ZM58.5773 111.252C57.5273 111.252 56.5963 111.028 55.7843 110.58C54.9723 110.132 54.3353 109.502 53.8733 108.69C53.4113 107.878 53.1803 106.94 53.1803 105.876C53.1803 104.798 53.4043 103.839 53.8523 102.999C54.3143 102.159 54.9443 101.508 55.7423 101.046C56.5543 100.57 57.5063 100.332 58.5983 100.332C59.6203 100.332 60.5233 100.556 61.3073 101.004C62.0913 101.452 62.7003 102.068 63.1343 102.852C63.5823 103.622 63.8063 104.483 63.8063 105.435C63.8063 105.589 63.7993 105.75 63.7853 105.918C63.7853 106.086 63.7783 106.261 63.7643 106.443H55.8473C55.9033 107.255 56.1833 107.892 56.6873 108.354C57.2053 108.816 57.8283 109.047 58.5563 109.047C59.1023 109.047 59.5573 108.928 59.9213 108.69C60.2993 108.438 60.5793 108.116 60.7613 107.724H63.4913C63.2953 108.382 62.9663 108.984 62.5043 109.53C62.0563 110.062 61.4963 110.482 60.8243 110.79C60.1663 111.098 59.4173 111.252 58.5773 111.252ZM58.5983 102.516C57.9403 102.516 57.3593 102.705 56.8553 103.083C56.3513 103.447 56.0293 104.007 55.8893 104.763H61.0763C61.0343 104.077 60.7823 103.531 60.3203 103.125C59.8583 102.719 59.2843 102.516 58.5983 102.516ZM69.2381 111.252C68.3421 111.252 67.6071 111.112 67.0331 110.832C66.4591 110.538 66.0321 110.153 65.7521 109.677C65.4721 109.201 65.3321 108.676 65.3321 108.102C65.3321 107.136 65.7101 106.352 66.4661 105.75C67.2221 105.148 68.3561 104.847 69.8681 104.847H72.5141V104.595C72.5141 103.881 72.3111 103.356 71.9051 103.02C71.4991 102.684 70.9951 102.516 70.3931 102.516C69.8471 102.516 69.3711 102.649 68.9651 102.915C68.5591 103.167 68.3071 103.545 68.2091 104.049H65.5841C65.6541 103.293 65.9061 102.635 66.3401 102.075C66.7881 101.515 67.3621 101.088 68.0621 100.794C68.7621 100.486 69.5461 100.332 70.4141 100.332C71.8981 100.332 73.0671 100.703 73.9211 101.445C74.7751 102.187 75.2021 103.237 75.2021 104.595V111H72.9131L72.6611 109.32C72.3531 109.88 71.9191 110.342 71.3591 110.706C70.8131 111.07 70.1061 111.252 69.2381 111.252ZM69.8471 109.152C70.6171 109.152 71.2121 108.9 71.6321 108.396C72.0661 107.892 72.3391 107.269 72.4511 106.527H70.1621C69.4481 106.527 68.9371 106.66 68.6291 106.926C68.3211 107.178 68.1671 107.493 68.1671 107.871C68.1671 108.277 68.3211 108.592 68.6291 108.816C68.9371 109.04 69.3431 109.152 69.8471 109.152ZM77.3472 111V100.584H79.7202L79.9512 101.991C80.2872 101.487 80.7282 101.088 81.2742 100.794C81.8342 100.486 82.4782 100.332 83.2062 100.332C84.8162 100.332 85.9572 100.955 86.6292 102.201C87.0072 101.627 87.5112 101.172 88.1412 100.836C88.7852 100.5 89.4852 100.332 90.2412 100.332C91.5992 100.332 92.6422 100.738 93.3702 101.55C94.0982 102.362 94.4622 103.552 94.4622 105.12V111H91.7742V105.372C91.7742 104.476 91.5992 103.79 91.2492 103.314C90.9132 102.838 90.3882 102.6 89.6742 102.6C88.9462 102.6 88.3582 102.866 87.9102 103.398C87.4762 103.93 87.2592 104.672 87.2592 105.624V111H84.5712V105.372C84.5712 104.476 84.3962 103.79 84.0462 103.314C83.6962 102.838 83.1572 102.6 82.4292 102.6C81.7152 102.6 81.1342 102.866 80.6862 103.398C80.2522 103.93 80.0352 104.672 80.0352 105.624V111H77.3472ZM100.185 111.252C99.2892 111.252 98.5542 111.112 97.9802 110.832C97.4062 110.538 96.9792 110.153 96.6992 109.677C96.4192 109.201 96.2792 108.676 96.2792 108.102C96.2792 107.136 96.6572 106.352 97.4132 105.75C98.1692 105.148 99.3032 104.847 100.815 104.847H103.461V104.595C103.461 103.881 103.258 103.356 102.852 103.02C102.446 102.684 101.942 102.516 101.34 102.516C100.794 102.516 100.318 102.649 99.9122 102.915C99.5062 103.167 99.2542 103.545 99.1562 104.049H96.5312C96.6012 103.293 96.8532 102.635 97.2872 102.075C97.7352 101.515 98.3092 101.088 99.0092 100.794C99.7092 100.486 100.493 100.332 101.361 100.332C102.845 100.332 104.014 100.703 104.868 101.445C105.722 102.187 106.149 103.237 106.149 104.595V111H103.86L103.608 109.32C103.3 109.88 102.866 110.342 102.306 110.706C101.76 111.07 101.053 111.252 100.185 111.252ZM100.794 109.152C101.564 109.152 102.159 108.9 102.579 108.396C103.013 107.892 103.286 107.269 103.398 106.527H101.109C100.395 106.527 99.8842 106.66 99.5762 106.926C99.2682 107.178 99.1142 107.493 99.1142 107.871C99.1142 108.277 99.2682 108.592 99.5762 108.816C99.8842 109.04 100.29 109.152 100.794 109.152ZM108.294 111V100.584H110.667L110.877 102.348C111.199 101.732 111.661 101.242 112.263 100.878C112.879 100.514 113.6 100.332 114.426 100.332C115.714 100.332 116.715 100.738 117.429 101.55C118.143 102.362 118.5 103.552 118.5 105.12V111H115.812V105.372C115.812 104.476 115.63 103.79 115.266 103.314C114.902 102.838 114.335 102.6 113.565 102.6C112.809 102.6 112.186 102.866 111.696 103.398C111.22 103.93 110.982 104.672 110.982 105.624V111H108.294ZM124.242 111.252C123.346 111.252 122.611 111.112 122.037 110.832C121.463 110.538 121.036 110.153 120.756 109.677C120.476 109.201 120.336 108.676 120.336 108.102C120.336 107.136 120.714 106.352 121.47 105.75C122.226 105.148 123.36 104.847 124.872 104.847H127.518V104.595C127.518 103.881 127.315 103.356 126.909 103.02C126.503 102.684 125.999 102.516 125.397 102.516C124.851 102.516 124.375 102.649 123.969 102.915C123.563 103.167 123.311 103.545 123.213 104.049H120.588C120.658 103.293 120.91 102.635 121.344 102.075C121.792 101.515 122.366 101.088 123.066 100.794C123.766 100.486 124.55 100.332 125.418 100.332C126.902 100.332 128.071 100.703 128.925 101.445C129.779 102.187 130.206 103.237 130.206 104.595V111H127.917L127.665 109.32C127.357 109.88 126.923 110.342 126.363 110.706C125.817 111.07 125.11 111.252 124.242 111.252ZM124.851 109.152C125.621 109.152 126.216 108.9 126.636 108.396C127.07 107.892 127.343 107.269 127.455 106.527H125.166C124.452 106.527 123.941 106.66 123.633 106.926C123.325 107.178 123.171 107.493 123.171 107.871C123.171 108.277 123.325 108.592 123.633 108.816C123.941 109.04 124.347 109.152 124.851 109.152ZM132.351 111V100.584H134.724L134.934 102.348C135.256 101.732 135.718 101.242 136.32 100.878C136.936 100.514 137.657 100.332 138.483 100.332C139.771 100.332 140.772 100.738 141.486 101.55C142.2 102.362 142.557 103.552 142.557 105.12V111H139.869V105.372C139.869 104.476 139.687 103.79 139.323 103.314C138.959 102.838 138.392 102.6 137.622 102.6C136.866 102.6 136.243 102.866 135.753 103.398C135.277 103.93 135.039 104.672 135.039 105.624V111H132.351ZM149.354 111V96.3H154.373C156.095 96.3 157.509 96.608 158.615 97.224C159.735 97.826 160.561 98.68 161.093 99.786C161.639 100.878 161.912 102.166 161.912 103.65C161.912 105.134 161.639 106.429 161.093 107.535C160.561 108.627 159.735 109.481 158.615 110.097C157.509 110.699 156.095 111 154.373 111H149.354ZM152.042 108.69H154.247C155.479 108.69 156.452 108.494 157.166 108.102C157.88 107.696 158.391 107.122 158.699 106.38C159.007 105.624 159.161 104.714 159.161 103.65C159.161 102.6 159.007 101.697 158.699 100.941C158.391 100.185 157.88 99.604 157.166 99.198C156.452 98.792 155.479 98.589 154.247 98.589H152.042V108.69ZM167.392 111.252C166.496 111.252 165.761 111.112 165.187 110.832C164.613 110.538 164.186 110.153 163.906 109.677C163.626 109.201 163.486 108.676 163.486 108.102C163.486 107.136 163.864 106.352 164.62 105.75C165.376 105.148 166.51 104.847 168.022 104.847H170.668V104.595C170.668 103.881 170.465 103.356 170.059 103.02C169.653 102.684 169.149 102.516 168.547 102.516C168.001 102.516 167.525 102.649 167.119 102.915C166.713 103.167 166.461 103.545 166.363 104.049H163.738C163.808 103.293 164.06 102.635 164.494 102.075C164.942 101.515 165.516 101.088 166.216 100.794C166.916 100.486 167.7 100.332 168.568 100.332C170.052 100.332 171.221 100.703 172.075 101.445C172.929 102.187 173.356 103.237 173.356 104.595V111H171.067L170.815 109.32C170.507 109.88 170.073 110.342 169.513 110.706C168.967 111.07 168.26 111.252 167.392 111.252ZM168.001 109.152C168.771 109.152 169.366 108.9 169.786 108.396C170.22 107.892 170.493 107.269 170.605 106.527H168.316C167.602 106.527 167.091 106.66 166.783 106.926C166.475 107.178 166.321 107.493 166.321 107.871C166.321 108.277 166.475 108.592 166.783 108.816C167.091 109.04 167.497 109.152 168.001 109.152ZM179.998 111C178.906 111 178.031 110.734 177.373 110.202C176.715 109.67 176.386 108.725 176.386 107.367V102.831H174.601V100.584H176.386L176.701 97.791H179.074V100.584H181.888V102.831H179.074V107.388C179.074 107.892 179.179 108.242 179.389 108.438C179.613 108.62 179.991 108.711 180.523 108.711H181.825V111H179.998ZM187.367 111.252C186.471 111.252 185.736 111.112 185.162 110.832C184.588 110.538 184.161 110.153 183.881 109.677C183.601 109.201 183.461 108.676 183.461 108.102C183.461 107.136 183.839 106.352 184.595 105.75C185.351 105.148 186.485 104.847 187.997 104.847H190.643V104.595C190.643 103.881 190.44 103.356 190.034 103.02C189.628 102.684 189.124 102.516 188.522 102.516C187.976 102.516 187.5 102.649 187.094 102.915C186.688 103.167 186.436 103.545 186.338 104.049H183.713C183.783 103.293 184.035 102.635 184.469 102.075C184.917 101.515 185.491 101.088 186.191 100.794C186.891 100.486 187.675 100.332 188.543 100.332C190.027 100.332 191.196 100.703 192.05 101.445C192.904 102.187 193.331 103.237 193.331 104.595V111H191.042L190.79 109.32C190.482 109.88 190.048 110.342 189.488 110.706C188.942 111.07 188.235 111.252 187.367 111.252ZM187.976 109.152C188.746 109.152 189.341 108.9 189.761 108.396C190.195 107.892 190.468 107.269 190.58 106.527H188.291C187.577 106.527 187.066 106.66 186.758 106.926C186.45 107.178 186.296 107.493 186.296 107.871C186.296 108.277 186.45 108.592 186.758 108.816C187.066 109.04 187.472 109.152 187.976 109.152Z" fill="#0E1F2E"/>
</g>
<defs>
<clipPath id="clip0_704_1144">
<rect width="310" height="264" fill="white"/>
</clipPath>
</defs>
</svg>
