<svg width="412" height="264" viewBox="0 0 412 264" fill="none" xmlns="http://www.w3.org/2000/svg">
<g clip-path="url(#clip0_704_1882)">
<rect width="412" height="264" fill="white"/>
<path opacity="0.03" d="M-9.5 372L-22 248.5V-28.5H134.5L83 142L319 -83L492.5 9C379.343 86.7647 154.16 240.279 135.541 248.183C155.304 244.3 415.907 205.77 550.5 186L474 364L-9.5 372Z" fill="#0E1F2E"/>
<path d="M77.3335 83.9997H35.6668V40.6663H77.3335C78.3335 40.6663 79.0002 39.9997 79.0002 38.9997V35.6663C79.0002 30.9997 75.3335 27.333 70.6668 27.333H40.6668C36.0002 27.333 32.3335 30.9997 32.3335 35.6663V92.333C32.3335 96.9997 36.0002 100.666 40.6668 100.666H70.6668C75.3335 100.666 79.0002 96.9997 79.0002 92.333V85.6663C79.0002 84.6663 78.3335 83.9997 77.3335 83.9997ZM35.6668 35.6663C35.6668 32.833 37.8335 30.6663 40.6668 30.6663H70.6668C73.5002 30.6663 75.6668 32.833 75.6668 35.6663V37.333H35.6668V35.6663ZM75.6668 92.333C75.6668 95.1663 73.5002 97.333 70.6668 97.333H40.6668C37.8335 97.333 35.6668 95.1663 35.6668 92.333V87.333H75.6668V92.333ZM60.6668 93.9997H50.6668V90.6663H60.6668V93.9997ZM77.3335 43.9997C67.1668 43.9997 59.0002 52.1663 59.0002 62.333C59.0002 72.4997 67.1668 80.6663 77.3335 80.6663C87.5002 80.6663 95.6668 72.4997 95.6668 62.333C95.6668 52.1663 87.5002 43.9997 77.3335 43.9997ZM85.5002 66.4997C85.6668 65.1663 85.6668 63.6663 85.6668 62.333C85.6668 60.9997 85.6668 59.4997 85.5002 58.1663C89.8335 59.1663 92.3335 60.9997 92.3335 62.333C92.3335 63.6663 89.8335 65.333 85.5002 66.4997ZM77.3335 77.333C76.0002 77.333 74.3335 74.833 73.1668 70.4997C74.5002 70.6663 76.0002 70.6663 77.3335 70.6663C78.6668 70.6663 80.1668 70.6663 81.5002 70.4997C80.3335 74.833 78.6668 77.333 77.3335 77.333ZM77.3335 67.333C75.6668 67.333 74.0002 67.1663 72.6668 66.9997C72.5002 65.6663 72.3335 63.9997 72.3335 62.333C72.3335 60.6663 72.5002 58.9997 72.6668 57.6663C74.0002 57.4997 75.6668 57.333 77.3335 57.333C79.0002 57.333 80.6668 57.4997 82.0002 57.6663C82.1668 58.9997 82.3335 60.6663 82.3335 62.333C82.3335 63.9997 82.1668 65.6663 82.0002 66.9997C80.6668 67.1663 79.0002 67.333 77.3335 67.333ZM62.3335 62.333C62.3335 60.9997 64.8335 59.333 69.1668 58.1663C69.0002 59.4997 69.0002 60.9997 69.0002 62.333C69.0002 63.6663 69.0002 65.1663 69.1668 66.4997C64.8335 65.333 62.3335 63.6663 62.3335 62.333ZM77.3335 47.333C78.6668 47.333 80.3335 49.833 81.5002 54.1663C80.1668 53.9997 78.6668 53.9997 77.3335 53.9997C76.0002 53.9997 74.5002 53.9997 73.1668 54.1663C74.3335 49.833 76.0002 47.333 77.3335 47.333ZM91.3335 56.833C89.5002 55.9997 87.3335 55.1663 85.0002 54.833C84.5002 52.4997 83.8335 50.333 83.0002 48.4997C86.6668 49.9997 89.6668 52.9997 91.3335 56.833ZM71.8335 48.333C71.0002 50.1663 70.1668 52.333 69.8335 54.6663C67.5002 55.1663 65.3335 55.833 63.5002 56.6663C65.0002 52.9997 68.0002 49.9997 71.8335 48.333ZM63.3335 67.833C65.1668 68.6663 67.3335 69.4997 69.6668 69.833C70.1668 72.1663 70.8335 74.333 71.6668 76.1663C68.0002 74.6663 65.0002 71.6663 63.3335 67.833ZM82.8335 76.333C83.6668 74.4997 84.5002 72.333 84.8335 69.9997C87.1668 69.4997 89.3335 68.833 91.1668 67.9997C89.6668 71.6663 86.6668 74.6663 82.8335 76.333Z" fill="#9745FD"/>
<path d="M34.78 150.336C32.8013 150.336 31.1027 149.916 29.684 149.076C28.2653 148.217 27.1733 147.032 26.408 145.52C25.6427 143.989 25.26 142.225 25.26 140.228C25.26 138.231 25.6427 136.467 26.408 134.936C27.1733 133.405 28.2653 132.211 29.684 131.352C31.1027 130.493 32.8013 130.064 34.78 130.064C37.132 130.064 39.0547 130.652 40.548 131.828C42.06 132.985 43.0027 134.619 43.376 136.728H39.428C39.1853 135.664 38.6627 134.833 37.86 134.236C37.076 133.62 36.0307 133.312 34.724 133.312C32.9133 133.312 31.4947 133.928 30.468 135.16C29.4413 136.392 28.928 138.081 28.928 140.228C28.928 142.375 29.4413 144.064 30.468 145.296C31.4947 146.509 32.9133 147.116 34.724 147.116C36.0307 147.116 37.076 146.836 37.86 146.276C38.6627 145.697 39.1853 144.904 39.428 143.896H43.376C43.0027 145.912 42.06 147.489 40.548 148.628C39.0547 149.767 37.132 150.336 34.78 150.336ZM50.6925 150.336C49.4979 150.336 48.5179 150.149 47.7525 149.776C46.9872 149.384 46.4179 148.871 46.0445 148.236C45.6712 147.601 45.4845 146.901 45.4845 146.136C45.4845 144.848 45.9885 143.803 46.9965 143C48.0045 142.197 49.5165 141.796 51.5325 141.796H55.0605V141.46C55.0605 140.508 54.7899 139.808 54.2485 139.36C53.7072 138.912 53.0352 138.688 52.2325 138.688C51.5045 138.688 50.8699 138.865 50.3285 139.22C49.7872 139.556 49.4512 140.06 49.3205 140.732H45.8205C45.9139 139.724 46.2499 138.847 46.8285 138.1C47.4259 137.353 48.1912 136.784 49.1245 136.392C50.0579 135.981 51.1032 135.776 52.2605 135.776C54.2392 135.776 55.7979 136.271 56.9365 137.26C58.0752 138.249 58.6445 139.649 58.6445 141.46V150H55.5925L55.2565 147.76C54.8459 148.507 54.2672 149.123 53.5205 149.608C52.7925 150.093 51.8499 150.336 50.6925 150.336ZM51.5045 147.536C52.5312 147.536 53.3245 147.2 53.8845 146.528C54.4632 145.856 54.8272 145.025 54.9765 144.036H51.9245C50.9725 144.036 50.2912 144.213 49.8805 144.568C49.4699 144.904 49.2645 145.324 49.2645 145.828C49.2645 146.369 49.4699 146.789 49.8805 147.088C50.2912 147.387 50.8325 147.536 51.5045 147.536ZM67.5013 150C66.0453 150 64.8786 149.645 64.0013 148.936C63.1239 148.227 62.6853 146.967 62.6853 145.156V139.108H60.3053V136.112H62.6853L63.1053 132.388H66.2693V136.112H70.0213V139.108H66.2693V145.184C66.2693 145.856 66.4093 146.323 66.6893 146.584C66.9879 146.827 67.4919 146.948 68.2013 146.948H69.9373V150H67.5013ZM77.3264 150.336C76.1318 150.336 75.1518 150.149 74.3864 149.776C73.6211 149.384 73.0518 148.871 72.6784 148.236C72.3051 147.601 72.1184 146.901 72.1184 146.136C72.1184 144.848 72.6224 143.803 73.6304 143C74.6384 142.197 76.1504 141.796 78.1664 141.796H81.6944V141.46C81.6944 140.508 81.4238 139.808 80.8824 139.36C80.3411 138.912 79.6691 138.688 78.8664 138.688C78.1384 138.688 77.5038 138.865 76.9624 139.22C76.4211 139.556 76.0851 140.06 75.9544 140.732H72.4544C72.5478 139.724 72.8838 138.847 73.4624 138.1C74.0598 137.353 74.8251 136.784 75.7584 136.392C76.6918 135.981 77.7371 135.776 78.8944 135.776C80.8731 135.776 82.4318 136.271 83.5704 137.26C84.7091 138.249 85.2784 139.649 85.2784 141.46V150H82.2264L81.8904 147.76C81.4798 148.507 80.9011 149.123 80.1544 149.608C79.4264 150.093 78.4838 150.336 77.3264 150.336ZM78.1384 147.536C79.1651 147.536 79.9584 147.2 80.5184 146.528C81.0971 145.856 81.4611 145.025 81.6104 144.036H78.5584C77.6064 144.036 76.9251 144.213 76.5144 144.568C76.1038 144.904 75.8984 145.324 75.8984 145.828C75.8984 146.369 76.1038 146.789 76.5144 147.088C76.9251 147.387 77.4664 147.536 78.1384 147.536ZM94.1352 150C92.6792 150 91.5125 149.645 90.6352 148.936C89.7579 148.227 89.3192 146.967 89.3192 145.156V139.108H86.9392V136.112H89.3192L89.7392 132.388H92.9032V136.112H96.6552V139.108H92.9032V145.184C92.9032 145.856 93.0432 146.323 93.3232 146.584C93.6219 146.827 94.1259 146.948 94.8352 146.948H96.5712V150H94.1352ZM103.96 150.336C102.766 150.336 101.786 150.149 101.02 149.776C100.255 149.384 99.6857 148.871 99.3123 148.236C98.939 147.601 98.7523 146.901 98.7523 146.136C98.7523 144.848 99.2563 143.803 100.264 143C101.272 142.197 102.784 141.796 104.8 141.796H108.328V141.46C108.328 140.508 108.058 139.808 107.516 139.36C106.975 138.912 106.303 138.688 105.5 138.688C104.772 138.688 104.138 138.865 103.596 139.22C103.055 139.556 102.719 140.06 102.588 140.732H99.0883C99.1817 139.724 99.5177 138.847 100.096 138.1C100.694 137.353 101.459 136.784 102.392 136.392C103.326 135.981 104.371 135.776 105.528 135.776C107.507 135.776 109.066 136.271 110.204 137.26C111.343 138.249 111.912 139.649 111.912 141.46V150H108.86L108.524 147.76C108.114 148.507 107.535 149.123 106.788 149.608C106.06 150.093 105.118 150.336 103.96 150.336ZM104.772 147.536C105.799 147.536 106.592 147.2 107.152 146.528C107.731 145.856 108.095 145.025 108.244 144.036H105.192C104.24 144.036 103.559 144.213 103.148 144.568C102.738 144.904 102.532 145.324 102.532 145.828C102.532 146.369 102.738 146.789 103.148 147.088C103.559 147.387 104.1 147.536 104.772 147.536ZM114.772 150V136.112H117.936L118.216 138.464C118.646 137.643 119.262 136.989 120.064 136.504C120.886 136.019 121.847 135.776 122.949 135.776C124.666 135.776 126 136.317 126.952 137.4C127.904 138.483 128.38 140.069 128.38 142.16V150H124.796V142.496C124.796 141.301 124.554 140.387 124.068 139.752C123.583 139.117 122.827 138.8 121.8 138.8C120.792 138.8 119.962 139.155 119.308 139.864C118.674 140.573 118.356 141.563 118.356 142.832V150H114.772ZM137.444 150V130.4H141.028V138.324L148.28 130.4H152.704L145.48 138.184L152.9 150H148.504L142.904 140.928L141.028 142.972V150H137.444ZM160.309 150.336C158.909 150.336 157.668 150.037 156.585 149.44C155.503 148.843 154.653 148.003 154.037 146.92C153.421 145.837 153.113 144.587 153.113 143.168C153.113 141.731 153.412 140.452 154.009 139.332C154.625 138.212 155.465 137.344 156.529 136.728C157.612 136.093 158.881 135.776 160.337 135.776C161.7 135.776 162.904 136.075 163.949 136.672C164.995 137.269 165.807 138.091 166.385 139.136C166.983 140.163 167.281 141.311 167.281 142.58C167.281 142.785 167.272 143 167.253 143.224C167.253 143.448 167.244 143.681 167.225 143.924H156.669C156.744 145.007 157.117 145.856 157.789 146.472C158.48 147.088 159.311 147.396 160.281 147.396C161.009 147.396 161.616 147.237 162.101 146.92C162.605 146.584 162.979 146.155 163.221 145.632H166.861C166.6 146.509 166.161 147.312 165.545 148.04C164.948 148.749 164.201 149.309 163.305 149.72C162.428 150.131 161.429 150.336 160.309 150.336ZM160.337 138.688C159.46 138.688 158.685 138.94 158.013 139.444C157.341 139.929 156.912 140.676 156.725 141.684H163.641C163.585 140.769 163.249 140.041 162.633 139.5C162.017 138.959 161.252 138.688 160.337 138.688ZM174.944 150.336C173.208 150.336 171.864 149.795 170.912 148.712C169.978 147.629 169.512 146.043 169.512 143.952V136.112H173.068V143.616C173.068 144.811 173.31 145.725 173.796 146.36C174.281 146.995 175.046 147.312 176.092 147.312C177.081 147.312 177.893 146.957 178.528 146.248C179.181 145.539 179.508 144.549 179.508 143.28V136.112H183.092V150H179.928L179.648 147.648C179.218 148.469 178.593 149.123 177.772 149.608C176.969 150.093 176.026 150.336 174.944 150.336ZM190.999 150.336C189.804 150.336 188.824 150.149 188.059 149.776C187.293 149.384 186.724 148.871 186.351 148.236C185.977 147.601 185.791 146.901 185.791 146.136C185.791 144.848 186.295 143.803 187.303 143C188.311 142.197 189.823 141.796 191.839 141.796H195.367V141.46C195.367 140.508 195.096 139.808 194.555 139.36C194.013 138.912 193.341 138.688 192.539 138.688C191.811 138.688 191.176 138.865 190.635 139.22C190.093 139.556 189.757 140.06 189.627 140.732H186.127C186.22 139.724 186.556 138.847 187.135 138.1C187.732 137.353 188.497 136.784 189.431 136.392C190.364 135.981 191.409 135.776 192.567 135.776C194.545 135.776 196.104 136.271 197.243 137.26C198.381 138.249 198.951 139.649 198.951 141.46V150H195.899L195.563 147.76C195.152 148.507 194.573 149.123 193.827 149.608C193.099 150.093 192.156 150.336 190.999 150.336ZM191.811 147.536C192.837 147.536 193.631 147.2 194.191 146.528C194.769 145.856 195.133 145.025 195.283 144.036H192.231C191.279 144.036 190.597 144.213 190.187 144.568C189.776 144.904 189.571 145.324 189.571 145.828C189.571 146.369 189.776 146.789 190.187 147.088C190.597 147.387 191.139 147.536 191.811 147.536ZM201.811 150V136.112H204.975L205.255 138.464C205.684 137.643 206.3 136.989 207.103 136.504C207.924 136.019 208.886 135.776 209.987 135.776C211.704 135.776 213.039 136.317 213.991 137.4C214.943 138.483 215.419 140.069 215.419 142.16V150H211.835V142.496C211.835 141.301 211.592 140.387 211.107 139.752C210.622 139.117 209.866 138.8 208.839 138.8C207.831 138.8 207 139.155 206.347 139.864C205.712 140.573 205.395 141.563 205.395 142.832V150H201.811ZM224.166 145.856C223.494 145.856 222.869 145.781 222.29 145.632L221.254 146.668C221.571 146.836 222.001 146.976 222.542 147.088C223.083 147.2 223.961 147.312 225.174 147.424C227.022 147.592 228.366 148.031 229.206 148.74C230.046 149.449 230.466 150.429 230.466 151.68C230.466 152.501 230.242 153.276 229.794 154.004C229.346 154.751 228.655 155.348 227.722 155.796C226.789 156.263 225.594 156.496 224.138 156.496C222.159 156.496 220.563 156.123 219.35 155.376C218.137 154.648 217.53 153.547 217.53 152.072C217.53 150.821 218.137 149.739 219.35 148.824C218.977 148.656 218.65 148.479 218.37 148.292C218.109 148.105 217.875 147.909 217.67 147.704V147.06L220.106 144.484C219.023 143.532 218.482 142.309 218.482 140.816C218.482 139.883 218.706 139.033 219.154 138.268C219.621 137.503 220.274 136.896 221.114 136.448C221.954 136 222.971 135.776 224.166 135.776C224.95 135.776 225.678 135.888 226.35 136.112H231.614V138.296L229.234 138.464C229.607 139.173 229.794 139.957 229.794 140.816C229.794 141.749 229.57 142.599 229.122 143.364C228.674 144.129 228.021 144.736 227.162 145.184C226.322 145.632 225.323 145.856 224.166 145.856ZM224.166 143.112C224.894 143.112 225.491 142.916 225.958 142.524C226.443 142.132 226.686 141.572 226.686 140.844C226.686 140.116 226.443 139.556 225.958 139.164C225.491 138.772 224.894 138.576 224.166 138.576C223.401 138.576 222.785 138.772 222.318 139.164C221.851 139.556 221.618 140.116 221.618 140.844C221.618 141.572 221.851 142.132 222.318 142.524C222.785 142.916 223.401 143.112 224.166 143.112ZM220.806 151.708C220.806 152.399 221.123 152.912 221.758 153.248C222.411 153.603 223.205 153.78 224.138 153.78C225.034 153.78 225.762 153.593 226.322 153.22C226.882 152.865 227.162 152.38 227.162 151.764C227.162 151.26 226.975 150.84 226.602 150.504C226.247 150.168 225.529 149.963 224.446 149.888C223.681 149.832 222.971 149.748 222.318 149.636C221.777 149.935 221.385 150.261 221.142 150.616C220.918 150.971 220.806 151.335 220.806 151.708ZM238.456 150.336C237.261 150.336 236.281 150.149 235.516 149.776C234.75 149.384 234.181 148.871 233.808 148.236C233.434 147.601 233.248 146.901 233.248 146.136C233.248 144.848 233.752 143.803 234.76 143C235.768 142.197 237.28 141.796 239.296 141.796H242.824V141.46C242.824 140.508 242.553 139.808 242.012 139.36C241.47 138.912 240.798 138.688 239.996 138.688C239.268 138.688 238.633 138.865 238.092 139.22C237.55 139.556 237.214 140.06 237.084 140.732H233.584C233.677 139.724 234.013 138.847 234.592 138.1C235.189 137.353 235.954 136.784 236.888 136.392C237.821 135.981 238.866 135.776 240.024 135.776C242.002 135.776 243.561 136.271 244.7 137.26C245.838 138.249 246.408 139.649 246.408 141.46V150H243.356L243.02 147.76C242.609 148.507 242.03 149.123 241.284 149.608C240.556 150.093 239.613 150.336 238.456 150.336ZM239.268 147.536C240.294 147.536 241.088 147.2 241.648 146.528C242.226 145.856 242.59 145.025 242.74 144.036H239.688C238.736 144.036 238.054 144.213 237.644 144.568C237.233 144.904 237.028 145.324 237.028 145.828C237.028 146.369 237.233 146.789 237.644 147.088C238.054 147.387 238.596 147.536 239.268 147.536ZM249.268 150V136.112H252.432L252.712 138.464C253.141 137.643 253.757 136.989 254.56 136.504C255.381 136.019 256.342 135.776 257.444 135.776C259.161 135.776 260.496 136.317 261.448 137.4C262.4 138.483 262.876 140.069 262.876 142.16V150H259.292V142.496C259.292 141.301 259.049 140.387 258.564 139.752C258.078 139.117 257.322 138.8 256.296 138.8C255.288 138.8 254.457 139.155 253.804 139.864C253.169 140.573 252.852 141.563 252.852 142.832V150H249.268Z" fill="#0E1F2E"/>
</g>
<defs>
<clipPath id="clip0_704_1882">
<rect width="412" height="264" fill="white"/>
</clipPath>
</defs>
</svg>
