<svg width="2597" height="2812" viewBox="0 0 2597 2812" fill="none" xmlns="http://www.w3.org/2000/svg">
<path d="M1304.5 2812C2018.33 2812 2597 2233.33 2597 1519.5C2597 805.672 2018.33 227 1304.5 227C590.672 227 12 805.672 12 1519.5C12 2233.33 590.672 2812 1304.5 2812Z" fill="#35E1FF"/>
<path d="M1802.1 1561.7C1791.1 1561.7 1782.2 1552.8 1782.2 1541.8V387.2C1782.2 376.2 1791.1 367.3 1802.1 367.3C1813.1 367.3 1822 376.2 1822 387.2V1541.8C1822 1552.8 1813.1 1561.7 1802.1 1561.7Z" fill="#102770"/>
<path d="M1798.9 984.8C1823.6 820.8 2092.8 646.8 2242.1 690.4C2239.2 832.4 1994.1 1038.4 1798.9 984.8Z" fill="#1EBC61"/>
<g opacity="0.55">
<path d="M2241.3 702.2C2240.8 706.3 2240.2 710.5 2239.3 714.7C2095 690.1 1862.6 839.3 1819.3 989.4C1815.2 988.7 1811.1 987.8 1807 986.8C1804.3 986.1 1801.5 985.5 1798.8 984.7C1823.5 820.7 2092.7 646.8 2242 690.3C2242 694.3 2241.8 698.2 2241.3 702.2Z" fill="white"/>
</g>
<g opacity="0.3">
<path d="M2241.3 702.2C2226 841.4 1995.5 1031.4 1807.1 986.9C1804.4 986.2 1801.6 985.6 1798.9 984.8C1799.4 981.7 1799.9 978.6 1800.6 975.4L1874.3 924.1C2023 921.4 2179.7 800.1 2229.6 687.3C2233.8 688.2 2238 689.1 2242.1 690.4C2242 694.3 2241.8 698.2 2241.3 702.2Z" fill="#102770"/>
</g>
<path d="M1864.5 1008.2C1840.3 1008.2 1817 1005.2 1794.9 999.2C1787.6 997.2 1783 990 1784.1 982.6C1796.4 901.1 1868.3 809.4 1971.8 743.3C2070.9 680 2173.5 654.9 2246.3 676.1C2252.8 678 2257.2 684 2257.1 690.8C2255.6 762.5 2196.5 852.2 2106.6 919.3C2029 977.1 1942.7 1008.2 1864.5 1008.2ZM1816.3 973.6C1898.7 990.6 1999.4 961.9 2088.7 895.3C2166.4 837.3 2219.1 762.8 2226.4 701.9C2163 689.2 2073.1 713.9 1987.9 768.4C1897.3 826.3 1832.9 903.7 1816.3 973.6Z" fill="#102770"/>
<path d="M1880.8 912.1L1983.3 916.9L1881.8 932L1880.8 912.1Z" fill="#102770"/>
<path d="M1949.1 867.9L1958.2 807.2L1969 867.6L1949.1 867.9Z" fill="#102770"/>
<g opacity="0.18">
<path d="M2070.1 795.2C2042.2 813.1 2023.8 834.1 2029 842.1C2034.1 850.1 2060.9 842 2088.7 824C2116.6 806.1 2135 785.1 2129.8 777.1C2124.7 769.1 2097.9 777.2 2070.1 795.2Z" fill="white"/>
</g>
<path d="M1798.9 994.7C1795.9 994.7 1793 993.4 1791 990.8C1787.6 986.5 1788.4 980.2 1792.8 976.8C1949.1 855.3 2091.4 760.9 2228 688.2C2232.9 685.6 2238.9 687.5 2241.5 692.3C2244.1 697.2 2242.2 703.2 2237.4 705.8C2101.8 777.9 1960.4 871.7 1805.1 992.5C1803.2 994 1801 994.7 1798.9 994.7Z" fill="#102770"/>
<path d="M1987.2 836.4L2089.7 841.2L1988.3 856.3L1987.2 836.4Z" fill="#102770"/>
<path d="M2046.7 802.8L2055.8 742.1L2066.6 802.5L2046.7 802.8Z" fill="#102770"/>
<path d="M2108.4 756.8L2164.2 773.3L2106.1 776.6L2108.4 756.8Z" fill="#102770"/>
<path d="M1800.1 890.1C1775.4 726.1 1506.2 552.1 1356.9 595.7C1359.7 737.7 1604.9 943.7 1800.1 890.1Z" fill="#1EBC61"/>
<g opacity="0.55">
<path d="M1357.6 607.5C1358.1 611.6 1358.7 615.8 1359.6 620C1503.9 595.4 1736.3 744.6 1779.6 894.7C1783.7 894 1787.8 893.1 1791.9 892.1C1794.6 891.4 1797.4 890.8 1800.1 890C1775.4 726 1506.2 552.1 1356.9 595.6C1356.9 599.6 1357.2 603.5 1357.6 607.5Z" fill="white"/>
</g>
<g opacity="0.3">
<path d="M1357.6 607.5C1372.9 746.7 1603.4 936.7 1791.8 892.2C1794.5 891.5 1797.3 890.9 1800 890.1C1799.5 887 1799 883.9 1798.3 880.7L1724.6 829.4C1575.9 826.7 1419.2 705.4 1369.3 592.6C1365.1 593.5 1360.9 594.4 1356.8 595.7C1356.9 599.6 1357.2 603.5 1357.6 607.5Z" fill="#102770"/>
</g>
<path d="M1734.4 913.5C1656.3 913.5 1570 882.4 1492.4 824.5C1402.4 757.4 1343.4 667.7 1341.9 596C1341.8 589.2 1346.2 583.2 1352.7 581.3C1425.5 560 1528.1 585.2 1627.2 648.5C1730.7 714.7 1802.6 806.4 1814.9 887.8C1816 895.3 1811.4 902.4 1804.1 904.4C1781.9 910.6 1758.5 913.5 1734.4 913.5ZM1372.6 607.2C1379.9 668.1 1432.5 742.6 1510.3 800.6C1599.6 867.2 1700.3 895.9 1782.7 878.9C1766.1 809.1 1701.7 731.6 1611.1 673.7C1525.9 619.2 1436 594.4 1372.6 607.2Z" fill="#102770"/>
<path d="M1717.1 837.3L1615.7 822.2L1718.1 817.4L1717.1 837.3Z" fill="#102770"/>
<path d="M1629.9 772.9L1640.8 712.5L1649.9 773.2L1629.9 772.9Z" fill="#102770"/>
<g opacity="0.18">
<path d="M1570.14 747.293C1575.25 739.353 1556.81 718.368 1528.96 700.421C1501.1 682.474 1474.37 674.361 1469.25 682.301C1464.14 690.24 1482.58 711.226 1510.43 729.173C1538.29 747.12 1565.02 755.232 1570.14 747.293Z" fill="white"/>
</g>
<path d="M1800.1 900C1798 900 1795.8 899.3 1794 897.9C1638.7 777.1 1497.3 683.3 1361.7 611.2C1356.8 608.6 1355 602.6 1357.6 597.7C1360.2 592.8 1366.2 591 1371.1 593.6C1507.7 666.3 1650.1 760.7 1806.3 882.2C1810.6 885.6 1811.4 891.8 1808.1 896.2C1806 898.7 1803 900 1800.1 900Z" fill="#102770"/>
<path d="M1610.7 761.6L1509.2 746.5L1611.7 741.7L1610.7 761.6Z" fill="#102770"/>
<path d="M1532.4 707.8L1543.2 647.4L1552.3 708.1L1532.4 707.8Z" fill="#102770"/>
<path d="M1492.9 681.9L1434.7 678.6L1490.6 662.1L1492.9 681.9Z" fill="#102770"/>
<path d="M2117.5 332.9C2117.5 507.1 1976.3 648.3 1802.1 648.3C1750.9 648.3 1702.6 636.1 1659.8 614.4C1628 598.3 1599.4 577 1574.9 551.6C1563 539.3 1552.2 526.1 1542.5 512C1508.5 463 1488.2 403.9 1486.8 340C1486.7 337.6 1486.7 335.2 1486.7 332.8C1486.7 158.6 1627.9 17.3999 1802.1 17.3999C1820.4 17.3999 1838.3 18.9999 1855.7 21.9999C1917.7 32.5999 1973.5 61.2999 2017.5 102.5C2030 114.2 2041.5 126.9 2051.9 140.4C2073.4 168.2 2090.2 199.6 2101.4 233.6C2111.9 264.8 2117.5 298.3 2117.5 332.9Z" fill="#F7C714"/>
<path d="M1802.1 650.8C1751.6 650.8 1703.4 639.3 1658.7 616.7C1626.9 600.6 1598.1 579.3 1573.2 553.4C1561.4 541.2 1550.4 527.8 1540.6 513.5C1505.2 462.4 1485.8 402.5 1484.4 340.2C1484.3 337.7 1484.3 335.3 1484.3 333C1484.3 157.7 1626.9 15.1001 1802.2 15.1001C1820.4 15.1001 1838.6 16.6001 1856.2 19.7001C1917.4 30.2001 1973.8 58.2001 2019.3 100.8C2031.8 112.6 2043.5 125.4 2054 139C2076 167.5 2092.8 199.1 2103.9 233C2114.6 265.1 2120 298.7 2120 333.1C2120 508.2 1977.4 650.8 1802.1 650.8ZM1802.1 20.0001C1629.6 20.0001 1489.2 160.4 1489.2 332.9C1489.2 335.2 1489.2 337.5 1489.3 339.9C1490.7 401.4 1509.8 460.4 1544.6 510.6C1554.3 524.7 1565.1 537.9 1576.7 549.9C1601.3 575.4 1629.6 596.3 1660.9 612.2C1704.9 634.5 1752.4 645.8 1802.1 645.8C1974.6 645.8 2115 505.4 2115 332.9C2115 299.1 2109.7 266 2099.1 234.4C2088.1 201 2071.6 169.9 2049.9 141.9C2039.6 128.5 2028.1 115.9 2015.7 104.3C1970.9 62.4001 1915.4 34.8001 1855.2 24.5001C1837.9 21.5001 1820 20.0001 1802.1 20.0001Z" fill="#102770"/>
<g opacity="0.55">
<path d="M2117.5 332.9C2117.5 340.8 2117.2 348.6 2116.6 356.4C2104.6 193.2 1968.4 64.4 1802.1 64.4C1635.8 64.4 1499.5 193.1 1487.6 356.4C1487 348.7 1486.7 340.8 1486.7 332.9C1486.7 158.7 1627.9 17.5 1802.1 17.5C1976.3 17.5 2117.5 158.7 2117.5 332.9Z" fill="white"/>
</g>
<path d="M2117.5 332.9C2117.5 507.1 1976.3 648.3 1802.1 648.3C1627.9 648.3 1486.7 507.1 1486.7 332.9C1486.7 317.8 1487.8 303 1489.8 288.5C1511.4 441.7 1643 559.5 1802.1 559.5C1961.2 559.5 2092.8 441.7 2114.4 288.5C2116.4 303 2117.5 317.9 2117.5 332.9Z" fill="#F89E1D"/>
<path d="M1802.1 552.8C1680.8 552.8 1582.2 454.1 1582.2 332.9C1582.2 211.6 1680.9 113 1802.1 113C1923.4 113 2022 211.7 2022 332.9C2022 454.2 1923.4 552.8 1802.1 552.8Z" fill="#F9DD6A"/>
<path d="M1802.1 555.3C1679.5 555.3 1579.7 455.5 1579.7 332.9C1579.7 210.3 1679.5 110.5 1802.1 110.5C1924.7 110.5 2024.5 210.3 2024.5 332.9C2024.5 455.5 1924.7 555.3 1802.1 555.3ZM1802.1 115.5C1682.2 115.5 1584.7 213 1584.7 332.9C1584.7 452.8 1682.2 550.3 1802.1 550.3C1922 550.3 2019.5 452.8 2019.5 332.9C2019.5 213 1922 115.5 1802.1 115.5Z" fill="#102770"/>
<path d="M1880.6 381.1C1880.6 409.9 1863.9 435.5 1828.8 446.4V481.4H1784.2V451.9C1759.5 451.3 1735.7 444.9 1723.5 438.1L1734 395.4C1747.9 402.5 1769.3 409.6 1791.3 409.6C1815.1 409.6 1827.6 399.8 1827.6 384.8C1827.6 370.6 1816.7 362.4 1789.3 352.6C1751.3 339.4 1726.5 318.3 1726.5 285.1C1726.5 253.6 1747.7 228.2 1784.2 219.5V184.4H1828.8V217.1C1846.8 218.7 1860.7 223.1 1871.4 227.9L1859.9 269.7C1850.8 265.3 1834.4 258.8 1812.1 258.8C1789.7 258.8 1778.8 269 1778.8 280.9C1778.8 295.5 1791.7 301.9 1821.2 313.1C1861.7 327.9 1880.6 348.9 1880.6 381.1Z" fill="#102770"/>
<path opacity="0.27" d="M2017.5 102.5L1542.5 512.1C1508.5 463.1 1488.2 404 1486.8 340.1L1855.7 22.1001C1917.7 32.7001 1973.6 61.4001 2017.5 102.5Z" fill="#FCE5E5"/>
<path opacity="0.27" d="M2089 201.8L1646.1 604.3C1614.3 588.2 1599.3 577 1574.8 551.6L2051.8 140.3C2073.4 168.2 2077.8 167.8 2089 201.8Z" fill="#FCE5E5"/>
<g opacity="0.55">
<path d="M2022 332.9C2022 338.8 2021.7 344.7 2021.3 350.5C2012.3 237.4 1917.4 148.1 1802.1 148.1C1686.8 148.1 1591.9 237.4 1582.9 350.5C1582.4 344.7 1582.2 338.8 1582.2 332.9C1582.2 211.6 1680.8 112.9 1802.1 112.9C1923.4 113 2022 211.7 2022 332.9Z" fill="white"/>
</g>
<path d="M1802.1 566C1673.6 566 1569.1 461.5 1569.1 332.9C1569.1 204.4 1673.6 99.8999 1802.1 99.8999C1930.6 99.8999 2035.1 204.4 2035.1 332.9C2035.2 461.4 1930.6 566 1802.1 566ZM1802.1 126.1C1688.1 126.1 1595.3 218.9 1595.3 332.9C1595.3 446.9 1688.1 539.7 1802.1 539.7C1916.1 539.7 2008.9 446.9 2008.9 332.9C2008.9 218.9 1916.1 126.1 1802.1 126.1Z" fill="#102770"/>
<path d="M1802.1 665.8C1749.3 665.8 1698.7 653.8 1651.9 630C1618.6 613.1 1588.4 590.8 1562.3 563.8C1549.9 551 1538.4 537 1528.1 522C1491.1 468.5 1470.7 405.8 1469.3 340.5C1469.2 337.9 1469.2 335.4 1469.2 332.9C1469.2 149.3 1618.5 0 1802.1 0C1821.1 0 1840.2 1.60002 1858.7 4.80002C1922.8 15.8 1981.8 45.1 2029.5 89.7C2042.6 102 2054.8 115.5 2065.8 129.7C2088.8 159.5 2106.4 192.6 2118.1 228.1C2129.3 261.6 2135 296.9 2135 332.9C2135 516.5 1985.7 665.8 1802.1 665.8ZM1802.1 35C1637.9 35 1504.2 168.6 1504.2 332.9C1504.2 335.1 1504.2 337.3 1504.3 339.6C1505.6 398.1 1523.8 454.3 1556.9 502.1C1566.2 515.5 1576.4 528.1 1587.5 539.5C1610.9 563.8 1637.9 583.7 1667.7 598.8C1709.6 620 1754.8 630.8 1802.1 630.8C1966.3 630.8 2100 497.2 2100 332.9C2100 300.7 2094.9 269.2 2084.9 239.1C2074.4 207.3 2058.7 177.7 2038.1 151C2028.3 138.3 2017.3 126.2 2005.5 115.2C1962.9 75.3 1910.1 49 1852.7 39.2C1836.2 36.5 1819.1 35 1802.1 35Z" fill="#102770"/>
<path d="M2532.5 2809.2H17.5C7.8 2809.2 0 2801.4 0 2791.7C0 2782 7.8 2774.2 17.5 2774.2H2532.5C2542.2 2774.2 2550 2782 2550 2791.7C2550 2801.3 2542.2 2809.2 2532.5 2809.2Z" fill="#102770"/>
<path d="M1909.7 1154H1698.3V1779H1909.7V1154Z" fill="#FF5722"/>
<path d="M1909.7 1797H1698.3C1688.3 1797 1680.3 1788.9 1680.3 1779V1154C1680.3 1144 1688.4 1136 1698.3 1136H1909.7C1919.7 1136 1927.7 1144.1 1927.7 1154V1779C1927.7 1788.9 1919.7 1797 1909.7 1797ZM1716.3 1760.9H1891.6V1172H1716.3V1760.9Z" fill="#102770"/>
<path d="M1911.2 1278.1H1696.9C1671.3 1278.1 1650.5 1257.3 1650.5 1231.7V1160.9C1650.5 1135.3 1671.3 1114.5 1696.9 1114.5H1911.2C1936.8 1114.5 1957.6 1135.3 1957.6 1160.9V1231.7C1957.5 1257.4 1936.8 1278.1 1911.2 1278.1Z" fill="white"/>
<g opacity="0.3">
<path d="M1956.5 1241.6C1952 1262.5 1933.4 1278.1 1911.2 1278.1H1696.9C1671.3 1278.1 1650.5 1257.3 1650.5 1231.7V1160.9C1650.5 1139.8 1664.7 1121.9 1684 1116.4V1214.5C1684 1229.5 1696.1 1241.6 1711.1 1241.6H1956.5Z" fill="#102770"/>
</g>
<g opacity="0.55">
<path d="M1957.5 1160.9V1231.7C1957.5 1252.8 1943.3 1270.7 1924 1276.2V1165.1C1924 1153.7 1914.8 1144.5 1903.4 1144.5H1653.5C1660.1 1126.9 1677 1114.5 1696.9 1114.5H1911.2C1936.8 1114.6 1957.5 1135.3 1957.5 1160.9Z" fill="white"/>
</g>
<path d="M1911.2 1296.2H1696.9C1661.4 1296.2 1632.5 1267.3 1632.5 1231.8V1161C1632.5 1125.5 1661.4 1096.6 1696.9 1096.6H1911.2C1946.7 1096.6 1975.6 1125.5 1975.6 1161V1231.8C1975.6 1267.3 1946.7 1296.2 1911.2 1296.2ZM1696.9 1132.6C1681.3 1132.6 1668.6 1145.3 1668.6 1160.9V1231.7C1668.6 1247.3 1681.3 1260 1696.9 1260H1911.2C1926.8 1260 1939.5 1247.3 1939.5 1231.7V1160.9C1939.5 1145.3 1926.8 1132.6 1911.2 1132.6H1696.9Z" fill="#102770"/>
<path d="M1943.5 1827.5V2721.4H737.9V1827.5L1314.4 1188.8L1340.6 1159.8L1531.8 1371.6L1916.2 1797.3L1943.5 1827.5Z" fill="#FFB74D"/>
<path d="M1943.5 2739.4H737.9C727.9 2739.4 719.9 2731.3 719.9 2721.4V1827.5C719.9 1823 721.6 1818.7 724.5 1815.4L1327.3 1147.7C1330.7 1143.9 1335.6 1141.7 1340.7 1141.7C1345.8 1141.7 1350.7 1143.9 1354.1 1147.7L1956.9 1815.4C1959.9 1818.7 1961.5 1823 1961.5 1827.5V2721.4C1961.5 2731.3 1953.4 2739.4 1943.5 2739.4ZM755.9 2703.3H1925.4V1834.4L1340.6 1186.7L755.8 1834.4V2703.3H755.9Z" fill="#102770"/>
<g opacity="0.3">
<path d="M1943.5 1827.5V1998.2L1368.1 1397C1340.9 1368.6 1295.5 1368.6 1268.3 1397L752 1936.5V1818.1L1328.6 1179.4C1343.3 1181.7 1356.9 1188.7 1367.3 1199.6L1531.9 1371.6L1916.3 1797.3L1943.5 1827.5Z" fill="#102770"/>
</g>
<path d="M1264.7 2448.6H889.9C868.2 2448.6 850.6 2431 850.6 2409.3C850.6 2387.6 868.2 2370 889.9 2370H1264.7C1286.4 2370 1304 2387.6 1304 2409.3C1304 2431 1286.4 2448.6 1264.7 2448.6Z" fill="white"/>
<path d="M1264.7 2466.6H889.9C858.3 2466.6 832.6 2440.9 832.6 2409.3C832.6 2377.7 858.3 2352 889.9 2352H1264.7C1296.3 2352 1322 2377.7 1322 2409.3C1322 2440.9 1296.3 2466.6 1264.7 2466.6ZM889.9 2388C878.2 2388 868.6 2397.5 868.6 2409.3C868.6 2421.1 878.1 2430.6 889.9 2430.6H1264.7C1276.4 2430.6 1286 2421.1 1286 2409.3C1286 2397.5 1276.5 2388 1264.7 2388H889.9Z" fill="#102770"/>
<path d="M1264.7 2106.2V2370H879.4V2106.2C879.4 2089.5 892.9 2076.1 909.6 2076.1H1234.6C1251.2 2076.1 1264.7 2089.6 1264.7 2106.2Z" fill="#22A7F0"/>
<path opacity="0.55" d="M1073.6 2076.1L879.4 2316.2V2200.2L979.7 2076.1H1073.6Z" fill="url(#paint0_linear_2803_4613)"/>
<path opacity="0.55" d="M1264.7 2106.2V2111.5L1055.6 2370H896.4L1134.1 2076.1H1234.6C1251.2 2076.1 1264.7 2089.6 1264.7 2106.2Z" fill="url(#paint1_linear_2803_4613)"/>
<g opacity="0.55">
<path d="M1264.7 2106.2V2370H1235.9V2116.7C1235.9 2109.6 1230.1 2103.8 1222.9 2103.8H879.6C880.8 2088.3 893.7 2076.2 909.6 2076.2H1234.6C1251.2 2076.1 1264.7 2089.6 1264.7 2106.2Z" fill="white"/>
</g>
<path d="M1264.7 2385H879.5C871.2 2385 864.5 2378.3 864.5 2370V2106.3C864.5 2081.4 884.7 2061.2 909.6 2061.2H1234.6C1259.5 2061.2 1279.7 2081.4 1279.7 2106.3V2370C1279.7 2378.3 1273 2385 1264.7 2385ZM894.5 2355H1249.7V2106.3C1249.7 2098 1242.9 2091.2 1234.6 2091.2H909.6C901.3 2091.2 894.5 2098 894.5 2106.3V2355Z" fill="#102770"/>
<path d="M1072.1 2382.5C1065.2 2382.5 1059.6 2376.9 1059.6 2370V2076.1C1059.6 2069.2 1065.2 2063.6 1072.1 2063.6C1079 2063.6 1084.6 2069.2 1084.6 2076.1V2370C1084.6 2376.9 1079 2382.5 1072.1 2382.5Z" fill="#102770"/>
<path d="M1264.7 2235.5H879.5C872.6 2235.5 867 2229.9 867 2223C867 2216.1 872.6 2210.5 879.5 2210.5H1264.7C1271.6 2210.5 1277.2 2216.1 1277.2 2223C1277.2 2229.9 1271.6 2235.5 1264.7 2235.5Z" fill="#102770"/>
<path opacity="0.3" d="M1273.3 2441.2L1010.4 2790.1H604.1L867 2441.2H1273.3Z" fill="url(#paint2_linear_2803_4613)"/>
<path d="M2043.9 1945.8C2026 1945.8 2008.1 1938.8 1994.8 1924.8L1340.7 1241.4L686.5 1924.8C660.6 1951.9 617.5 1952.9 590.4 1926.9C563.3 1900.9 562.3 1857.9 588.3 1830.8L1291.5 1096.1C1304.3 1082.7 1322.1 1075.1 1340.6 1075.1C1359.1 1075.1 1376.9 1082.7 1389.7 1096.1L2092.9 1830.8C2118.9 1857.9 2117.9 1900.9 2090.8 1926.9C2077.7 1939.5 2060.8 1945.8 2043.9 1945.8Z" fill="#FF5722"/>
<g opacity="0.3">
<path d="M643.5 1837.9C617.6 1865 618.5 1908.1 645.6 1934C650.3 1938.5 655.4 1942.1 660.8 1945C635.6 1958.3 603.7 1954.8 582 1934C554.9 1908.1 553.9 1865.1 579.9 1837.9L1283.1 1103.1C1295.9 1089.7 1313.6 1082.1 1332.2 1082.1C1343.4 1082.1 1354.3 1084.9 1364 1090C1357.6 1093.3 1351.7 1097.8 1346.6 1103.1L643.5 1837.9Z" fill="#102770"/>
</g>
<g opacity="0.55">
<path d="M2090.9 1926.9C2090.1 1927.7 2089.3 1928.4 2088.5 1929.1C2092.2 1908.5 2086.2 1886.5 2070.7 1870.3L1367.5 1135.5C1354.7 1122.1 1337 1114.5 1318.4 1114.5C1299.9 1114.5 1282.1 1122.1 1269.3 1135.5L570.7 1865.5C573 1852.9 578.9 1840.8 588.4 1830.8L1291.6 1096C1304.4 1082.6 1322.1 1075 1340.7 1075C1359.2 1075 1377 1082.6 1389.8 1096L2093 1830.8C2118.9 1858 2118 1901 2090.9 1926.9Z" fill="white"/>
</g>
<path d="M2043.9 1963.8C2020.2 1963.8 1998.1 1954.4 1981.8 1937.3L1340.7 1267.5L699.5 1937.3C683.6 1953.9 662.2 1963.3 639.3 1963.8C616.3 1964.4 594.5 1955.8 578 1940C561.4 1924.1 552 1902.7 551.5 1879.8C551 1856.8 559.5 1835 575.4 1818.5L1278.6 1083.8C1294.7 1066.9 1317.4 1057.3 1340.7 1057.3C1364 1057.3 1386.7 1067 1402.8 1083.8L2106 1818.5C2121.9 1835.1 2130.4 1856.9 2129.9 1879.8C2129.4 1902.8 2120 1924.2 2103.4 1940C2087.3 1955.3 2066.1 1963.8 2043.9 1963.8ZM1340.7 1223.3C1345.6 1223.3 1350.3 1225.3 1353.7 1228.9L2007.8 1912.3C2017.3 1922.2 2030.1 1927.7 2043.9 1927.7C2056.8 1927.7 2069.1 1922.8 2078.4 1913.8C2088 1904.6 2093.5 1892.2 2093.8 1878.8C2094.1 1865.4 2089.2 1852.8 2080 1843.2L1376.8 1108.5C1367.4 1098.7 1354.3 1093.1 1340.7 1093.1C1327.1 1093.1 1314 1098.7 1304.6 1108.5L601.4 1843.2C592.2 1852.8 587.3 1865.5 587.6 1878.8C587.9 1892.1 593.4 1904.6 603 1913.8C612.6 1923 625.3 1928 638.6 1927.6C651.9 1927.3 664.4 1921.8 673.6 1912.2L1327.7 1228.8C1331 1225.3 1335.7 1223.3 1340.7 1223.3Z" fill="#102770"/>
<g opacity="0.3">
<path d="M1909.7 1327.2L1698.3 1418.5L1696.9 1278.1H1911.2L1909.7 1327.2Z" fill="#102770"/>
</g>
<path d="M1758.8 2114.9V2721.1H1436.8V2114.9C1436.8 2091.8 1455.6 2073.1 1478.6 2073.1H1716.9C1740.1 2073 1758.8 2091.8 1758.8 2114.9Z" fill="#D37C50"/>
<g opacity="0.55">
<path d="M1758.8 2114.9V2721.1H1727V2120.4C1727 2109.9 1718.5 2101.4 1708 2101.4H1439C1444.6 2084.9 1460.2 2073.1 1478.6 2073.1H1716.9C1740.1 2073 1758.8 2091.8 1758.8 2114.9Z" fill="white"/>
</g>
<path d="M1758.8 2739.1H1436.8C1426.8 2739.1 1418.8 2731 1418.8 2721.1V2115C1418.8 2082 1445.7 2055.1 1478.7 2055.1H1717C1750 2055.1 1776.9 2082 1776.9 2115V2721.1C1776.8 2731 1768.8 2739.1 1758.8 2739.1ZM1454.9 2703H1740.8V2114.9C1740.8 2101.8 1730.1 2091.1 1717 2091.1H1478.7C1465.6 2091.1 1454.9 2101.8 1454.9 2114.9V2703Z" fill="#102770"/>
<path d="M1706.18 2375.78C1709.88 2360.14 1700.19 2344.47 1684.55 2340.78C1668.91 2337.08 1653.24 2346.77 1649.54 2362.41C1645.85 2378.05 1655.54 2393.72 1671.18 2397.42C1686.82 2401.11 1702.49 2391.43 1706.18 2375.78Z" fill="#102770"/>
<g opacity="0.3">
<path d="M1758.8 2688V2721H1436.8V2358.6C1438.2 2357.5 1439.1 2357 1439.1 2357C1450.4 2614.6 1569.9 2704.8 1758.8 2688Z" fill="#102770"/>
</g>
<path d="M1340.7 1815.1C1410.62 1815.1 1467.3 1758.42 1467.3 1688.5C1467.3 1618.58 1410.62 1561.9 1340.7 1561.9C1270.78 1561.9 1214.1 1618.58 1214.1 1688.5C1214.1 1758.42 1270.78 1815.1 1340.7 1815.1Z" fill="#22A7F0"/>
<g opacity="0.3">
<path d="M1245.2 1725.8C1245.2 1655.9 1301.9 1599.2 1371.8 1599.2C1402.1 1599.2 1429.9 1609.9 1451.7 1627.7C1430.2 1588.5 1388.6 1562 1340.7 1562C1270.8 1562 1214.1 1618.7 1214.1 1688.6C1214.1 1728.2 1232.3 1763.5 1260.7 1786.7C1250.8 1768.6 1245.2 1747.9 1245.2 1725.8Z" fill="#102770"/>
</g>
<path d="M1340.7 1830.6C1262.3 1830.6 1198.6 1766.9 1198.6 1688.5C1198.6 1610.1 1262.3 1546.4 1340.7 1546.4C1419.1 1546.4 1482.8 1610.1 1482.8 1688.5C1482.8 1766.9 1419 1830.6 1340.7 1830.6ZM1340.7 1577.5C1279.5 1577.5 1229.7 1627.3 1229.7 1688.5C1229.7 1749.7 1279.5 1799.5 1340.7 1799.5C1401.9 1799.5 1451.7 1749.7 1451.7 1688.5C1451.7 1627.3 1401.9 1577.5 1340.7 1577.5Z" fill="#102770"/>
<path d="M1985.2 2721.4H680.6V2791H1985.2V2721.4Z" fill="#5E6C7A"/>
<path d="M1987.6 2793.4H678.1V2718.8H1987.7V2793.4H1987.6ZM683.1 2788.4H1982.7V2723.8H683.1V2788.4Z" fill="#102770"/>
<g opacity="0.55">
<path d="M1985.1 2711.4H680.5V2740.4H1985.1V2711.4Z" fill="white"/>
</g>
<path d="M1985.1 2808.4H680.6C670.9 2808.4 663.1 2800.6 663.1 2790.9V2702.6C663.1 2692.9 670.9 2685.1 680.6 2685.1H1985.2C1994.9 2685.1 2002.7 2692.9 2002.7 2702.6V2790.9C2002.6 2800.6 1994.8 2808.4 1985.1 2808.4ZM698.1 2773.4H1967.7V2720.1H698.1V2773.4Z" fill="#102770"/>
<path d="M762.2 2702V2748.5C762.2 2772.3 742.9 2791.7 719.1 2791.7H250C226.2 2791.7 206.8 2772.4 206.8 2748.5V2702C206.8 2678.2 226.1 2658.8 250 2658.8H719.1C742.9 2658.8 762.2 2678.2 762.2 2702Z" fill="#F7C714"/>
<path d="M536 2658.7H286.7V2791.5H536V2658.7Z" fill="#F89E1D"/>
<g opacity="0.55">
<path d="M684.4 2658.8H607.6V2791.6H684.4V2658.8Z" fill="#FCE5E5"/>
</g>
<path d="M719.1 2808.8H250C216.7 2808.8 189.7 2781.7 189.7 2748.5V2702C189.7 2668.7 216.8 2641.7 250 2641.7H719.1C752.4 2641.7 779.4 2668.8 779.4 2702V2748.5C779.4 2781.8 752.3 2808.8 719.1 2808.8ZM250 2676C235.7 2676 224 2687.7 224 2702V2748.5C224 2762.8 235.7 2774.5 250 2774.5H719.1C733.4 2774.5 745.1 2762.8 745.1 2748.5V2702C745.1 2687.7 733.4 2676 719.1 2676H250Z" fill="#102770"/>
<path d="M811.9 2293.4V2339.9C811.9 2363.7 792.6 2383.1 768.8 2383.1H299.7C275.9 2383.1 256.5 2363.8 256.5 2339.9V2293.4C256.5 2269.6 275.8 2250.2 299.7 2250.2H768.8C792.6 2250.3 811.9 2269.6 811.9 2293.4Z" fill="#F7C714"/>
<path d="M585.6 2250.1H336.3V2382.9H585.6V2250.1Z" fill="#F89E1D"/>
<g opacity="0.55">
<path d="M734.1 2250.3H657.3V2383.1H734.1V2250.3Z" fill="#FCE5E5"/>
</g>
<path d="M768.8 2400.3H299.7C266.4 2400.3 239.4 2373.2 239.4 2340V2293.5C239.4 2260.2 266.5 2233.2 299.7 2233.2H768.8C802.1 2233.2 829.1 2260.3 829.1 2293.5V2340C829.1 2373.2 802 2400.3 768.8 2400.3ZM299.7 2267.4C285.4 2267.4 273.7 2279.1 273.7 2293.4V2339.9C273.7 2354.2 285.4 2365.9 299.7 2365.9H768.8C783.1 2365.9 794.8 2354.2 794.8 2339.9V2293.4C794.8 2279.1 783.1 2267.4 768.8 2267.4H299.7Z" fill="#102770"/>
<path d="M760.5 2433V2479.5C760.5 2503.3 741.2 2522.7 717.4 2522.7H248.3C224.5 2522.7 205.1 2503.4 205.1 2479.5V2433C205.1 2409.2 224.4 2389.8 248.3 2389.8H717.4C741.2 2389.9 760.5 2409.2 760.5 2433Z" fill="#F7C714"/>
<path d="M534.2 2389.7H284.9V2522.5H534.2V2389.7Z" fill="#F89E1D"/>
<g opacity="0.55">
<path d="M682.7 2389.9H605.9V2522.7H682.7V2389.9Z" fill="#FCE5E5"/>
</g>
<path d="M717.4 2539.9H248.3C215 2539.9 188 2512.8 188 2479.6V2433.1C188 2399.8 215.1 2372.8 248.3 2372.8H717.4C750.7 2372.8 777.7 2399.9 777.7 2433.1V2479.6C777.7 2512.8 750.6 2539.9 717.4 2539.9ZM248.3 2407C234 2407 222.3 2418.7 222.3 2433V2479.5C222.3 2493.8 234 2505.5 248.3 2505.5H717.4C731.7 2505.5 743.4 2493.8 743.4 2479.5V2433C743.4 2418.7 731.7 2407 717.4 2407H248.3Z" fill="#102770"/>
<path d="M833.7 2569.3V2615.8C833.7 2639.6 814.4 2659 790.6 2659H321.5C297.7 2659 278.3 2639.7 278.3 2615.8V2569.3C278.3 2545.5 297.6 2526.1 321.5 2526.1H790.6C814.4 2526.1 833.7 2545.5 833.7 2569.3Z" fill="#F7C714"/>
<path d="M607.5 2526H358.2V2658.8H607.5V2526Z" fill="#F89E1D"/>
<g opacity="0.55">
<path d="M755.9 2526.1H679.1V2658.9H755.9V2526.1Z" fill="#FCE5E5"/>
</g>
<path d="M790.6 2676.1H321.5C288.2 2676.1 261.2 2649 261.2 2615.8V2569.3C261.2 2536 288.3 2509 321.5 2509H790.6C823.9 2509 850.9 2536.1 850.9 2569.3V2615.8C850.9 2649.1 823.8 2676.1 790.6 2676.1ZM321.5 2543.3C307.2 2543.3 295.5 2555 295.5 2569.3V2615.8C295.5 2630.1 307.2 2641.8 321.5 2641.8H790.6C804.9 2641.8 816.6 2630.1 816.6 2615.8V2569.3C816.6 2555 804.9 2543.3 790.6 2543.3H321.5Z" fill="#102770"/>
<path d="M2377.3 2651.5C2375.5 2729.4 2311.8 2791.7 2233.8 2791.7H2020.9C1948.8 2791.7 1888.9 2738.5 1878.9 2668.9C1878.1 2663.2 1877.6 2657.4 1877.4 2651.5C1872.1 2422.8 1949.4 2286.1 2076.3 2228.6H2178.5C2227.1 2250.7 2268.5 2284.4 2300.7 2330.4C2352.4 2404.4 2380.6 2510.4 2377.3 2651.5Z" fill="#1EBC61"/>
<path d="M2233.8 2807.9H2020.9C1942 2807.9 1874.1 2749.1 1862.8 2671.2C1862.8 2671.1 1862.8 2671 1862.8 2671C1861.9 2664.8 1861.4 2658.4 1861.2 2651.9C1854.6 2370.9 1970.9 2258.6 2069.6 2213.8C2071.7 2212.8 2074 2212.3 2076.3 2212.3H2178.5C2180.8 2212.3 2183.1 2212.8 2185.2 2213.8C2237.4 2237.5 2280.8 2273.6 2314 2321.1C2370.1 2401.3 2396.9 2512.6 2393.6 2651.9C2391.5 2737.9 2319.9 2807.9 2233.8 2807.9ZM1895 2666.8C1904.1 2728.8 1958.2 2775.5 2020.9 2775.5H2233.8C2302.4 2775.5 2359.4 2719.7 2361 2651.2C2364.1 2518.9 2339.3 2414.1 2287.2 2339.8C2258 2298.1 2220.2 2266.2 2174.8 2244.9H2079.8C1953.1 2304.2 1888.8 2444.5 1893.6 2651.2C1893.7 2656.4 1894.2 2661.6 1894.9 2666.6C1894.9 2666.6 1895 2666.7 1895 2666.8Z" fill="#102770"/>
<g opacity="0.3">
<path d="M2371 2690.3C2353 2749.1 2298.3 2791.7 2233.8 2791.7H2020.8C1948.7 2791.7 1888.9 2738.5 1878.8 2668.9C1878 2663.2 1877.5 2657.4 1877.3 2651.5C1873.1 2470.7 1920.5 2347.5 2003.3 2275.4C1962.7 2347.4 1941.2 2444.4 1944.1 2568.6C1944.2 2574.5 1944.7 2580.3 1945.5 2586C1955.6 2655.6 2015.5 2708.8 2087.6 2708.8H2300.5C2326.1 2708.8 2350.2 2702.1 2371 2690.3Z" fill="#102770"/>
</g>
<g opacity="0.55">
<path d="M2377.3 2651.5C2376.2 2699.5 2351.6 2741.6 2314.6 2766.8C2338.6 2741.8 2353.6 2708.1 2354.5 2670.9C2357.5 2544 2334.9 2445.5 2292.7 2373.1C2254.7 2374.6 2240.7 2347.3 2256.3 2322.5C2227.9 2290.2 2194 2265.5 2155.6 2248H2053.5C2032.8 2257.4 2013.5 2268.8 1995.6 2282.5C2019.5 2260.1 2046.6 2242.2 2076.4 2228.7H2178.5C2227.1 2250.7 2268.5 2284.4 2300.6 2330.5C2352.5 2404.4 2380.6 2510.4 2377.3 2651.5Z" fill="white"/>
</g>
<path d="M2233.8 2807.5H2020.9C1935 2807.5 1863.6 2737.7 1861.6 2651.8C1855 2371 1971.2 2258.8 2069.8 2214.1C2071.9 2213.2 2074.1 2212.7 2076.4 2212.7H2178.6C2180.9 2212.7 2183.1 2213.2 2185.2 2214.1C2283.8 2258.8 2399.9 2371.1 2393.4 2651.8C2391.2 2737.7 2319.7 2807.5 2233.8 2807.5ZM2119.3 2775.8H2233.8C2302.6 2775.8 2359.8 2719.8 2361.4 2651.1C2366.2 2444.2 2301.8 2303.7 2174.9 2244.4H2079.7C1952.9 2303.7 1888.4 2444.2 1893.2 2651.1C1894.8 2719.9 1952.1 2775.8 2020.8 2775.8H2119.3Z" fill="#102770"/>
<path d="M2227.4 2213.7C2227.4 2221 2223.8 2227.6 2218 2232.4C2214.3 2235.5 2209.7 2237.8 2204.5 2239.1C2201.6 2239.8 2198.5 2240.2 2195.4 2240.2H2061.9C2058.9 2240.2 2056.1 2239.9 2053.3 2239.2C2039.8 2236.1 2029.9 2225.8 2029.9 2213.7C2029.9 2206.4 2033.5 2199.8 2039.3 2195C2043.3 2191.7 2048.2 2189.3 2053.8 2188.1C2056.4 2187.5 2059.1 2187.2 2061.9 2187.2H2195.4C2198.5 2187.2 2201.4 2187.6 2204.2 2188.2C2217.6 2191.5 2227.4 2201.7 2227.4 2213.7Z" fill="#F7C714"/>
<path d="M2195.3 2242.7H2061.8C2058.7 2242.7 2055.6 2242.4 2052.7 2241.7C2037.8 2238.2 2027.3 2226.8 2027.3 2213.8C2027.3 2206 2031 2198.7 2037.6 2193.2C2042 2189.6 2047.3 2187 2053.2 2185.8C2055.9 2185.2 2058.8 2184.9 2061.8 2184.9H2195.3C2198.5 2184.9 2201.7 2185.3 2204.7 2186C2219.5 2189.5 2229.8 2201 2229.8 2213.8C2229.8 2221.6 2226.1 2228.9 2219.5 2234.4C2215.4 2237.8 2210.4 2240.2 2205 2241.6C2201.9 2242.3 2198.6 2242.7 2195.3 2242.7ZM2061.8 2189.8C2059.2 2189.8 2056.6 2190.1 2054.2 2190.6C2049.1 2191.7 2044.5 2193.9 2040.7 2197C2035.2 2201.5 2032.2 2207.5 2032.2 2213.7C2032.2 2224.3 2041 2233.8 2053.7 2236.7C2056.3 2237.3 2059 2237.6 2061.7 2237.6H2195.2C2198.1 2237.6 2200.9 2237.3 2203.7 2236.6C2208.4 2235.5 2212.7 2233.3 2216.2 2230.4C2221.7 2225.9 2224.7 2219.9 2224.7 2213.7C2224.7 2203.2 2216 2193.7 2203.4 2190.7C2200.7 2190 2197.9 2189.7 2195.1 2189.7H2061.8V2189.8Z" fill="#102770"/>
<g opacity="0.55">
<path d="M2227.4 2213.7C2227.4 2221 2223.8 2227.6 2218 2232.4C2214.2 2235.5 2209.6 2237.8 2204.5 2239.1C2201.6 2239.8 2198.5 2240.2 2195.4 2240.2H2182.1C2182.6 2239.9 2183.2 2239.5 2183.7 2239C2189.5 2234.2 2193.1 2227.6 2193.1 2220.3C2193.1 2208.3 2183.3 2198.1 2169.9 2194.9C2167.1 2194.2 2164.1 2193.8 2161.1 2193.8H2040.8C2044.4 2191.2 2048.9 2189.1 2053.7 2188.1C2056.3 2187.5 2059 2187.2 2061.8 2187.2H2195.3C2198.4 2187.2 2201.3 2187.6 2204.1 2188.3C2217.6 2191.5 2227.4 2201.7 2227.4 2213.7Z" fill="white"/>
</g>
<path d="M2195.3 2256H2061.8C2057.7 2256 2053.6 2255.5 2049.7 2254.6C2028.6 2249.7 2014 2232.9 2014 2213.7C2014 2202 2019.5 2190.8 2029.2 2182.8C2035.2 2177.8 2042.6 2174.3 2050.5 2172.6C2054 2171.8 2058 2171.4 2061.9 2171.4H2195.4C2199.7 2171.4 2203.9 2171.9 2208 2172.9C2228.7 2177.9 2243.3 2194.6 2243.3 2213.7C2243.3 2225.4 2237.8 2236.6 2228.1 2244.6C2222.5 2249.2 2215.6 2252.6 2208.3 2254.4C2204 2255.5 2199.7 2256 2195.3 2256ZM2061.8 2203.1C2060.2 2203.1 2058.6 2203.3 2057.2 2203.6C2054.1 2204.3 2051.4 2205.5 2049.3 2207.2C2047.9 2208.3 2045.7 2210.7 2045.7 2213.6C2045.7 2217.8 2050.5 2222.1 2056.9 2223.6C2058.5 2224 2060.2 2224.2 2061.9 2224.2H2195.4C2197.2 2224.2 2199 2224 2200.8 2223.6C2203.5 2222.9 2206 2221.7 2208 2220.1C2209.4 2219 2211.6 2216.6 2211.6 2213.7C2211.6 2209.5 2206.9 2205.2 2200.6 2203.7C2198.9 2203.3 2197.2 2203.1 2195.4 2203.1H2061.8Z" fill="#102770"/>
<path d="M2268.5 2067.4L2262.5 2078.7L2204.3 2188.3L2053.8 2188.1L2018.1 2121.8L1988.8 2067.4C2002 2058.7 2028.4 2075.4 2042.7 2069.6C2057.2 2063.7 2064.5 2033.3 2079.7 2030.4C2095 2027.4 2113.2 2052.8 2128.7 2052.8C2144.3 2052.8 2162.4 2027.4 2177.7 2030.4C2192.9 2033.4 2200.1 2063.7 2214.7 2069.6C2228.9 2075.4 2255.3 2058.8 2268.5 2067.4Z" fill="#1EBC61"/>
<path d="M2204.2 2204.6L2053.7 2204.4C2047.7 2204.4 2042.2 2201.1 2039.4 2195.9L1974.4 2075.2C1970.4 2067.8 1972.7 2058.5 1979.8 2053.9C1992.6 2045.5 2008.3 2049.1 2020.8 2052.1C2025.7 2053.3 2034 2055.2 2036.5 2054.5C2038.6 2053.3 2043.3 2046 2046.1 2041.6C2052.9 2030.8 2061.5 2017.4 2076.3 2014.4C2091.3 2011.5 2104.3 2020.7 2114.7 2028.2C2118.9 2031.2 2125.9 2036.2 2128.5 2036.5C2130.9 2036.2 2137.9 2031.2 2142.1 2028.2C2152.6 2020.8 2165.5 2011.5 2180.5 2014.4C2195.4 2017.3 2203.9 2030.8 2210.7 2041.6C2213.5 2046 2218.2 2053.4 2220.6 2054.6C2222.9 2055.2 2231.2 2053.2 2236.1 2052.1C2248.7 2049.1 2264.3 2045.4 2277.2 2053.9C2284.2 2058.5 2286.6 2067.7 2282.6 2075.1L2276.6 2086.4C2276.5 2086.6 2276.4 2086.7 2276.4 2086.9L2218.4 2196C2215.7 2201.3 2210.2 2204.6 2204.2 2204.6ZM2063.4 2171.9L2194.4 2172.1L2241 2084.4C2230.5 2086.8 2219 2089 2208.4 2084.7C2196.7 2079.9 2189.7 2068.8 2183.5 2059C2181 2055 2176.9 2048.5 2174.4 2046.5C2171.4 2047.4 2165 2051.9 2161.2 2054.7C2151.8 2061.4 2141.1 2069 2128.6 2069C2116.1 2069 2105.4 2061.4 2096 2054.7C2092.1 2051.9 2085.8 2047.4 2082.8 2046.5C2080.3 2048.5 2076.2 2055 2073.7 2059C2067.5 2068.8 2060.5 2079.9 2048.8 2084.7C2038.3 2089 2026.8 2086.9 2016.4 2084.5L2063.4 2171.9Z" fill="#102770"/>
<g opacity="0.55">
<path d="M2268.5 2067.5L2262.5 2078.8L2253.5 2095.8C2239.7 2096 2221.3 2105 2210.2 2100.5C2195.7 2094.5 2188.4 2064.2 2173.3 2061.3C2158 2058.3 2139.8 2083.7 2124.3 2083.7C2108.8 2083.7 2090.6 2058.3 2075.2 2061.3C2060 2064.3 2052.8 2094.5 2038.3 2100.5C2029.7 2104 2016.7 2099.4 2004.9 2097L1989 2067.5C2002.2 2058.8 2028.6 2075.5 2042.9 2069.7C2057.4 2063.7 2064.7 2033.4 2079.8 2030.4C2095.1 2027.4 2113.3 2052.8 2128.9 2052.8C2144.4 2052.8 2162.6 2027.4 2177.9 2030.4C2193.1 2033.4 2200.3 2063.7 2214.8 2069.7C2228.9 2075.4 2255.3 2058.8 2268.5 2067.5Z" fill="white"/>
</g>
<path d="M2218.3 2070.6C2217 2070.4 2215.8 2070.1 2214.6 2069.6C2204.9 2065.6 2198.4 2050.7 2190.6 2040.4C2191 2040.4 2191.4 2040.5 2191.8 2040.6C2202.9 2042.7 2209.8 2059.4 2218.3 2070.6Z" fill="#0CAE97"/>
<path d="M2224 2074L2217.9 2073.1C2216.4 2072.9 2215 2072.5 2213.6 2072C2206 2068.9 2200.4 2060.1 2195.1 2051.7C2193 2048.4 2190.8 2044.9 2188.6 2042L2185.2 2037.5L2190.9 2038C2191.4 2038 2191.9 2038.1 2192.4 2038.2C2201.5 2040 2207.6 2049.7 2213.6 2059.2C2215.8 2062.6 2218 2066.2 2220.3 2069.2L2224 2074ZM2197.9 2046.5C2198.4 2047.3 2198.9 2048.1 2199.4 2048.9C2203.1 2054.7 2206.8 2060.6 2211 2064.3C2210.5 2063.5 2209.9 2062.6 2209.4 2061.8C2205.7 2056.1 2202 2050.2 2197.9 2046.5Z" fill="#102770"/>
<path d="M2204.2 2204.2L2053.7 2204C2047.9 2204 2042.5 2200.8 2039.8 2195.7L1974.8 2075C1970.9 2067.8 1973.2 2058.7 1980.1 2054.2C1992.8 2045.8 2008.4 2049.5 2020.8 2052.5C2025.8 2053.7 2034.2 2055.7 2036.7 2054.9C2039 2053.7 2043.7 2046.3 2046.6 2041.8C2053.8 2030.5 2061.9 2017.7 2076.6 2014.8C2091.4 2011.9 2104.3 2021.1 2114.7 2028.5C2119 2031.5 2126.1 2036.6 2128.7 2036.8C2131.2 2036.6 2138.3 2031.5 2142.6 2028.5C2153 2021.1 2165.9 2011.8 2180.7 2014.8C2195.4 2017.7 2203.5 2030.5 2210.7 2041.8C2213.5 2046.3 2218.3 2053.8 2220.7 2055C2223.1 2055.7 2231.5 2053.7 2236.5 2052.5C2249 2049.6 2264.5 2045.9 2277.2 2054.2C2284 2058.7 2286.3 2067.7 2282.5 2074.9L2218.2 2195.8C2215.4 2201 2210.1 2204.2 2204.2 2204.2ZM2063.2 2172.3L2194.7 2172.4L2241.9 2083.7C2231.3 2086.2 2219.4 2088.6 2208.7 2084.2C2197.1 2079.5 2190.1 2068.4 2183.9 2058.7C2181.3 2054.6 2177.1 2047.9 2174.6 2046C2171.6 2046.8 2165 2051.4 2161 2054.3C2151.6 2061 2141 2068.5 2128.6 2068.5C2116.2 2068.5 2105.6 2060.9 2096.2 2054.3C2092.2 2051.4 2085.7 2046.8 2082.6 2046C2080.1 2047.9 2075.9 2054.6 2073.3 2058.7C2067.1 2068.5 2060.1 2079.5 2048.5 2084.2C2037.8 2088.6 2026.1 2086.2 2015.5 2083.7L2063.2 2172.3Z" fill="#102770"/>
<path d="M2194.1 2571.8C2194.5 2593.1 2182.5 2612.3 2156.8 2620.8L2157.3 2646.7L2124.3 2647.4L2123.9 2625.6C2105.6 2625.5 2088 2621.1 2078.9 2616.3L2086 2584.6C2096.4 2589.6 2112.3 2594.6 2128.6 2594.3C2146.2 2594 2155.3 2586.5 2155 2575.5C2154.8 2565 2146.7 2559.1 2126.2 2552.3C2097.9 2543.1 2079.3 2527.9 2078.8 2503.3C2078.3 2480.1 2093.6 2460.9 2120.5 2454L2120 2428L2153 2427.3L2153.5 2451.4C2166.8 2452.3 2177.2 2455.4 2185.1 2458.7L2177.2 2489.7C2170.4 2486.6 2158.2 2482.1 2141.7 2482.4C2125.1 2482.7 2117.3 2490.4 2117.4 2499.2C2117.6 2510 2127.2 2514.5 2149.2 2522.4C2179.3 2532.8 2193.6 2548 2194.1 2571.8Z" fill="#F9F6C3"/>
<defs>
<linearGradient id="paint0_linear_2803_4613" x1="1071.76" y1="2022.98" x2="873.244" y2="2264.81" gradientUnits="userSpaceOnUse">
<stop stop-color="white"/>
<stop offset="1" stop-color="#F1F2F2"/>
</linearGradient>
<linearGradient id="paint1_linear_2803_4613" x1="1329.58" y1="1942.39" x2="970.444" y2="2371.91" gradientUnits="userSpaceOnUse">
<stop stop-color="white"/>
<stop offset="1" stop-color="#F1F2F2"/>
</linearGradient>
<linearGradient id="paint2_linear_2803_4613" x1="1018.25" y1="2361.36" x2="859.138" y2="2869.9" gradientUnits="userSpaceOnUse">
<stop stop-color="#262F6A"/>
<stop offset="1" stop-color="#83A0D3"/>
</linearGradient>
</defs>
</svg>
