<svg width="405" height="111" viewBox="0 0 405 111" fill="none" xmlns="http://www.w3.org/2000/svg">
<path d="M50.9326 25.5215H56.9092V68.8516C56.9092 73.3047 55.8691 77.2891 53.7891 80.8047C51.709 84.291 48.7939 87.0449 45.0439 89.0664C41.3232 91.0879 37.0166 92.0986 32.124 92.0986C27.2021 92.0986 22.8662 91.0879 19.1162 89.0664C15.3955 87.0449 12.4805 84.291 10.3711 80.8047C8.29102 77.2891 7.25098 73.3047 7.25098 68.8516V25.5215H13.2275V68.4561C13.2275 71.9131 14.0039 75.0039 15.5566 77.7285C17.1387 80.4531 19.3359 82.5918 22.1484 84.1445C24.9902 85.6973 28.3154 86.4736 32.124 86.4736C35.9033 86.4736 39.1992 85.6973 42.0117 84.1445C44.8242 82.5918 47.0068 80.4531 48.5596 77.7285C50.1416 75.0039 50.9326 71.9131 50.9326 68.4561V25.5215ZM80.3795 92.0986C77.4205 92.0986 74.7105 91.5273 72.2496 90.3848C69.7887 89.2129 67.8258 87.5283 66.3609 85.3311C64.9254 83.1045 64.2076 80.4092 64.2076 77.2451C64.2076 74.8135 64.6617 72.7773 65.5699 71.1367C66.4781 69.4961 67.7818 68.1484 69.4811 67.0938C71.1803 66.0098 73.1725 65.1602 75.4576 64.5449C77.7721 63.9004 80.3209 63.417 83.1041 63.0947C85.858 62.7432 88.1871 62.4502 90.0914 62.2158C91.9957 61.9521 93.4459 61.542 94.442 60.9854C95.4381 60.4287 95.9361 59.5352 95.9361 58.3047V57.1621C95.9361 53.793 94.94 51.1562 92.9479 49.252C90.9557 47.3184 88.0992 46.3516 84.3785 46.3516C80.8336 46.3516 77.9479 47.1279 75.7213 48.6807C73.4947 50.2334 71.942 52.0645 71.0631 54.1738L65.6139 52.1963C66.7271 49.5303 68.2652 47.3916 70.2281 45.7803C72.191 44.1689 74.3883 43.0117 76.8199 42.3086C79.2516 41.5762 81.7125 41.21 84.2027 41.21C86.0777 41.21 88.026 41.459 90.0475 41.957C92.0689 42.4551 93.9586 43.3047 95.7164 44.5059C97.4742 45.707 98.8951 47.3916 99.9791 49.5596C101.092 51.6982 101.649 54.4082 101.649 57.6895V91H95.9361V83.2217H95.5846C94.94 84.6572 93.9439 86.0635 92.5963 87.4404C91.2486 88.7881 89.5641 89.9014 87.5426 90.7803C85.5211 91.6592 83.1334 92.0986 80.3795 92.0986ZM81.1705 86.9131C84.1881 86.9131 86.7955 86.2539 88.9928 84.9355C91.2193 83.5879 92.9332 81.7861 94.1344 79.5303C95.3355 77.2744 95.9361 74.8135 95.9361 72.1475V65.0723C95.4967 65.4824 94.7789 65.8486 93.7828 66.1709C92.816 66.4932 91.6881 66.7715 90.399 67.0059C89.1393 67.2402 87.8502 67.4453 86.5318 67.6211C85.2428 67.7969 84.1002 67.9434 83.1041 68.0605C80.3502 68.4121 77.9771 68.9541 75.985 69.6865C74.0221 70.4189 72.5133 71.415 71.4586 72.6748C70.4332 73.9346 69.9205 75.5605 69.9205 77.5527C69.9205 80.5117 70.9752 82.8115 73.0846 84.4521C75.2232 86.0928 77.9186 86.9131 81.1705 86.9131ZM115.935 60.3262V91H110.266V41.8691H115.759V49.6475H116.33C117.473 47.0986 119.26 45.0625 121.692 43.5391C124.123 42.0156 127.141 41.2539 130.744 41.2539C134.055 41.2539 136.955 41.9424 139.446 43.3193C141.965 44.6963 143.928 46.7178 145.334 49.3838C146.74 52.0498 147.444 55.3311 147.444 59.2275V91H141.775V59.5791C141.775 55.5654 140.647 52.3721 138.391 49.999C136.135 47.626 133.117 46.4395 129.338 46.4395C126.76 46.4395 124.46 47.0107 122.439 48.1533C120.417 49.2666 118.821 50.8633 117.649 52.9434C116.506 54.9941 115.935 57.4551 115.935 60.3262ZM174.781 110.424C169.771 110.424 165.684 109.486 162.52 107.611C159.356 105.736 157.056 103.393 155.621 100.58L160.279 97.5039C160.953 98.7637 161.89 99.9795 163.092 101.151C164.293 102.353 165.846 103.334 167.75 104.096C169.654 104.887 171.998 105.282 174.781 105.282C179.146 105.282 182.662 104.198 185.328 102.03C188.023 99.8623 189.371 96.4932 189.371 91.9229V80.8486H188.8C188.155 82.3428 187.218 83.8369 185.987 85.3311C184.757 86.7959 183.145 88.0264 181.153 89.0225C179.161 89.9893 176.685 90.4727 173.726 90.4727C169.801 90.4727 166.314 89.5059 163.267 87.5723C160.25 85.6387 157.862 82.8701 156.104 79.2666C154.376 75.6338 153.512 71.3271 153.512 66.3467C153.512 61.3662 154.361 57.001 156.06 53.251C157.76 49.4717 160.133 46.5273 163.179 44.418C166.226 42.2793 169.771 41.21 173.814 41.21C176.832 41.21 179.337 41.752 181.329 42.8359C183.321 43.8906 184.918 45.1943 186.119 46.7471C187.32 48.2998 188.258 49.8086 188.931 51.2734H189.547V41.8691H194.996V92.2744C194.996 96.4346 194.117 99.8477 192.359 102.514C190.631 105.209 188.243 107.201 185.196 108.49C182.149 109.779 178.678 110.424 174.781 110.424ZM174.429 85.2871C179.146 85.2871 182.823 83.5879 185.46 80.1895C188.096 76.791 189.415 72.1328 189.415 66.2148C189.415 62.377 188.829 58.9785 187.657 56.0195C186.514 53.0312 184.815 50.6875 182.559 48.9883C180.333 47.2598 177.623 46.3955 174.429 46.3955C171.119 46.3955 168.336 47.2891 166.08 49.0762C163.824 50.834 162.11 53.207 160.938 56.1953C159.796 59.1836 159.224 62.5234 159.224 66.2148C159.224 69.9648 159.81 73.2754 160.982 76.1465C162.154 79.0176 163.868 81.2588 166.124 82.8701C168.409 84.4814 171.178 85.2871 174.429 85.2871Z" fill="white"/>
<path d="M202.338 91V25.5215H214.204V55.624H214.995L240.571 25.5215H255.029L229.716 54.9209L255.248 91H240.966L221.454 62.9629L214.204 71.5322V91H202.338ZM341.838 41.8691V50.834H313.669V41.8691H341.838ZM320.569 30.1797H332.126V76.2344C332.126 78.168 332.551 79.6035 333.401 80.541C334.25 81.4492 335.598 81.9033 337.444 81.9033C337.942 81.9033 338.498 81.8594 339.114 81.7715C339.729 81.6836 340.286 81.5811 340.784 81.4639L342.761 90.5166C341.531 90.8975 340.286 91.1758 339.026 91.3516C337.766 91.5566 336.506 91.6592 335.246 91.6592C330.676 91.6592 327.087 90.458 324.48 88.0557C321.872 85.624 320.569 82.3135 320.569 78.124V30.1797ZM358.761 92.0107C355.626 92.0107 352.813 91.4541 350.323 90.3408C347.833 89.1982 345.87 87.5283 344.435 85.3311C342.999 83.1338 342.281 80.4238 342.281 77.2012C342.281 74.4473 342.794 72.1621 343.819 70.3457C344.845 68.5293 346.236 67.0791 347.994 65.9951C349.781 64.9111 351.788 64.0908 354.015 63.5342C356.241 62.9482 358.541 62.5381 360.914 62.3037C363.814 61.9814 366.158 61.7031 367.945 61.4688C369.732 61.2344 371.021 60.8535 371.812 60.3262C372.633 59.7988 373.043 58.9785 373.043 57.8652V57.6455C373.043 55.2725 372.34 53.4268 370.934 52.1084C369.527 50.79 367.477 50.1309 364.781 50.1309C361.939 50.1309 359.684 50.7461 358.014 51.9766C356.373 53.207 355.26 54.6572 354.674 56.3271L343.907 54.7891C344.757 51.8008 346.163 49.3105 348.126 47.3184C350.089 45.2969 352.477 43.7881 355.289 42.792C358.131 41.7666 361.266 41.2539 364.693 41.2539C367.037 41.2539 369.381 41.5322 371.725 42.0889C374.068 42.6162 376.222 43.5244 378.185 44.8135C380.147 46.1025 381.715 47.8311 382.887 49.999C384.059 52.167 384.645 54.877 384.645 58.1289V91H373.526V84.2324H373.175C372.472 85.5801 371.476 86.8545 370.187 88.0557C368.927 89.2275 367.345 90.1797 365.44 90.9121C363.565 91.6445 361.339 92.0107 358.761 92.0107ZM361.705 83.4854C364.049 83.4854 366.07 83.0312 367.77 82.123C369.469 81.1855 370.787 79.9551 371.725 78.4316C372.662 76.8789 373.131 75.1943 373.131 73.3779V67.6211C372.75 67.9141 372.135 68.1924 371.285 68.4561C370.436 68.6904 369.469 68.9102 368.385 69.1152C367.301 69.3203 366.231 69.4961 365.177 69.6426C364.151 69.7891 363.258 69.9062 362.496 69.9941C360.768 70.2285 359.215 70.624 357.838 71.1807C356.49 71.708 355.421 72.4404 354.63 73.3779C353.839 74.3154 353.443 75.5312 353.443 77.0254C353.443 79.1641 354.22 80.7754 355.772 81.8594C357.325 82.9434 359.303 83.4854 361.705 83.4854Z" fill="#9745FD"/>
<path d="M280 91C279.447 91 279 90.5157 279 89.917V27.083C279 26.4843 279.447 26 280 26C280.553 26 281 26.4843 281 27.083V89.917C281 90.5157 280.553 91 280 91Z" fill="white"/>
<path d="M280.189 69.3656C281.929 57.814 300.891 45.5582 311.407 48.6292C311.202 58.6311 293.939 73.1409 280.189 69.3656Z" fill="#1EBC61"/>
<g opacity="0.55">
<path d="M311.35 49.4602C311.315 49.749 311.273 50.0448 311.209 50.3407C301.045 48.6079 284.676 59.117 281.626 69.6895C281.337 69.6402 281.048 69.5768 280.76 69.5063C280.57 69.457 280.372 69.4148 280.182 69.3584C281.922 57.8069 300.883 45.5581 311.399 48.622C311.399 48.9038 311.385 49.1785 311.35 49.4602Z" fill="white"/>
</g>
<g opacity="0.3">
<path d="M311.35 49.4601C310.273 59.2648 294.037 72.6477 280.767 69.5133C280.577 69.464 280.38 69.4217 280.189 69.3654C280.225 69.147 280.26 68.9287 280.309 68.7033L285.5 65.0899C295.974 64.8997 307.012 56.3558 310.526 48.4106C310.822 48.474 311.118 48.5374 311.407 48.629C311.4 48.9037 311.386 49.1784 311.35 49.4601Z" fill="white"/>
</g>
<path d="M284.81 71.0137C283.106 71.0137 281.464 70.8024 279.908 70.3798C279.394 70.2389 279.07 69.7318 279.147 69.2106C280.014 63.47 285.078 57.011 292.368 52.3552C299.348 47.8966 306.575 46.1287 311.703 47.6219C312.161 47.7557 312.47 48.1784 312.463 48.6573C312.358 53.7076 308.195 60.0257 301.863 64.752C296.397 68.8232 290.318 71.0137 284.81 71.0137ZM281.415 68.5766C287.219 69.7741 294.312 67.7525 300.602 63.0615C306.075 58.9762 309.787 53.7287 310.301 49.4392C305.835 48.5446 299.503 50.2844 293.502 54.1232C287.121 58.2014 282.584 63.6532 281.415 68.5766Z" fill="white"/>
<path d="M285.958 64.2446L293.178 64.5827L286.028 65.6463L285.958 64.2446Z" fill="white"/>
<path d="M290.769 61.1314L291.41 56.856L292.171 61.1103L290.769 61.1314Z" fill="white"/>
<g opacity="0.18">
<path d="M299.292 56.0107C297.327 57.2715 296.031 58.7506 296.397 59.3141C296.756 59.8776 298.644 59.3071 300.602 58.0392C302.567 56.7784 303.863 55.2993 303.497 54.7358C303.138 54.1723 301.25 54.7428 299.292 56.0107Z" fill="white"/>
</g>
<path d="M280.19 70.0628C279.978 70.0628 279.774 69.9712 279.633 69.7881C279.394 69.4852 279.45 69.0415 279.76 68.802C290.769 60.244 300.792 53.5949 310.414 48.4742C310.759 48.291 311.182 48.4248 311.365 48.7629C311.548 49.1081 311.414 49.5307 311.076 49.7138C301.525 54.7923 291.565 61.3992 280.626 69.9079C280.493 70.0135 280.338 70.0628 280.19 70.0628Z" fill="white"/>
<path d="M293.453 58.9126L300.672 59.2507L293.53 60.3143L293.453 58.9126Z" fill="white"/>
<path d="M297.644 56.546L298.285 52.2705L299.045 56.5248L297.644 56.546Z" fill="white"/>
<path d="M301.989 53.3059L305.919 54.4681L301.827 54.7005L301.989 53.3059Z" fill="white"/>
<path d="M280.274 62.6952C278.534 51.1436 259.573 38.8878 249.057 41.9588C249.254 51.9607 266.525 66.4705 280.274 62.6952Z" fill="#1EBC61"/>
<g opacity="0.55">
<path d="M249.106 42.79C249.141 43.0788 249.183 43.3747 249.247 43.6705C259.411 41.9378 275.78 52.4468 278.83 63.0193C279.119 62.97 279.408 62.9066 279.696 62.8362C279.886 62.7868 280.084 62.7446 280.274 62.6882C278.534 51.1367 259.573 38.8879 249.057 41.9519C249.057 42.2336 249.078 42.5083 249.106 42.79Z" fill="white"/>
</g>
<g opacity="0.3">
<path d="M249.106 42.79C250.184 52.5947 266.419 65.9775 279.689 62.8431C279.88 62.7938 280.077 62.7516 280.267 62.6952C280.232 62.4769 280.197 62.2585 280.147 62.0331L274.956 58.4197C264.482 58.2296 253.445 49.6857 249.93 41.7405C249.634 41.8039 249.339 41.8673 249.05 41.9588C249.057 42.2335 249.078 42.5082 249.106 42.79Z" fill="white"/>
</g>
<path d="M275.646 64.3435C270.145 64.3435 264.067 62.1529 258.601 58.0747C252.261 53.3484 248.106 47.0303 248 41.98C247.993 41.5011 248.303 41.0785 248.761 40.9446C253.889 39.4443 261.115 41.2193 268.096 45.6779C275.386 50.3408 280.45 56.7998 281.316 62.5333C281.394 63.0616 281.07 63.5617 280.556 63.7025C278.992 64.1392 277.344 64.3435 275.646 64.3435ZM250.163 42.7689C250.677 47.0585 254.382 52.306 259.862 56.3913C266.151 61.0823 273.244 63.1038 279.048 61.9064C277.879 56.99 273.343 51.5312 266.962 47.4529C260.96 43.6142 254.628 41.8673 250.163 42.7689Z" fill="white"/>
<path d="M274.428 58.9761L267.286 57.9126L274.498 57.5745L274.428 58.9761Z" fill="white"/>
<path d="M268.286 54.4401L269.053 50.1858L269.694 54.4613L268.286 54.4401Z" fill="white"/>
<g opacity="0.18">
<path d="M264.076 52.6362C264.436 52.077 263.138 50.5989 261.175 49.3348C259.213 48.0706 257.33 47.4992 256.97 48.0585C256.61 48.6177 257.909 50.0958 259.871 51.3599C261.833 52.6241 263.716 53.1955 264.076 52.6362Z" fill="white"/>
</g>
<path d="M280.274 63.3924C280.126 63.3924 279.971 63.3431 279.844 63.2444C268.906 54.7358 258.946 48.1289 249.395 43.0504C249.05 42.8673 248.923 42.4447 249.106 42.0995C249.289 41.7544 249.712 41.6276 250.057 41.8107C259.679 46.9314 269.709 53.5806 280.711 62.1386C281.014 62.3781 281.07 62.8148 280.838 63.1247C280.69 63.3008 280.478 63.3924 280.274 63.3924Z" fill="white"/>
<path d="M266.933 53.6441L259.784 52.5805L267.004 52.2424L266.933 53.6441Z" fill="white"/>
<path d="M261.418 49.8547L262.179 45.6003L262.82 49.8758L261.418 49.8547Z" fill="white"/>
<path d="M258.636 48.0304L254.537 47.7979L258.474 46.6357L258.636 48.0304Z" fill="white"/>
<path d="M302.63 23.4482C302.63 35.7181 292.685 45.6637 280.415 45.6637C276.808 45.6637 273.406 44.8044 270.392 43.2759C268.152 42.1419 266.137 40.6416 264.412 38.8525C263.573 37.9862 262.813 37.0564 262.13 36.0633C259.735 32.6119 258.305 28.4491 258.206 23.9483C258.199 23.7792 258.199 23.6102 258.199 23.4411C258.199 11.1712 268.145 1.22559 280.415 1.22559C281.704 1.22559 282.965 1.33828 284.19 1.54959C288.557 2.29621 292.487 4.31773 295.587 7.2197C296.467 8.0438 297.277 8.93834 298.01 9.88922C299.524 11.8473 300.707 14.059 301.496 16.4539C302.236 18.6515 302.63 21.0111 302.63 23.4482Z" fill="#F7C714"/>
<path d="M280.415 45.8397C276.858 45.8397 273.463 45.0297 270.314 43.4378C268.074 42.3038 266.046 40.8035 264.292 38.9792C263.461 38.1199 262.686 37.1761 261.996 36.1688C259.502 32.5695 258.136 28.3504 258.037 23.9622C258.03 23.7861 258.03 23.6171 258.03 23.4551C258.03 11.1077 268.074 1.06348 280.422 1.06348C281.704 1.06348 282.986 1.16913 284.225 1.38748C288.536 2.12706 292.509 4.09927 295.714 7.09985C296.594 7.93099 297.418 8.83258 298.158 9.79051C299.707 11.7979 300.891 14.0237 301.672 16.4115C302.426 18.6725 302.806 21.0391 302.806 23.4621C302.806 35.7955 292.762 45.8397 280.415 45.8397ZM280.415 1.40861C268.265 1.40861 258.375 11.2978 258.375 23.4481C258.375 23.6101 258.375 23.7721 258.382 23.9411C258.481 28.2729 259.826 32.4287 262.278 35.9646C262.961 36.9577 263.722 37.8875 264.539 38.7327C266.271 40.5288 268.265 42.0009 270.469 43.1208C273.568 44.6916 276.914 45.4875 280.415 45.4875C292.565 45.4875 302.454 35.5983 302.454 23.4481C302.454 21.0673 302.081 18.7359 301.334 16.5101C300.56 14.1575 299.397 11.967 297.869 9.99477C297.143 9.05093 296.333 8.16343 295.46 7.34637C292.304 4.3951 288.395 2.45107 284.155 1.72558C282.936 1.51427 281.676 1.40861 280.415 1.40861Z" fill="#16293A"/>
<g opacity="0.55">
<path d="M302.63 23.4482C302.63 24.0046 302.609 24.554 302.567 25.1034C301.722 13.6083 292.128 4.53612 280.415 4.53612C268.701 4.53612 259.101 13.6012 258.263 25.1034C258.22 24.5611 258.199 24.0046 258.199 23.4482C258.199 11.1782 268.145 1.23267 280.415 1.23267C292.685 1.23267 302.63 11.1782 302.63 23.4482Z" fill="#16293A"/>
</g>
<path d="M302.63 23.4482C302.63 35.7181 292.685 45.6637 280.415 45.6637C268.145 45.6637 258.199 35.7181 258.199 23.4482C258.199 22.3846 258.277 21.3421 258.418 20.3208C259.939 31.1116 269.208 39.409 280.415 39.409C291.621 39.409 300.891 31.1116 302.412 20.3208C302.553 21.3421 302.63 22.3916 302.63 23.4482Z" fill="#F89E1D"/>
<path d="M280.414 38.937C271.87 38.937 264.925 31.985 264.925 23.4481C264.925 14.9042 271.877 7.95923 280.414 7.95923C288.958 7.95923 295.903 14.9113 295.903 23.4481C295.903 31.992 288.958 38.937 280.414 38.937Z" fill="#F9DD6A"/>
<path d="M280.414 39.1132C271.779 39.1132 264.749 32.0836 264.749 23.4482C264.749 14.8127 271.779 7.7832 280.414 7.7832C289.049 7.7832 296.079 14.8127 296.079 23.4482C296.079 32.0836 289.049 39.1132 280.414 39.1132ZM280.414 8.13538C271.969 8.13538 265.101 15.0029 265.101 23.4482C265.101 31.8935 271.969 38.761 280.414 38.761C288.859 38.761 295.727 31.8935 295.727 23.4482C295.727 15.0029 288.859 8.13538 280.414 8.13538Z" fill="#16293A"/>
<path d="M285.944 26.8431C285.944 28.8716 284.768 30.6748 282.295 31.4425V33.9078H279.154V31.8299C277.414 31.7877 275.738 31.3369 274.878 30.8579L275.618 27.8503C276.597 28.3504 278.104 28.8505 279.654 28.8505C281.33 28.8505 282.211 28.1602 282.211 27.1037C282.211 26.1035 281.443 25.5259 279.513 24.8356C276.837 23.9059 275.09 22.4197 275.09 20.0812C275.09 17.8625 276.583 16.0734 279.154 15.4606V12.9883H282.295V15.2915C283.563 15.4042 284.542 15.7142 285.296 16.0522L284.486 18.9965C283.845 18.6866 282.69 18.2287 281.119 18.2287C279.541 18.2287 278.774 18.9472 278.774 19.7854C278.774 20.8137 279.682 21.2645 281.76 22.0534C284.613 23.0959 285.944 24.575 285.944 26.8431Z" fill="white"/>
<path opacity="0.27" d="M295.587 7.2197L262.13 36.0703C259.735 32.6189 258.305 28.4562 258.207 23.9553L284.19 1.55664C288.557 2.30326 292.495 4.32478 295.587 7.2197Z" fill="#FCE5E5"/>
<path opacity="0.27" d="M300.623 14.2139L269.427 42.5644C267.187 41.4304 266.13 40.6415 264.405 38.8524L298.003 9.88208C299.524 11.8472 299.834 11.8191 300.623 14.2139Z" fill="#FCE5E5"/>
<g opacity="0.55">
<path d="M295.904 23.4481C295.904 23.8637 295.882 24.2792 295.854 24.6878C295.22 16.7214 288.536 10.4315 280.415 10.4315C272.293 10.4315 265.609 16.7214 264.975 24.6878C264.94 24.2792 264.926 23.8637 264.926 23.4481C264.926 14.9042 271.871 7.95215 280.415 7.95215C288.959 7.95919 295.904 14.9112 295.904 23.4481Z" fill="#16293A"/>
</g>
<path d="M280.415 39.8669C271.364 39.8669 264.003 32.5063 264.003 23.4482C264.003 14.3972 271.364 7.03662 280.415 7.03662C289.466 7.03662 296.827 14.3972 296.827 23.4482C296.834 32.4993 289.466 39.8669 280.415 39.8669ZM280.415 8.88205C272.385 8.88205 265.849 15.4185 265.849 23.4482C265.849 31.4779 272.385 38.0144 280.415 38.0144C288.445 38.0144 294.981 31.4779 294.981 23.4482C294.981 15.4185 288.445 8.88205 280.415 8.88205Z" fill="white"/>
<path d="M280.415 46.8963C276.696 46.8963 273.132 46.0511 269.835 44.3747C267.49 43.1843 265.363 41.6136 263.524 39.7119C262.651 38.8103 261.841 37.8242 261.115 36.7676C258.509 32.9993 257.072 28.583 256.974 23.9835C256.967 23.8003 256.967 23.6243 256.967 23.4482C256.967 10.5161 267.483 0 280.415 0C281.753 0 283.099 0.112699 284.402 0.338094C288.917 1.11289 293.072 3.17667 296.432 6.31812C297.355 7.18448 298.214 8.13536 298.989 9.13556C300.609 11.2346 301.849 13.566 302.673 16.0665C303.462 18.4261 303.863 20.9125 303.863 23.4482C303.863 36.3802 293.347 46.8963 280.415 46.8963ZM280.415 2.46526C268.849 2.46526 259.432 11.8755 259.432 23.4482C259.432 23.6031 259.432 23.7581 259.439 23.9201C259.531 28.0406 260.813 31.9991 263.144 35.3659C263.799 36.3098 264.518 37.1973 265.299 38.0003C266.948 39.7119 268.849 41.1135 270.948 42.1771C273.9 43.6704 277.083 44.4311 280.415 44.4311C291.981 44.4311 301.398 35.0208 301.398 23.4482C301.398 21.1801 301.039 18.9614 300.334 16.8413C299.595 14.6014 298.489 12.5165 297.038 10.6358C296.348 9.74131 295.573 8.88903 294.742 8.11423C291.741 5.30383 288.022 3.45137 283.979 2.76109C282.817 2.57092 281.612 2.46526 280.415 2.46526Z" fill="white"/>
</svg>
