<svg width="413" height="264" viewBox="0 0 413 264" fill="none" xmlns="http://www.w3.org/2000/svg">
<g clip-path="url(#clip0_704_1873)">
<rect width="413" height="264" fill="white"/>
<path opacity="0.03" d="M-9.5 372L-22 248.5V-28.5H134.5L83 142L319 -83L492.5 9C379.343 86.7647 154.16 240.279 135.541 248.183C155.304 244.3 415.907 205.77 550.5 186L474 364L-9.5 372Z" fill="#0E1F2E"/>
<path d="M32.3333 72.333H64.1666V75.6663H32.3333C29.4999 75.6663 27.3333 73.4997 27.3333 70.6663V37.333C27.3333 34.4997 29.4999 32.333 32.3333 32.333H85.6666C88.4999 32.333 90.6666 34.4997 90.6666 37.333V48.9997H87.3333V37.333C87.3333 36.333 86.6666 35.6663 85.6666 35.6663H32.3333C31.3333 35.6663 30.6666 36.333 30.6666 37.333V70.6663C30.6666 71.6663 31.3333 72.333 32.3333 72.333ZM63.9999 50.6663V47.333H60.6666V45.6663H57.3333V47.333H55.6666C54.6666 47.333 53.9999 47.9997 53.9999 48.9997V53.9997C53.9999 54.9997 54.6666 55.6663 55.6666 55.6663H60.6666V57.333H53.9999V60.6663H57.3333V62.333H60.6666V60.6663H62.3333C63.3333 60.6663 63.9999 59.9997 63.9999 58.9997V53.9997C63.9999 52.9997 63.3333 52.333 62.3333 52.333H57.3333V50.6663H63.9999ZM37.3333 60.833V46.9997C39.6666 46.333 41.4999 44.4997 42.1666 42.1663H75.9999C76.6666 44.4997 78.4999 46.333 80.8333 46.9997V48.9997H84.1666V45.6663C84.1666 44.6663 83.4999 43.9997 82.4999 43.9997C80.6666 43.9997 79.1666 42.4997 79.1666 40.6663C79.1666 39.6663 78.4999 38.9997 77.4999 38.9997H40.6666C39.6666 38.9997 38.9999 39.6663 38.9999 40.6663C38.9999 42.4997 37.4999 43.9997 35.6666 43.9997C34.6666 43.9997 33.9999 44.6663 33.9999 45.6663V62.333C33.9999 63.333 34.6666 63.9997 35.6666 63.9997C37.4999 63.9997 38.9999 65.4997 38.9999 67.333C38.9999 68.333 39.6666 68.9997 40.6666 68.9997H64.1666V65.6663H42.1666C41.4999 63.333 39.6666 61.4997 37.3333 60.833ZM50.6666 55.6663V52.333H43.9999V55.6663H50.6666ZM100.667 58.9997V80.6663C100.667 88.1663 86.3333 94.833 84.6666 95.4997C84.4999 95.6663 84.1666 95.6663 83.9999 95.6663C83.8333 95.6663 83.4999 95.6663 83.3333 95.4997C81.6666 94.833 67.3333 88.1663 67.3333 80.6663V58.9997C67.3333 57.9997 67.9999 57.333 68.9999 57.333C70.8333 57.333 72.3333 55.833 72.3333 53.9997C72.3333 52.9997 72.9999 52.333 73.9999 52.333H93.9999C94.9999 52.333 95.6666 52.9997 95.6666 53.9997C95.6666 55.833 97.1666 57.333 98.9999 57.333C99.9999 57.333 100.667 57.9997 100.667 58.9997ZM97.3333 60.4997C94.9999 59.833 93.1666 57.9997 92.4999 55.6663H75.4999C74.8333 57.9997 72.9999 59.833 70.6666 60.4997V80.6663C70.6666 84.4997 78.4999 89.6663 83.9999 92.1663C89.4999 89.6663 97.3333 84.4997 97.3333 80.6663V60.4997ZM88.9999 68.9997C88.9999 71.1663 87.6666 72.9997 85.6666 73.6663V80.6663H82.3333V73.6663C80.3333 72.9997 78.9999 71.1663 78.9999 68.9997C78.9999 66.1663 81.1666 63.9997 83.9999 63.9997C86.8333 63.9997 88.9999 66.1663 88.9999 68.9997ZM85.6666 68.9997C85.6666 67.9997 84.9999 67.333 83.9999 67.333C82.9999 67.333 82.3333 67.9997 82.3333 68.9997C82.3333 69.9997 82.9999 70.6663 83.9999 70.6663C84.9999 70.6663 85.6666 69.9997 85.6666 68.9997Z" fill="#9745FD"/>
<path d="M25.904 150V130.4H33.156C34.724 130.4 36.0213 130.661 37.048 131.184C38.0747 131.707 38.84 132.425 39.344 133.34C39.848 134.255 40.1 135.281 40.1 136.42C40.1 137.503 39.8573 138.501 39.372 139.416C38.8867 140.312 38.1307 141.04 37.104 141.6C36.0773 142.141 34.7613 142.412 33.156 142.412H29.488V150H25.904ZM29.488 139.5H32.932C34.1827 139.5 35.0787 139.229 35.62 138.688C36.18 138.128 36.46 137.372 36.46 136.42C36.46 135.449 36.18 134.693 35.62 134.152C35.0787 133.592 34.1827 133.312 32.932 133.312H29.488V139.5ZM48.3049 150.336C46.9049 150.336 45.6635 150.037 44.5809 149.44C43.4982 148.843 42.6489 148.003 42.0329 146.92C41.4169 145.837 41.1089 144.587 41.1089 143.168C41.1089 141.731 41.4075 140.452 42.0049 139.332C42.6209 138.212 43.4609 137.344 44.5249 136.728C45.6075 136.093 46.8769 135.776 48.3329 135.776C49.6955 135.776 50.8995 136.075 51.9449 136.672C52.9902 137.269 53.8022 138.091 54.3809 139.136C54.9782 140.163 55.2769 141.311 55.2769 142.58C55.2769 142.785 55.2675 143 55.2489 143.224C55.2489 143.448 55.2395 143.681 55.2209 143.924H44.6649C44.7395 145.007 45.1129 145.856 45.7849 146.472C46.4755 147.088 47.3062 147.396 48.2769 147.396C49.0049 147.396 49.6115 147.237 50.0969 146.92C50.6009 146.584 50.9742 146.155 51.2169 145.632H54.8569C54.5955 146.509 54.1569 147.312 53.5409 148.04C52.9435 148.749 52.1969 149.309 51.3009 149.72C50.4235 150.131 49.4249 150.336 48.3049 150.336ZM48.3329 138.688C47.4555 138.688 46.6809 138.94 46.0089 139.444C45.3369 139.929 44.9075 140.676 44.7209 141.684H51.6369C51.5809 140.769 51.2449 140.041 50.6289 139.5C50.0129 138.959 49.2475 138.688 48.3329 138.688ZM57.7312 150V136.112H60.8952L61.1752 138.464C61.6046 137.643 62.2206 136.989 63.0232 136.504C63.8446 136.019 64.8059 135.776 65.9072 135.776C67.6246 135.776 68.9592 136.317 69.9112 137.4C70.8632 138.483 71.3392 140.069 71.3392 142.16V150H67.7552V142.496C67.7552 141.301 67.5126 140.387 67.0272 139.752C66.5419 139.117 65.7859 138.8 64.7592 138.8C63.7512 138.8 62.9206 139.155 62.2672 139.864C61.6326 140.573 61.3152 141.563 61.3152 142.832V150H57.7312ZM80.0864 145.856C79.4144 145.856 78.7891 145.781 78.2104 145.632L77.1744 146.668C77.4917 146.836 77.9211 146.976 78.4624 147.088C79.0037 147.2 79.8811 147.312 81.0944 147.424C82.9424 147.592 84.2864 148.031 85.1264 148.74C85.9664 149.449 86.3864 150.429 86.3864 151.68C86.3864 152.501 86.1624 153.276 85.7144 154.004C85.2664 154.751 84.5757 155.348 83.6424 155.796C82.7091 156.263 81.5144 156.496 80.0584 156.496C78.0797 156.496 76.4837 156.123 75.2704 155.376C74.0571 154.648 73.4504 153.547 73.4504 152.072C73.4504 150.821 74.0571 149.739 75.2704 148.824C74.8971 148.656 74.5704 148.479 74.2904 148.292C74.0291 148.105 73.7957 147.909 73.5904 147.704V147.06L76.0264 144.484C74.9437 143.532 74.4024 142.309 74.4024 140.816C74.4024 139.883 74.6264 139.033 75.0744 138.268C75.5411 137.503 76.1944 136.896 77.0344 136.448C77.8744 136 78.8917 135.776 80.0864 135.776C80.8704 135.776 81.5984 135.888 82.2704 136.112H87.5344V138.296L85.1544 138.464C85.5277 139.173 85.7144 139.957 85.7144 140.816C85.7144 141.749 85.4904 142.599 85.0424 143.364C84.5944 144.129 83.9411 144.736 83.0824 145.184C82.2424 145.632 81.2437 145.856 80.0864 145.856ZM80.0864 143.112C80.8144 143.112 81.4117 142.916 81.8784 142.524C82.3637 142.132 82.6064 141.572 82.6064 140.844C82.6064 140.116 82.3637 139.556 81.8784 139.164C81.4117 138.772 80.8144 138.576 80.0864 138.576C79.3211 138.576 78.7051 138.772 78.2384 139.164C77.7717 139.556 77.5384 140.116 77.5384 140.844C77.5384 141.572 77.7717 142.132 78.2384 142.524C78.7051 142.916 79.3211 143.112 80.0864 143.112ZM76.7264 151.708C76.7264 152.399 77.0437 152.912 77.6784 153.248C78.3317 153.603 79.1251 153.78 80.0584 153.78C80.9544 153.78 81.6824 153.593 82.2424 153.22C82.8024 152.865 83.0824 152.38 83.0824 151.764C83.0824 151.26 82.8957 150.84 82.5224 150.504C82.1677 150.168 81.4491 149.963 80.3664 149.888C79.6011 149.832 78.8917 149.748 78.2384 149.636C77.6971 149.935 77.3051 150.261 77.0624 150.616C76.8384 150.971 76.7264 151.335 76.7264 151.708ZM95.7889 150.336C94.3889 150.336 93.1476 150.037 92.0649 149.44C90.9823 148.843 90.1329 148.003 89.5169 146.92C88.9009 145.837 88.5929 144.587 88.5929 143.168C88.5929 141.731 88.8916 140.452 89.4889 139.332C90.1049 138.212 90.9449 137.344 92.0089 136.728C93.0916 136.093 94.3609 135.776 95.8169 135.776C97.1796 135.776 98.3836 136.075 99.4289 136.672C100.474 137.269 101.286 138.091 101.865 139.136C102.462 140.163 102.761 141.311 102.761 142.58C102.761 142.785 102.752 143 102.733 143.224C102.733 143.448 102.724 143.681 102.705 143.924H92.1489C92.2236 145.007 92.5969 145.856 93.2689 146.472C93.9596 147.088 94.7903 147.396 95.7609 147.396C96.4889 147.396 97.0956 147.237 97.5809 146.92C98.0849 146.584 98.4583 146.155 98.7009 145.632H102.341C102.08 146.509 101.641 147.312 101.025 148.04C100.428 148.749 99.6809 149.309 98.7849 149.72C97.9076 150.131 96.9089 150.336 95.7889 150.336ZM95.8169 138.688C94.9396 138.688 94.1649 138.94 93.4929 139.444C92.8209 139.929 92.3916 140.676 92.2049 141.684H99.1209C99.0649 140.769 98.7289 140.041 98.1129 139.5C97.4969 138.959 96.7316 138.688 95.8169 138.688ZM105.215 150V129.84H108.799V150H105.215ZM117.109 150.336C115.373 150.336 114.029 149.795 113.077 148.712C112.144 147.629 111.677 146.043 111.677 143.952V136.112H115.233V143.616C115.233 144.811 115.476 145.725 115.961 146.36C116.447 146.995 117.212 147.312 118.257 147.312C119.247 147.312 120.059 146.957 120.693 146.248C121.347 145.539 121.673 144.549 121.673 143.28V136.112H125.257V150H122.093L121.813 147.648C121.384 148.469 120.759 149.123 119.937 149.608C119.135 150.093 118.192 150.336 117.109 150.336ZM133.165 150.336C131.97 150.336 130.99 150.149 130.225 149.776C129.459 149.384 128.89 148.871 128.517 148.236C128.143 147.601 127.957 146.901 127.957 146.136C127.957 144.848 128.461 143.803 129.469 143C130.477 142.197 131.989 141.796 134.005 141.796H137.533V141.46C137.533 140.508 137.262 139.808 136.721 139.36C136.179 138.912 135.507 138.688 134.705 138.688C133.977 138.688 133.342 138.865 132.801 139.22C132.259 139.556 131.923 140.06 131.793 140.732H128.293C128.386 139.724 128.722 138.847 129.301 138.1C129.898 137.353 130.663 136.784 131.597 136.392C132.53 135.981 133.575 135.776 134.733 135.776C136.711 135.776 138.27 136.271 139.409 137.26C140.547 138.249 141.117 139.649 141.117 141.46V150H138.065L137.729 147.76C137.318 148.507 136.739 149.123 135.993 149.608C135.265 150.093 134.322 150.336 133.165 150.336ZM133.977 147.536C135.003 147.536 135.797 147.2 136.357 146.528C136.935 145.856 137.299 145.025 137.449 144.036H134.397C133.445 144.036 132.763 144.213 132.353 144.568C131.942 144.904 131.737 145.324 131.737 145.828C131.737 146.369 131.942 146.789 132.353 147.088C132.763 147.387 133.305 147.536 133.977 147.536ZM143.977 150V136.112H147.169L147.505 138.716C148.009 137.82 148.69 137.111 149.549 136.588C150.426 136.047 151.453 135.776 152.629 135.776V139.556H151.621C150.837 139.556 150.137 139.677 149.521 139.92C148.905 140.163 148.419 140.583 148.065 141.18C147.729 141.777 147.561 142.608 147.561 143.672V150H143.977ZM159.306 150.336C158.112 150.336 157.132 150.149 156.366 149.776C155.601 149.384 155.032 148.871 154.658 148.236C154.285 147.601 154.098 146.901 154.098 146.136C154.098 144.848 154.602 143.803 155.61 143C156.618 142.197 158.13 141.796 160.146 141.796H163.674V141.46C163.674 140.508 163.404 139.808 162.862 139.36C162.321 138.912 161.649 138.688 160.846 138.688C160.118 138.688 159.484 138.865 158.942 139.22C158.401 139.556 158.065 140.06 157.934 140.732H154.434C154.528 139.724 154.864 138.847 155.442 138.1C156.04 137.353 156.805 136.784 157.738 136.392C158.672 135.981 159.717 135.776 160.874 135.776C162.853 135.776 164.412 136.271 165.55 137.26C166.689 138.249 167.258 139.649 167.258 141.46V150H164.206L163.87 147.76C163.46 148.507 162.881 149.123 162.134 149.608C161.406 150.093 160.464 150.336 159.306 150.336ZM160.118 147.536C161.145 147.536 161.938 147.2 162.498 146.528C163.077 145.856 163.441 145.025 163.59 144.036H160.538C159.586 144.036 158.905 144.213 158.494 144.568C158.084 144.904 157.878 145.324 157.878 145.828C157.878 146.369 158.084 146.789 158.494 147.088C158.905 147.387 159.446 147.536 160.118 147.536ZM170.118 150V136.112H173.282L173.562 138.464C173.992 137.643 174.608 136.989 175.41 136.504C176.232 136.019 177.193 135.776 178.294 135.776C180.012 135.776 181.346 136.317 182.298 137.4C183.25 138.483 183.726 140.069 183.726 142.16V150H180.142V142.496C180.142 141.301 179.9 140.387 179.414 139.752C178.929 139.117 178.173 138.8 177.146 138.8C176.138 138.8 175.308 139.155 174.654 139.864C174.02 140.573 173.702 141.563 173.702 142.832V150H170.118ZM192.789 150V130.4H196.373V138.324L203.625 130.4H208.049L200.825 138.184L208.245 150H203.849L198.249 140.928L196.373 142.972V150H192.789ZM213.887 150.336C212.692 150.336 211.712 150.149 210.947 149.776C210.181 149.384 209.612 148.871 209.239 148.236C208.865 147.601 208.679 146.901 208.679 146.136C208.679 144.848 209.183 143.803 210.191 143C211.199 142.197 212.711 141.796 214.727 141.796H218.255V141.46C218.255 140.508 217.984 139.808 217.443 139.36C216.901 138.912 216.229 138.688 215.427 138.688C214.699 138.688 214.064 138.865 213.523 139.22C212.981 139.556 212.645 140.06 212.515 140.732H209.015C209.108 139.724 209.444 138.847 210.023 138.1C210.62 137.353 211.385 136.784 212.319 136.392C213.252 135.981 214.297 135.776 215.455 135.776C217.433 135.776 218.992 136.271 220.131 137.26C221.269 138.249 221.839 139.649 221.839 141.46V150H218.787L218.451 147.76C218.04 148.507 217.461 149.123 216.715 149.608C215.987 150.093 215.044 150.336 213.887 150.336ZM214.699 147.536C215.725 147.536 216.519 147.2 217.079 146.528C217.657 145.856 218.021 145.025 218.171 144.036H215.119C214.167 144.036 213.485 144.213 213.075 144.568C212.664 144.904 212.459 145.324 212.459 145.828C212.459 146.369 212.664 146.789 213.075 147.088C213.485 147.387 214.027 147.536 214.699 147.536ZM224.699 150V136.112H227.863L228.171 137.988C228.619 137.316 229.207 136.784 229.935 136.392C230.681 135.981 231.54 135.776 232.511 135.776C234.657 135.776 236.179 136.607 237.075 138.268C237.579 137.503 238.251 136.896 239.091 136.448C239.949 136 240.883 135.776 241.891 135.776C243.701 135.776 245.092 136.317 246.063 137.4C247.033 138.483 247.519 140.069 247.519 142.16V150H243.935V142.496C243.935 141.301 243.701 140.387 243.235 139.752C242.787 139.117 242.087 138.8 241.135 138.8C240.164 138.8 239.38 139.155 238.783 139.864C238.204 140.573 237.915 141.563 237.915 142.832V150H234.331V142.496C234.331 141.301 234.097 140.387 233.631 139.752C233.164 139.117 232.445 138.8 231.475 138.8C230.523 138.8 229.748 139.155 229.151 139.864C228.572 140.573 228.283 141.563 228.283 142.832V150H224.699ZM252.293 133.956C251.64 133.956 251.099 133.76 250.669 133.368C250.259 132.976 250.053 132.481 250.053 131.884C250.053 131.287 250.259 130.801 250.669 130.428C251.099 130.036 251.64 129.84 252.293 129.84C252.947 129.84 253.479 130.036 253.889 130.428C254.319 130.801 254.533 131.287 254.533 131.884C254.533 132.481 254.319 132.976 253.889 133.368C253.479 133.76 252.947 133.956 252.293 133.956ZM250.501 150V136.112H254.085V150H250.501Z" fill="#0E1F2E"/>
</g>
<defs>
<clipPath id="clip0_704_1873">
<rect width="413" height="264" fill="white"/>
</clipPath>
</defs>
</svg>
