<svg width="310" height="264" viewBox="0 0 310 264" fill="none" xmlns="http://www.w3.org/2000/svg">
<g clip-path="url(#clip0_704_1123)">
<rect width="310" height="264" fill="white"/>
<path opacity="0.03" d="M-9.5 371.537L-22 248.037V-28.9629H134.5L83 141.537L319 -83.4629L492.5 8.53711C379.343 86.3018 154.16 239.816 135.541 247.72C155.304 243.837 415.907 205.307 550.5 185.537L474 363.537L-9.5 371.537Z" fill="#0E1F2E"/>
<path d="M57.75 73.6C54.5167 73.6 51.75 72.85 49.45 71.35C47.15 69.8167 45.3667 67.7 44.1 65C42.8667 62.2667 42.25 59.1 42.25 55.5C42.25 51.9333 42.8667 48.7833 44.1 46.05C45.3667 43.3167 47.15 41.2 49.45 39.7C51.75 38.1667 54.5167 37.4 57.75 37.4C60.9833 37.4 63.75 38.1667 66.05 39.7C68.35 41.2 70.1167 43.3167 71.35 46.05C72.6167 48.7833 73.25 51.9333 73.25 55.5C73.25 59.1 72.6167 62.2667 71.35 65C70.1167 67.7 68.35 69.8167 66.05 71.35C63.75 72.85 60.9833 73.6 57.75 73.6ZM57.75 67.85C60.3833 67.85 62.5333 66.75 64.2 64.55C65.8667 62.35 66.7 59.3333 66.7 55.5C66.7 51.6667 65.8667 48.65 64.2 46.45C62.5333 44.25 60.3833 43.15 57.75 43.15C55.0833 43.15 52.9167 44.25 51.25 46.45C49.6167 48.65 48.8 51.6667 48.8 55.5C48.8 59.3333 49.6167 62.35 51.25 64.55C52.9167 66.75 55.0833 67.85 57.75 67.85ZM81.698 73V45.3L75.948 46.65V41.75L84.398 38H88.348V73H81.698ZM96.7344 73.35C95.5677 73.35 94.601 72.9833 93.8344 72.25C93.101 71.5167 92.7344 70.6333 92.7344 69.6C92.7344 68.5333 93.101 67.6333 93.8344 66.9C94.601 66.1667 95.5677 65.8 96.7344 65.8C97.901 65.8 98.851 66.1667 99.5844 66.9C100.351 67.6333 100.734 68.5333 100.734 69.6C100.734 70.6333 100.351 71.5167 99.5844 72.25C98.851 72.9833 97.901 73.35 96.7344 73.35Z" fill="#9745FD"/>
<path d="M46.447 111.252C45.369 111.252 44.417 111.07 43.591 110.706C42.765 110.328 42.114 109.796 41.638 109.11C41.162 108.41 40.917 107.563 40.903 106.569H43.738C43.766 107.255 44.011 107.836 44.473 108.312C44.949 108.774 45.6 109.005 46.426 109.005C47.14 109.005 47.707 108.837 48.127 108.501C48.547 108.151 48.757 107.689 48.757 107.115C48.757 106.513 48.568 106.044 48.19 105.708C47.826 105.372 47.336 105.099 46.72 104.889C46.104 104.679 45.446 104.455 44.746 104.217C43.612 103.825 42.744 103.321 42.142 102.705C41.554 102.089 41.26 101.27 41.26 100.248C41.246 99.38 41.449 98.638 41.869 98.022C42.303 97.392 42.891 96.909 43.633 96.573C44.375 96.223 45.229 96.048 46.195 96.048C47.175 96.048 48.036 96.223 48.778 96.573C49.534 96.923 50.122 97.413 50.542 98.043C50.976 98.673 51.207 99.422 51.235 100.29H48.358C48.344 99.772 48.141 99.317 47.749 98.925C47.371 98.519 46.839 98.316 46.153 98.316C45.565 98.302 45.068 98.449 44.662 98.757C44.27 99.051 44.074 99.485 44.074 100.059C44.074 100.549 44.228 100.941 44.536 101.235C44.844 101.515 45.264 101.753 45.796 101.949C46.328 102.145 46.937 102.355 47.623 102.579C48.351 102.831 49.016 103.125 49.618 103.461C50.22 103.797 50.703 104.245 51.067 104.805C51.431 105.351 51.613 106.058 51.613 106.926C51.613 107.696 51.417 108.41 51.025 109.068C50.633 109.726 50.052 110.258 49.282 110.664C48.512 111.056 47.567 111.252 46.447 111.252ZM54.9243 98.967C54.4343 98.967 54.0283 98.82 53.7063 98.526C53.3983 98.232 53.2443 97.861 53.2443 97.413C53.2443 96.965 53.3983 96.601 53.7063 96.321C54.0283 96.027 54.4343 95.88 54.9243 95.88C55.4143 95.88 55.8133 96.027 56.1213 96.321C56.4433 96.601 56.6043 96.965 56.6043 97.413C56.6043 97.861 56.4433 98.232 56.1213 98.526C55.8133 98.82 55.4143 98.967 54.9243 98.967ZM53.5803 111V100.584H56.2683V111H53.5803ZM62.2449 111.252C61.3489 111.252 60.6139 111.112 60.0399 110.832C59.4659 110.538 59.0389 110.153 58.7589 109.677C58.4789 109.201 58.3389 108.676 58.3389 108.102C58.3389 107.136 58.7169 106.352 59.4729 105.75C60.2289 105.148 61.3629 104.847 62.8749 104.847H65.5209V104.595C65.5209 103.881 65.3179 103.356 64.9119 103.02C64.5059 102.684 64.0019 102.516 63.3999 102.516C62.8539 102.516 62.3779 102.649 61.9719 102.915C61.5659 103.167 61.3139 103.545 61.2159 104.049H58.5909C58.6609 103.293 58.9129 102.635 59.3469 102.075C59.7949 101.515 60.3689 101.088 61.0689 100.794C61.7689 100.486 62.5529 100.332 63.4209 100.332C64.9049 100.332 66.0739 100.703 66.9279 101.445C67.7819 102.187 68.2089 103.237 68.2089 104.595V111H65.9199L65.6679 109.32C65.3599 109.88 64.9259 110.342 64.3659 110.706C63.8199 111.07 63.1129 111.252 62.2449 111.252ZM62.8539 109.152C63.6239 109.152 64.2189 108.9 64.6389 108.396C65.0729 107.892 65.3459 107.269 65.4579 106.527H63.1689C62.4549 106.527 61.9439 106.66 61.6359 106.926C61.3279 107.178 61.1739 107.493 61.1739 107.871C61.1739 108.277 61.3279 108.592 61.6359 108.816C61.9439 109.04 62.3499 109.152 62.8539 109.152ZM70.354 115.62V100.584H72.748L73.042 102.075C73.378 101.613 73.819 101.207 74.365 100.857C74.925 100.507 75.646 100.332 76.528 100.332C77.508 100.332 78.383 100.57 79.153 101.046C79.923 101.522 80.532 102.173 80.98 102.999C81.428 103.825 81.652 104.763 81.652 105.813C81.652 106.863 81.428 107.801 80.98 108.627C80.532 109.439 79.923 110.083 79.153 110.559C78.383 111.021 77.508 111.252 76.528 111.252C75.744 111.252 75.058 111.105 74.47 110.811C73.882 110.517 73.406 110.104 73.042 109.572V115.62H70.354ZM75.961 108.9C76.815 108.9 77.522 108.613 78.082 108.039C78.642 107.465 78.922 106.723 78.922 105.813C78.922 104.903 78.642 104.154 78.082 103.566C77.522 102.978 76.815 102.684 75.961 102.684C75.093 102.684 74.379 102.978 73.819 103.566C73.273 104.14 73 104.882 73 105.792C73 106.702 73.273 107.451 73.819 108.039C74.379 108.613 75.093 108.9 75.961 108.9ZM88.2802 111V96.3H93.7192C94.8952 96.3 95.8682 96.496 96.6382 96.888C97.4082 97.28 97.9822 97.819 98.3602 98.505C98.7382 99.191 98.9272 99.961 98.9272 100.815C98.9272 101.627 98.7452 102.376 98.3812 103.062C98.0172 103.734 97.4502 104.28 96.6802 104.7C95.9102 105.106 94.9232 105.309 93.7192 105.309H90.9682V111H88.2802ZM90.9682 103.125H93.5512C94.4892 103.125 95.1612 102.922 95.5672 102.516C95.9872 102.096 96.1972 101.529 96.1972 100.815C96.1972 100.087 95.9872 99.52 95.5672 99.114C95.1612 98.694 94.4892 98.484 93.5512 98.484H90.9682V103.125ZM103.488 111.252C102.592 111.252 101.857 111.112 101.283 110.832C100.709 110.538 100.282 110.153 100.002 109.677C99.7218 109.201 99.5818 108.676 99.5818 108.102C99.5818 107.136 99.9598 106.352 100.716 105.75C101.472 105.148 102.606 104.847 104.118 104.847H106.764V104.595C106.764 103.881 106.561 103.356 106.155 103.02C105.749 102.684 105.245 102.516 104.643 102.516C104.097 102.516 103.621 102.649 103.215 102.915C102.809 103.167 102.557 103.545 102.459 104.049H99.8338C99.9038 103.293 100.156 102.635 100.59 102.075C101.038 101.515 101.612 101.088 102.312 100.794C103.012 100.486 103.796 100.332 104.664 100.332C106.148 100.332 107.317 100.703 108.171 101.445C109.025 102.187 109.452 103.237 109.452 104.595V111H107.163L106.911 109.32C106.603 109.88 106.169 110.342 105.609 110.706C105.063 111.07 104.356 111.252 103.488 111.252ZM104.097 109.152C104.867 109.152 105.462 108.9 105.882 108.396C106.316 107.892 106.589 107.269 106.701 106.527H104.412C103.698 106.527 103.187 106.66 102.879 106.926C102.571 107.178 102.417 107.493 102.417 107.871C102.417 108.277 102.571 108.592 102.879 108.816C103.187 109.04 103.593 109.152 104.097 109.152ZM111.597 111V95.88H114.285V104.805L117.981 100.584H121.173L116.91 105.33L121.866 111H118.506L114.285 105.771V111H111.597ZM126.355 111.252C125.459 111.252 124.724 111.112 124.15 110.832C123.576 110.538 123.149 110.153 122.869 109.677C122.589 109.201 122.449 108.676 122.449 108.102C122.449 107.136 122.827 106.352 123.583 105.75C124.339 105.148 125.473 104.847 126.985 104.847H129.631V104.595C129.631 103.881 129.428 103.356 129.022 103.02C128.616 102.684 128.112 102.516 127.51 102.516C126.964 102.516 126.488 102.649 126.082 102.915C125.676 103.167 125.424 103.545 125.326 104.049H122.701C122.771 103.293 123.023 102.635 123.457 102.075C123.905 101.515 124.479 101.088 125.179 100.794C125.879 100.486 126.663 100.332 127.531 100.332C129.015 100.332 130.184 100.703 131.038 101.445C131.892 102.187 132.319 103.237 132.319 104.595V111H130.03L129.778 109.32C129.47 109.88 129.036 110.342 128.476 110.706C127.93 111.07 127.223 111.252 126.355 111.252ZM126.964 109.152C127.734 109.152 128.329 108.9 128.749 108.396C129.183 107.892 129.456 107.269 129.568 106.527H127.279C126.565 106.527 126.054 106.66 125.746 106.926C125.438 107.178 125.284 107.493 125.284 107.871C125.284 108.277 125.438 108.592 125.746 108.816C126.054 109.04 126.46 109.152 126.964 109.152ZM135.913 98.967C135.423 98.967 135.017 98.82 134.695 98.526C134.387 98.232 134.233 97.861 134.233 97.413C134.233 96.965 134.387 96.601 134.695 96.321C135.017 96.027 135.423 95.88 135.913 95.88C136.403 95.88 136.802 96.027 137.11 96.321C137.432 96.601 137.593 96.965 137.593 97.413C137.593 97.861 137.432 98.232 137.11 98.526C136.802 98.82 136.403 98.967 135.913 98.967ZM134.569 111V100.584H137.257V111H134.569Z" fill="#0E1F2E"/>
</g>
<defs>
<clipPath id="clip0_704_1123">
<rect width="310" height="264" fill="white"/>
</clipPath>
</defs>
</svg>
